solid
facet normal 0 -1 0
outer loop
vertex 149.5 -149.5 -50.47049644
vertex 149.5 -149.5 37.86150356
vertex 15.548 -149.5 37.86150356
endloop
endfacet
facet normal 0 -1 -0
outer loop
vertex -149.5 -149.5 -50.87849644
vertex -149.5 -149.5 -166.1384964
vertex -43.94927439 -149.5 -87.59600895
endloop
endfacet
facet normal 0 -1 0
outer loop
vertex -149.5 -149.5 -166.1384964
vertex -49.37413678 -149.5 -217.9780829
vertex -43.94927439 -149.5 -87.59600895
endloop
endfacet
facet normal 0 -1 0
outer loop
vertex -49.37413678 -149.5 -217.9780829
vertex 57.32520618 -149.5 -216.0233106
vertex -43.94927439 -149.5 -87.59600895
endloop
endfacet
facet normal 0 -1 0
outer loop
vertex 57.32520618 -149.5 -216.0233106
vertex 149.5 -149.5 -166.1384964
vertex 61.57345457 -149.5 -94.57210742
endloop
endfacet
facet normal 0 -1 0
outer loop
vertex -43.94927439 -149.5 -87.59600895
vertex 57.32520618 -149.5 -216.0233106
vertex 61.57345457 -149.5 -94.57210742
endloop
endfacet
facet normal 0 -1 0
outer loop
vertex 149.5 -149.5 -166.1384964
vertex 149.5 -149.5 -50.47049644
vertex 61.57345457 -149.5 -94.57210742
endloop
endfacet
facet normal -0 -1 0
outer loop
vertex 149.5 -149.5 -50.47049644
vertex 15.548 -149.5 37.86150356
vertex 61.57345457 -149.5 -94.57210742
endloop
endfacet
facet normal 0 -1 0
outer loop
vertex 61.57345457 -149.5 -94.57210742
vertex 15.548 -149.5 37.86150356
vertex -43.94927439 -149.5 -87.59600895
endloop
endfacet
facet normal -0 -1 0
outer loop
vertex 15.548 -149.5 37.86150356
vertex -149.5 -149.5 37.86150356
vertex -43.94927439 -149.5 -87.59600895
endloop
endfacet
facet normal 0 -1 0
outer loop
vertex -149.5 -149.5 37.86150356
vertex -149.5 -149.5 -50.87849644
vertex -43.94927439 -149.5 -87.59600895
endloop
endfacet
facet normal -9.19721326e-016 -0.8499631074 -0.5268422118
outer loop
vertex -206.513 -206.513 129.8415036
vertex -149.5 -149.5 37.86150356
vertex -57.66648169 -219.86577 151.3837446
endloop
endfacet
facet normal 0 -0.8499631074 -0.5268422118
outer loop
vertex -149.5 -149.5 37.86150356
vertex 15.548 -149.5 37.86150356
vertex -57.66648169 -219.86577 151.3837446
endloop
endfacet
facet normal -5.094016841e-016 -0.8499631074 -0.5268422118
outer loop
vertex -289.299 -289.299 263.4015036
vertex -206.513 -206.513 129.8415036
vertex -112.5604154 -302.8777179 285.3082699
endloop
endfacet
facet normal -8.053712185e-016 -0.8499631074 -0.5268422118
outer loop
vertex -206.513 -206.513 129.8415036
vertex -57.66648169 -219.86577 151.3837446
vertex -112.5604154 -302.8777179 285.3082699
endloop
endfacet
facet normal 0 -0.8499631074 -0.5268422118
outer loop
vertex -540 -540 667.8615036
vertex -439.251 -439.251 505.3215036
vertex -322.92 -540 667.8615036
endloop
endfacet
facet normal 0 -0.8499631074 -0.5268422118
outer loop
vertex 15.548 -149.5 37.86150356
vertex 149.5 -149.5 37.86150356
vertex 86.49178491 -208.9881619 133.8347226
endloop
endfacet
facet normal 8.970724943e-017 -0.8499631074 -0.5268422118
outer loop
vertex -57.66648169 -219.86577 151.3837446
vertex 15.548 -149.5 37.86150356
vertex 86.49178491 -208.9881619 133.8347226
endloop
endfacet
facet normal -1.954531102e-015 -0.8499631074 -0.5268422118
outer loop
vertex 149.5 -149.5 37.86150356
vertex 213.542 -213.542 141.1815036
vertex 86.49178491 -208.9881619 133.8347226
endloop
endfacet
facet normal 0 -0.8499631074 -0.5268422118
outer loop
vertex 440.4225 -440.4225 507.2115036
vertex 540 -540 667.8615036
vertex 324 -540 667.8615036
endloop
endfacet
facet normal 1.794552016e-016 -0.8499631074 -0.5268422118
outer loop
vertex 294.3755 -294.3755 271.5915036
vertex 440.4225 -440.4225 507.2115036
vertex 209.3341831 -428.722397 488.3355371
endloop
endfacet
facet normal 1.671030592e-016 -0.8499631074 -0.5268422118
outer loop
vertex 440.4225 -440.4225 507.2115036
vertex 324 -540 667.8615036
vertex 209.3341831 -428.722397 488.3355371
endloop
endfacet
facet normal -5.237809867e-016 -0.8499631074 -0.5268422118
outer loop
vertex 213.542 -213.542 141.1815036
vertex 294.3755 -294.3755 271.5915036
vertex 91.31780889 -295.0277062 272.6437184
endloop
endfacet
facet normal -5.406560598e-016 -0.8499631074 -0.5268422118
outer loop
vertex 294.3755 -294.3755 271.5915036
vertex 209.3341831 -428.722397 488.3355371
vertex 91.31780889 -295.0277062 272.6437184
endloop
endfacet
facet normal -0 -0.8499631074 -0.5268422118
outer loop
vertex 324 -540 667.8615036
vertex 108 -540 667.8615036
vertex 209.3341831 -428.722397 488.3355371
endloop
endfacet
facet normal -3.283261669e-016 -0.8499631074 -0.5268422118
outer loop
vertex -322.92 -540 667.8615036
vertex -439.251 -439.251 505.3215036
vertex -216.0871252 -431.7988924 493.2988971
endloop
endfacet
facet normal -0 -0.8499631074 -0.5268422118
outer loop
vertex -106.92 -540 667.8615036
vertex -322.92 -540 667.8615036
vertex -216.0871252 -431.7988924 493.2988971
endloop
endfacet
facet normal -3.962583482e-016 -0.8499631074 -0.5268422118
outer loop
vertex -439.251 -439.251 505.3215036
vertex -289.299 -289.299 263.4015036
vertex -216.0871252 -431.7988924 493.2988971
endloop
endfacet
facet normal -2.014917719e-015 -0.8499631074 -0.5268422118
outer loop
vertex 86.49178491 -208.9881619 133.8347226
vertex 213.542 -213.542 141.1815036
vertex 91.31780889 -295.0277062 272.6437184
endloop
endfacet
facet normal -5.149894868e-016 -0.8499631074 -0.5268422118
outer loop
vertex -289.299 -289.299 263.4015036
vertex -112.5604154 -302.8777179 285.3082699
vertex -216.0871252 -431.7988924 493.2988971
endloop
endfacet
facet normal 1.604594657e-016 -0.8499631074 -0.5268422118
outer loop
vertex -106.92 -540 667.8615036
vertex -216.0871252 -431.7988924 493.2988971
vertex 1.737963126 -428.8631009 488.562537
endloop
endfacet
facet normal -0 -0.8499631074 -0.5268422118
outer loop
vertex 108 -540 667.8615036
vertex -106.92 -540 667.8615036
vertex 1.737963126 -428.8631009 488.562537
endloop
endfacet
facet normal 1.14277422e-016 -0.8499631074 -0.5268422118
outer loop
vertex -216.0871252 -431.7988924 493.2988971
vertex -112.5604154 -302.8777179 285.3082699
vertex 1.737963126 -428.8631009 488.562537
endloop
endfacet
facet normal -1.660395914e-016 -0.8499631074 -0.5268422118
outer loop
vertex 108 -540 667.8615036
vertex 1.737963126 -428.8631009 488.562537
vertex 209.3341831 -428.722397 488.3355371
endloop
endfacet
facet normal -2.070468478e-016 -0.8499631074 -0.5268422118
outer loop
vertex 91.31780889 -295.0277062 272.6437184
vertex 209.3341831 -428.722397 488.3355371
vertex 1.737963126 -428.8631009 488.562537
endloop
endfacet
facet normal -9.012557767e-017 -0.8499631074 -0.5268422118
outer loop
vertex 91.31780889 -295.0277062 272.6437184
vertex 1.737963126 -428.8631009 488.562537
vertex -112.5604154 -302.8777179 285.3082699
endloop
endfacet
facet normal -8.71548429e-017 -0.8499631074 -0.5268422118
outer loop
vertex -112.5604154 -302.8777179 285.3082699
vertex -57.66648169 -219.86577 151.3837446
vertex 91.31780889 -295.0277062 272.6437184
endloop
endfacet
facet normal 8.655484447e-017 -0.8499631074 -0.5268422118
outer loop
vertex 86.49178491 -208.9881619 133.8347226
vertex 91.31780889 -295.0277062 272.6437184
vertex -57.66648169 -219.86577 151.3837446
endloop
endfacet
facet normal 0 -1 0
outer loop
vertex 540 -540 667.8615036
vertex 540 -540 843.4615036
vertex 324 -540 667.8615036
endloop
endfacet
facet normal 0 -1 0
outer loop
vertex 540 -540 843.4615036
vertex 540 -540 1067.861504
vertex 271.9176713 -540 860.8940556
endloop
endfacet
facet normal 0 -1 0
outer loop
vertex 324 -540 667.8615036
vertex 540 -540 843.4615036
vertex 271.9176713 -540 860.8940556
endloop
endfacet
facet normal -0 -1 0
outer loop
vertex 540 -540 1067.861504
vertex 179.28 -540 1067.861504
vertex 271.9176713 -540 860.8940556
endloop
endfacet
facet normal -0 -1 0
outer loop
vertex -180.36 -540 1067.861504
vertex -540 -540 1067.861504
vertex -540 -540 843.0615036
endloop
endfacet
facet normal 0 -1 -0
outer loop
vertex -540 -540 843.0615036
vertex -540 -540 667.8615036
vertex -322.92 -540 667.8615036
endloop
endfacet
facet normal 0 -1 0
outer loop
vertex -322.92 -540 667.8615036
vertex -106.92 -540 667.8615036
vertex -227.8874769 -540 831.5098973
endloop
endfacet
facet normal 0 -1 0
outer loop
vertex 108 -540 667.8615036
vertex 324 -540 667.8615036
vertex 271.9176713 -540 860.8940556
endloop
endfacet
facet normal 0 -1 0
outer loop
vertex 271.9176713 -540 860.8940556
vertex 179.28 -540 1067.861504
vertex 9.316889412 -540 863.9480808
endloop
endfacet
facet normal 0 -1 0
outer loop
vertex 108 -540 667.8615036
vertex 271.9176713 -540 860.8940556
vertex 9.316889412 -540 863.9480808
endloop
endfacet
facet normal -0 -1 0
outer loop
vertex 179.28 -540 1067.861504
vertex -180.36 -540 1067.861504
vertex 9.316889412 -540 863.9480808
endloop
endfacet
facet normal 0 -1 0
outer loop
vertex -540 -540 843.0615036
vertex -322.92 -540 667.8615036
vertex -227.8874769 -540 831.5098973
endloop
endfacet
facet normal 0 -1 0
outer loop
vertex -227.8874769 -540 831.5098973
vertex -106.92 -540 667.8615036
vertex 9.316889412 -540 863.9480808
endloop
endfacet
facet normal 0 -1 0
outer loop
vertex -106.92 -540 667.8615036
vertex 108 -540 667.8615036
vertex 9.316889412 -540 863.9480808
endloop
endfacet
facet normal -0 -1 0
outer loop
vertex 9.316889412 -540 863.9480808
vertex -180.36 -540 1067.861504
vertex -227.8874769 -540 831.5098973
endloop
endfacet
facet normal 0 -1 0
outer loop
vertex -180.36 -540 1067.861504
vertex -540 -540 843.0615036
vertex -227.8874769 -540 831.5098973
endloop
endfacet
facet normal 1 -2.278671116e-012 1.228589992e-015
outer loop
vertex 149.5 -149.5 -50.47049644
vertex 149.5 -149.5 -166.1384964
vertex 149.5 10.166 -166.1384964
endloop
endfacet
facet normal 1 -3.644567831e-012 0
outer loop
vertex 149.5 -149.5 37.86150356
vertex 149.5 -149.5 -50.47049644
vertex 149.5 -49.634 37.86150356
endloop
endfacet
facet normal 1 0 0
outer loop
vertex 149.5 10.166 -166.1384964
vertex 149.5 149.5 -166.1384964
vertex 149.5 149.5 -50.87849644
endloop
endfacet
facet normal 1 0 -0
outer loop
vertex 149.5 149.5 -50.87849644
vertex 149.5 149.5 37.86150356
vertex 149.5 49.933 37.86150356
endloop
endfacet
facet normal 1 0 0
outer loop
vertex 149.5 10.166 -166.1384964
vertex 149.5 149.5 -50.87849644
vertex 149.5 49.933 37.86150356
endloop
endfacet
facet normal 1 -2.894164659e-012 -8.483874833e-013
outer loop
vertex 149.5 -49.634 37.86150356
vertex 149.5 -149.5 -50.47049644
vertex 149.5 10.166 -166.1384964
endloop
endfacet
facet normal 1 -0 0
outer loop
vertex 149.5 -49.634 37.86150356
vertex 149.5 10.166 -166.1384964
vertex 149.5 49.933 37.86150356
endloop
endfacet
facet normal -1 0 0
outer loop
vertex -149.5 -149.5 -50.87849644
vertex -149.5 -149.5 37.86150356
vertex -149.5 -49.933 37.86150356
endloop
endfacet
facet normal -1 2.395977192e-017 4.931755931e-016
outer loop
vertex -149.5 -149.5 -166.1384964
vertex -149.5 -149.5 -50.87849644
vertex -149.5 -16.17057222 -57.35599193
endloop
endfacet
facet normal -1 3.72768174e-016 6.565809044e-017
outer loop
vertex -149.5 2.99 -166.1384964
vertex -149.5 -149.5 -166.1384964
vertex -149.5 -16.17057222 -57.35599193
endloop
endfacet
facet normal -1 0 0
outer loop
vertex -149.5 -149.5 -50.87849644
vertex -149.5 -49.933 37.86150356
vertex -149.5 -16.17057222 -57.35599193
endloop
endfacet
facet normal -1 0 0
outer loop
vertex -149.5 49.634 37.86150356
vertex -149.5 149.5 37.86150356
vertex -149.5 149.5 -50.47049644
endloop
endfacet
facet normal -1 0 0
outer loop
vertex -149.5 -49.933 37.86150356
vertex -149.5 49.634 37.86150356
vertex -149.5 -16.17057222 -57.35599193
endloop
endfacet
facet normal -1 0 -0
outer loop
vertex -149.5 149.5 -50.47049644
vertex -149.5 149.5 -166.1384964
vertex -149.5 2.99 -166.1384964
endloop
endfacet
facet normal -1 0 -0
outer loop
vertex -149.5 49.634 37.86150356
vertex -149.5 149.5 -50.47049644
vertex -149.5 -16.17057222 -57.35599193
endloop
endfacet
facet normal -1 0 0
outer loop
vertex -149.5 149.5 -50.47049644
vertex -149.5 2.99 -166.1384964
vertex -149.5 -16.17057222 -57.35599193
endloop
endfacet
facet normal 1 0 0
outer loop
vertex 540 322.92 667.8615036
vertex 540 540 667.8615036
vertex 540 540 843.0615036
endloop
endfacet
facet normal 1 0 0
outer loop
vertex 540 106.92 667.8615036
vertex 540 322.92 667.8615036
vertex 540 230.412494 836.7713268
endloop
endfacet
facet normal 1 0 0
outer loop
vertex 540 -108 667.8615036
vertex 540 106.92 667.8615036
vertex 540 -13.29512119 866.4347733
endloop
endfacet
facet normal 1 0 -0
outer loop
vertex 540 106.92 667.8615036
vertex 540 230.412494 836.7713268
vertex 540 -13.29512119 866.4347733
endloop
endfacet
facet normal 1 0 0
outer loop
vertex 540 -324 667.8615036
vertex 540 -108 667.8615036
vertex 540 -276.1987513 861.8794935
endloop
endfacet
facet normal 1 0 -0
outer loop
vertex 540 -108 667.8615036
vertex 540 -13.29512119 866.4347733
vertex 540 -276.1987513 861.8794935
endloop
endfacet
facet normal 1 0 0
outer loop
vertex 540 -540 667.8615036
vertex 540 -324 667.8615036
vertex 540 -540 843.4615036
endloop
endfacet
facet normal -5.793569554e-017 0.8499631074 -0.5268422118
outer loop
vertex -100.675199 316.7484188 307.6860972
vertex -172.8093097 427.164485 485.8221324
vertex 132.9841823 417.7056416 470.5620264
endloop
endfacet
facet normal 1 0 -0
outer loop
vertex 540 -324 667.8615036
vertex 540 -276.1987513 861.8794935
vertex 540 -540 843.4615036
endloop
endfacet
facet normal 1 0 -0
outer loop
vertex 540 540 843.0615036
vertex 540 540 1067.861504
vertex 540 180.36 1067.861504
endloop
endfacet
facet normal 1 0 0
outer loop
vertex 540 -179.28 1067.861504
vertex 540 -540 1067.861504
vertex 540 -276.1987513 861.8794935
endloop
endfacet
facet normal 1 0 0
outer loop
vertex 540 540 843.0615036
vertex 540 180.36 1067.861504
vertex 540 230.412494 836.7713268
endloop
endfacet
facet normal 1 0 0
outer loop
vertex 540 540 843.0615036
vertex 540 230.412494 836.7713268
vertex 540 322.92 667.8615036
endloop
endfacet
facet normal 1 0 0
outer loop
vertex 540 180.36 1067.861504
vertex 540 -179.28 1067.861504
vertex 540 -13.29512119 866.4347733
endloop
endfacet
facet normal 1 0 0
outer loop
vertex 540 -179.28 1067.861504
vertex 540 -276.1987513 861.8794935
vertex 540 -13.29512119 866.4347733
endloop
endfacet
facet normal 1 0 0
outer loop
vertex 540 230.412494 836.7713268
vertex 540 180.36 1067.861504
vertex 540 -13.29512119 866.4347733
endloop
endfacet
facet normal -5.446884608e-017 0.8499631074 -0.5268422118
outer loop
vertex 101.6300861 291.2125428 266.4886533
vertex -100.675199 316.7484188 307.6860972
vertex 132.9841823 417.7056416 470.5620264
endloop
endfacet
facet normal 1 0 0
outer loop
vertex 540 -276.1987513 861.8794935
vertex 540 -540 1067.861504
vertex 540 -540 843.4615036
endloop
endfacet
facet normal 0.8499631074 0 -0.5268422118
outer loop
vertex 540 -540 667.8615036
vertex 440.4225 -440.4225 507.2115036
vertex 540 -324 667.8615036
endloop
endfacet
facet normal 0.8499631074 -1.039730151e-015 -0.5268422118
outer loop
vertex 294.3755 -294.3755 271.5915036
vertex 213.542 -213.542 141.1815036
vertex 307.9812013 -131.2430086 293.5418027
endloop
endfacet
facet normal 0.8499631074 -7.137758628e-016 -0.5268422118
outer loop
vertex 213.542 -213.542 141.1815036
vertex 149.5 -149.5 37.86150356
vertex 224.3569331 -93.32896482 158.629411
endloop
endfacet
facet normal 0.8499631074 -4.579670891e-016 -0.5268422118
outer loop
vertex 307.9812013 -131.2430086 293.5418027
vertex 213.542 -213.542 141.1815036
vertex 224.3569331 -93.32896482 158.629411
endloop
endfacet
facet normal 0.8499631074 -3.097748198e-012 -0.5268422118
outer loop
vertex 149.5 -149.5 37.86150356
vertex 149.5 -49.634 37.86150356
vertex 224.3569331 -93.32896482 158.629411
endloop
endfacet
facet normal 0.8499631074 0 -0.5268422118
outer loop
vertex 149.5 49.933 37.86150356
vertex 149.5 149.5 37.86150356
vertex 204.6978333 108.2109139 126.9130656
endloop
endfacet
facet normal 0.8499631074 -7.037315144e-013 -0.5268422118
outer loop
vertex 149.5 149.5 37.86150356
vertex 220.1805 220.1805 151.8915036
vertex 204.6978333 108.2109139 126.9130656
endloop
endfacet
facet normal 0.8499631074 0 -0.5268422118
outer loop
vertex 447.061 447.061 517.9215036
vertex 540 540 667.8615036
vertex 540 322.92 667.8615036
endloop
endfacet
facet normal 0.8499631074 2.312728057e-015 -0.5268422118
outer loop
vertex 317.415 317.415 308.7615036
vertex 447.061 447.061 517.9215036
vertex 434.939529 211.2090861 498.3657372
endloop
endfacet
facet normal 0.8499631074 2.275665057e-015 -0.5268422118
outer loop
vertex 447.061 447.061 517.9215036
vertex 540 322.92 667.8615036
vertex 434.939529 211.2090861 498.3657372
endloop
endfacet
facet normal 0.8499631074 0 -0.5268422118
outer loop
vertex 540 322.92 667.8615036
vertex 540 106.92 667.8615036
vertex 434.939529 211.2090861 498.3657372
endloop
endfacet
facet normal 0.8499631074 0 -0.5268422118
outer loop
vertex 540 -108 667.8615036
vertex 540 -324 667.8615036
vertex 434.7994549 -221.9446355 498.1397535
endloop
endfacet
facet normal 0.8499631074 -1.282884745e-015 -0.5268422118
outer loop
vertex 540 -324 667.8615036
vertex 440.4225 -440.4225 507.2115036
vertex 434.7994549 -221.9446355 498.1397535
endloop
endfacet
facet normal 0.8499631074 -1.371812058e-015 -0.5268422118
outer loop
vertex 440.4225 -440.4225 507.2115036
vertex 294.3755 -294.3755 271.5915036
vertex 434.7994549 -221.9446355 498.1397535
endloop
endfacet
facet normal 0.8499631074 0 -0.5268422118
outer loop
vertex 149.5 -49.634 37.86150356
vertex 149.5 49.933 37.86150356
vertex 204.9013469 11.97237485 127.2413975
endloop
endfacet
facet normal 0.8499631074 3.249916468e-016 -0.5268422118
outer loop
vertex 220.1805 220.1805 151.8915036
vertex 317.415 317.415 308.7615036
vertex 288.9892407 76.70576498 262.9017638
endloop
endfacet
facet normal 0.8499631074 7.499259748e-016 -0.5268422118
outer loop
vertex 317.415 317.415 308.7615036
vertex 434.939529 211.2090861 498.3657372
vertex 288.9892407 76.70576498 262.9017638
endloop
endfacet
facet normal 0.8499631074 8.557862775e-013 -0.5268422118
outer loop
vertex 149.5 -49.634 37.86150356
vertex 204.9013469 11.97237485 127.2413975
vertex 224.3569331 -93.32896482 158.629411
endloop
endfacet
facet normal 0.8499631074 0 -0.5268422118
outer loop
vertex 540 106.92 667.8615036
vertex 540 -108 667.8615036
vertex 434.7844401 -5.69400636 498.1155298
endloop
endfacet
facet normal 0.8499631074 -1.016362947e-015 -0.5268422118
outer loop
vertex 294.3755 -294.3755 271.5915036
vertex 307.9812013 -131.2430086 293.5418027
vertex 434.7994549 -221.9446355 498.1397535
endloop
endfacet
facet normal 0.8499631074 0 -0.5268422118
outer loop
vertex 540 106.92 667.8615036
vertex 434.7844401 -5.69400636 498.1155298
vertex 434.939529 211.2090861 498.3657372
endloop
endfacet
facet normal 0.8499631074 1.196855562e-014 -0.5268422118
outer loop
vertex 204.9013469 11.97237485 127.2413975
vertex 149.5 49.933 37.86150356
vertex 204.6978333 108.2109139 126.9130656
endloop
endfacet
facet normal 0.8499631074 7.581027694e-017 -0.5268422118
outer loop
vertex 434.7844401 -5.69400636 498.1155298
vertex 540 -108 667.8615036
vertex 434.7994549 -221.9446355 498.1397535
endloop
endfacet
facet normal 0.8499631074 -1.327533185e-015 -0.5268422118
outer loop
vertex 204.6978333 108.2109139 126.9130656
vertex 220.1805 220.1805 151.8915036
vertex 288.9892407 76.70576498 262.9017638
endloop
endfacet
facet normal 0.8499631074 2.874472199e-017 -0.5268422118
outer loop
vertex 307.9812013 -131.2430086 293.5418027
vertex 224.3569331 -93.32896482 158.629411
vertex 288.9892407 76.70576498 262.9017638
endloop
endfacet
facet normal 0.8499631074 7.558191758e-017 -0.5268422118
outer loop
vertex 434.7844401 -5.69400636 498.1155298
vertex 434.7994549 -221.9446355 498.1397535
vertex 307.9812013 -131.2430086 293.5418027
endloop
endfacet
facet normal 0.8499631074 0 -0.5268422118
outer loop
vertex 288.9892407 76.70576498 262.9017638
vertex 434.939529 211.2090861 498.3657372
vertex 434.7844401 -5.69400636 498.1155298
endloop
endfacet
facet normal 0.8499631074 9.998821798e-017 -0.5268422118
outer loop
vertex 288.9892407 76.70576498 262.9017638
vertex 434.7844401 -5.69400636 498.1155298
vertex 307.9812013 -131.2430086 293.5418027
endloop
endfacet
facet normal 0.8499631074 1.413198822e-016 -0.5268422118
outer loop
vertex 204.6978333 108.2109139 126.9130656
vertex 288.9892407 76.70576498 262.9017638
vertex 204.9013469 11.97237485 127.2413975
endloop
endfacet
facet normal 0.8499631074 -1.895038517e-016 -0.5268422118
outer loop
vertex 288.9892407 76.70576498 262.9017638
vertex 224.3569331 -93.32896482 158.629411
vertex 204.9013469 11.97237485 127.2413975
endloop
endfacet
facet normal -0.8499631074 -0 -0.5268422118
outer loop
vertex -149.5 49.634 37.86150356
vertex -149.5 -49.933 37.86150356
vertex -189.1676657 -1.286617187 101.8579936
endloop
endfacet
facet normal -0.8499631074 -0 -0.5268422118
outer loop
vertex -149.5 -49.933 37.86150356
vertex -149.5 -149.5 37.86150356
vertex -197.5307246 -98.57885772 115.3502527
endloop
endfacet
facet normal -0.8499631074 4.492630223e-016 -0.5268422118
outer loop
vertex -189.1676657 -1.286617187 101.8579936
vertex -149.5 -49.933 37.86150356
vertex -197.5307246 -98.57885772 115.3502527
endloop
endfacet
facet normal -0.8499631074 8.493424906e-016 -0.5268422118
outer loop
vertex -149.5 -149.5 37.86150356
vertex -206.513 -206.513 129.8415036
vertex -197.5307246 -98.57885772 115.3502527
endloop
endfacet
facet normal -0.8499631074 0 -0.5268422118
outer loop
vertex -439.251 -439.251 505.3215036
vertex -540 -540 667.8615036
vertex -540 -322.92 667.8615036
endloop
endfacet
facet normal -0.8499631074 0 -0.5268422118
outer loop
vertex -540 -106.92 667.8615036
vertex -540 108 667.8615036
vertex -460.1342712 4.871620806 539.0128246
endloop
endfacet
facet normal -0.8499631074 0 -0.5268422118
outer loop
vertex -540 324 667.8615036
vertex -540 540 667.8615036
vertex -437.2985 437.2985 502.1715036
endloop
endfacet
facet normal -0.8499631074 -1.12150241e-015 -0.5268422118
outer loop
vertex -302.1855 302.1855 284.1915036
vertex -219.79 219.79 151.2615036
vertex -324.8728817 29.30864113 320.7934254
endloop
endfacet
facet normal -0.8499631074 -7.85305452e-016 -0.5268422118
outer loop
vertex -219.79 219.79 151.2615036
vertex -149.5 149.5 37.86150356
vertex -210.3199649 95.30232284 135.983342
endloop
endfacet
facet normal -0.8499631074 -5.150394931e-016 -0.5268422118
outer loop
vertex -324.8728817 29.30864113 320.7934254
vertex -219.79 219.79 151.2615036
vertex -210.3199649 95.30232284 135.983342
endloop
endfacet
facet normal -0.8499631074 -0 -0.5268422118
outer loop
vertex -149.5 149.5 37.86150356
vertex -149.5 49.634 37.86150356
vertex -210.3199649 95.30232284 135.983342
endloop
endfacet
facet normal -0.8499631074 2.50123433e-015 -0.5268422118
outer loop
vertex -439.251 -439.251 505.3215036
vertex -540 -322.92 667.8615036
vertex -432.2631191 -196.3278313 494.0478417
endloop
endfacet
facet normal -0.8499631074 2.600379913e-015 -0.5268422118
outer loop
vertex -289.299 -289.299 263.4015036
vertex -439.251 -439.251 505.3215036
vertex -432.2631191 -196.3278313 494.0478417
endloop
endfacet
facet normal -0.8499631074 0 -0.5268422118
outer loop
vertex -540 -322.92 667.8615036
vertex -540 -106.92 667.8615036
vertex -432.2631191 -196.3278313 494.0478417
endloop
endfacet
facet normal -0.8499631074 -3.265082406e-015 -0.5268422118
outer loop
vertex -540 324 667.8615036
vertex -437.2985 437.2985 502.1715036
vertex -435.3710279 205.080954 499.0618815
endloop
endfacet
facet normal -0.8499631074 0 -0.5268422118
outer loop
vertex -540 108 667.8615036
vertex -540 324 667.8615036
vertex -435.3710279 205.080954 499.0618815
endloop
endfacet
facet normal -0.8499631074 -3.267594658e-015 -0.5268422118
outer loop
vertex -437.2985 437.2985 502.1715036
vertex -302.1855 302.1855 284.1915036
vertex -435.3710279 205.080954 499.0618815
endloop
endfacet
facet normal -0.8499631074 9.301413067e-016 -0.5268422118
outer loop
vertex -289.299 -289.299 263.4015036
vertex -432.2631191 -196.3278313 494.0478417
vertex -324.8728817 29.30864113 320.7934254
endloop
endfacet
facet normal -0.8499631074 -7.859640757e-016 -0.5268422118
outer loop
vertex -435.3710279 205.080954 499.0618815
vertex -302.1855 302.1855 284.1915036
vertex -324.8728817 29.30864113 320.7934254
endloop
endfacet
facet normal -0.8499631074 -8.139465666e-016 -0.5268422118
outer loop
vertex -460.1342712 4.871620806 539.0128246
vertex -540 108 667.8615036
vertex -435.3710279 205.080954 499.0618815
endloop
endfacet
facet normal -0.8499631074 9.761754471e-017 -0.5268422118
outer loop
vertex -149.5 49.634 37.86150356
vertex -189.1676657 -1.286617187 101.8579936
vertex -210.3199649 95.30232284 135.983342
endloop
endfacet
facet normal -0.8499631074 5.067518864e-016 -0.5268422118
outer loop
vertex -435.3710279 205.080954 499.0618815
vertex -324.8728817 29.30864113 320.7934254
vertex -460.1342712 4.871620806 539.0128246
endloop
endfacet
facet normal -0.8499631074 1.848235879e-015 -0.5268422118
outer loop
vertex -540 -106.92 667.8615036
vertex -460.1342712 4.871620806 539.0128246
vertex -432.2631191 -196.3278313 494.0478417
endloop
endfacet
facet normal -0.8499631074 8.587736546e-016 -0.5268422118
outer loop
vertex -197.5307246 -98.57885772 115.3502527
vertex -206.513 -206.513 129.8415036
vertex -257.6378056 -129.7865519 212.3219838
endloop
endfacet
facet normal -0.8499631074 2.876779897e-016 -0.5268422118
outer loop
vertex -189.1676657 -1.286617187 101.8579936
vertex -197.5307246 -98.57885772 115.3502527
vertex -244.0145281 -16.96670446 190.3433286
endloop
endfacet
facet normal -0.8499631074 1.720293087e-015 -0.5268422118
outer loop
vertex -206.513 -206.513 129.8415036
vertex -289.299 -289.299 263.4015036
vertex -257.6378056 -129.7865519 212.3219838
endloop
endfacet
facet normal -0.8499631074 6.171157766e-016 -0.5268422118
outer loop
vertex -210.3199649 95.30232284 135.983342
vertex -189.1676657 -1.286617187 101.8579936
vertex -244.0145281 -16.96670446 190.3433286
endloop
endfacet
facet normal -0.8499631074 5.496610023e-016 -0.5268422118
outer loop
vertex -324.8728817 29.30864113 320.7934254
vertex -432.2631191 -196.3278313 494.0478417
vertex -460.1342712 4.871620806 539.0128246
endloop
endfacet
facet normal -0.8499631074 7.53856367e-017 -0.5268422118
outer loop
vertex -197.5307246 -98.57885772 115.3502527
vertex -257.6378056 -129.7865519 212.3219838
vertex -244.0145281 -16.96670446 190.3433286
endloop
endfacet
facet normal -0.8499631074 6.3064487e-016 -0.5268422118
outer loop
vertex -324.8728817 29.30864113 320.7934254
vertex -210.3199649 95.30232284 135.983342
vertex -244.0145281 -16.96670446 190.3433286
endloop
endfacet
facet normal -0.8499631074 1.352789124e-015 -0.5268422118
outer loop
vertex -257.6378056 -129.7865519 212.3219838
vertex -289.299 -289.299 263.4015036
vertex -324.8728817 29.30864113 320.7934254
endloop
endfacet
facet normal -0.8499631074 1.473908395e-016 -0.5268422118
outer loop
vertex -257.6378056 -129.7865519 212.3219838
vertex -324.8728817 29.30864113 320.7934254
vertex -244.0145281 -16.96670446 190.3433286
endloop
endfacet
facet normal -1 -2.836497947e-015 0
outer loop
vertex -540 -540 843.0615036
vertex -540 -540 1067.861504
vertex -540 -179.28 1067.861504
endloop
endfacet
facet normal -1 0 5.84007728e-015
outer loop
vertex -540 -540 667.8615036
vertex -540 -540 843.0615036
vertex -540 -322.92 667.8615036
endloop
endfacet
facet normal -1 -3.654293914e-015 1.312256944e-015
outer loop
vertex -540 -322.92 667.8615036
vertex -540 -540 843.0615036
vertex -540 -179.28 1067.861504
endloop
endfacet
facet normal -1 0 0
outer loop
vertex -540 324 667.8615036
vertex -540 108 667.8615036
vertex -540 295.4406287 861.3000202
endloop
endfacet
facet normal -1 -0 0
outer loop
vertex -540 295.4406287 861.3000202
vertex -540 108 667.8615036
vertex -540 -30.65625417 862.7529529
endloop
endfacet
facet normal -1 0 0
outer loop
vertex -540 108 667.8615036
vertex -540 -106.92 667.8615036
vertex -540 -30.65625417 862.7529529
endloop
endfacet
facet normal -1 0 0
outer loop
vertex -540 -179.28 1067.861504
vertex -540 180.36 1067.861504
vertex -540 -30.65625417 862.7529529
endloop
endfacet
facet normal -1 0 0
outer loop
vertex -540 -322.92 667.8615036
vertex -540 -179.28 1067.861504
vertex -540 -30.65625417 862.7529529
endloop
endfacet
facet normal -1.364825902e-017 0.8499631074 -0.5268422118
outer loop
vertex 101.6300861 291.2125428 266.4886533
vertex -55.8644296 224.3228708 158.5744577
vertex -100.675199 316.7484188 307.6860972
endloop
endfacet
facet normal -1 0 0
outer loop
vertex -540 324 667.8615036
vertex -540 295.4406287 861.3000202
vertex -540 540 667.8615036
endloop
endfacet
facet normal -1 0 0
outer loop
vertex -540 -30.65625417 862.7529529
vertex -540 180.36 1067.861504
vertex -540 295.4406287 861.3000202
endloop
endfacet
facet normal -1 0 0
outer loop
vertex -540 295.4406287 861.3000202
vertex -540 180.36 1067.861504
vertex -540 540 1067.861504
endloop
endfacet
facet normal -1 0 0
outer loop
vertex -540 -106.92 667.8615036
vertex -540 -322.92 667.8615036
vertex -540 -30.65625417 862.7529529
endloop
endfacet
facet normal 1.99407186e-017 0.8499631074 -0.5268422118
outer loop
vertex 85.41650498 208.0405147 132.3058678
vertex -55.8644296 224.3228708 158.5744577
vertex 101.6300861 291.2125428 266.4886533
endloop
endfacet
facet normal -1 0 0
outer loop
vertex -540 295.4406287 861.3000202
vertex -540 540 1067.861504
vertex -540 540 667.8615036
endloop
endfacet
facet normal -0 1 0
outer loop
vertex 209.52 540 1067.861504
vertex 540 540 1067.861504
vertex 540 540 843.0615036
endloop
endfacet
facet normal 0 1 0
outer loop
vertex 540 540 843.0615036
vertex 540 540 667.8615036
vertex 328.32 540 667.8615036
endloop
endfacet
facet normal 0 1 0
outer loop
vertex 209.52 540 1067.861504
vertex 540 540 843.0615036
vertex 328.32 540 667.8615036
endloop
endfacet
facet normal 0 1 0
outer loop
vertex 209.52 540 1067.861504
vertex 328.32 540 667.8615036
vertex 28.08 540 667.8615036
endloop
endfacet
facet normal 0 1 0
outer loop
vertex -540 540 667.8615036
vertex -540 540 1067.861504
vertex -320.76 540 667.8615036
endloop
endfacet
facet normal -0 1 0
outer loop
vertex -540 540 1067.861504
vertex -208.44 540 1067.861504
vertex -320.76 540 667.8615036
endloop
endfacet
facet normal -0 1 0
outer loop
vertex -208.44 540 1067.861504
vertex 209.52 540 1067.861504
vertex 28.08 540 667.8615036
endloop
endfacet
facet normal 1.990939172e-016 0.8499631074 -0.5268422118
outer loop
vertex 317.415 317.415 308.7615036
vertex 101.6300861 291.2125428 266.4886533
vertex 132.9841823 417.7056416 470.5620264
endloop
endfacet
facet normal 8.702697962e-016 0.8499631074 -0.5268422118
outer loop
vertex 101.6300861 291.2125428 266.4886533
vertex 220.1805 220.1805 151.8915036
vertex 85.41650498 208.0405147 132.3058678
endloop
endfacet
facet normal 0 1 0
outer loop
vertex -208.44 540 1067.861504
vertex 28.08 540 667.8615036
vertex -320.76 540 667.8615036
endloop
endfacet
facet normal -0 1 0
outer loop
vertex 9.568 149.5 37.86150356
vertex 149.5 149.5 37.86150356
vertex 149.5 149.5 -50.87849644
endloop
endfacet
facet normal 0 1 0
outer loop
vertex 149.5 149.5 -50.87849644
vertex 149.5 149.5 -166.1384964
vertex 40.90627161 149.5 -109.9740584
endloop
endfacet
facet normal 0 1 0
outer loop
vertex 9.568 149.5 37.86150356
vertex 149.5 149.5 -50.87849644
vertex 40.90627161 149.5 -109.9740584
endloop
endfacet
facet normal 0 1 0
outer loop
vertex 149.5 149.5 -166.1384964
vertex 53.51763971 149.5 -216.9979545
vertex 40.90627161 149.5 -109.9740584
endloop
endfacet
facet normal 0 1 0
outer loop
vertex 53.51763971 149.5 -216.9979545
vertex -55.74080709 149.5 -216.4375486
vertex 40.90627161 149.5 -109.9740584
endloop
endfacet
facet normal 0 1 0
outer loop
vertex -55.74080709 149.5 -216.4375486
vertex -149.5 149.5 -166.1384964
vertex -57.24008095 149.5 -67.26104509
endloop
endfacet
facet normal 0 1 0
outer loop
vertex 40.90627161 149.5 -109.9740584
vertex -55.74080709 149.5 -216.4375486
vertex -57.24008095 149.5 -67.26104509
endloop
endfacet
facet normal 0 1 0
outer loop
vertex -149.5 149.5 -166.1384964
vertex -149.5 149.5 -50.47049644
vertex -57.24008095 149.5 -67.26104509
endloop
endfacet
facet normal -0 1 0
outer loop
vertex -149.5 149.5 -50.47049644
vertex -149.5 149.5 37.86150356
vertex -57.24008095 149.5 -67.26104509
endloop
endfacet
facet normal -0 1 0
outer loop
vertex -149.5 149.5 37.86150356
vertex 9.568 149.5 37.86150356
vertex -57.24008095 149.5 -67.26104509
endloop
endfacet
facet normal 0 1 0
outer loop
vertex 9.568 149.5 37.86150356
vertex 40.90627161 149.5 -109.9740584
vertex -57.24008095 149.5 -67.26104509
endloop
endfacet
facet normal 0 0.8499631074 -0.5268422118
outer loop
vertex 9.568 149.5 37.86150356
vertex -149.5 149.5 37.86150356
vertex -55.8644296 224.3228708 158.5744577
endloop
endfacet
facet normal -1.294924343e-015 0.8499631074 -0.5268422118
outer loop
vertex -149.5 149.5 37.86150356
vertex -219.79 219.79 151.2615036
vertex -55.8644296 224.3228708 158.5744577
endloop
endfacet
facet normal 0 0.8499631074 -0.5268422118
outer loop
vertex 149.5 149.5 37.86150356
vertex 9.568 149.5 37.86150356
vertex 85.41650498 208.0405147 132.3058678
endloop
endfacet
facet normal -2.520396555e-016 0.8499631074 -0.5268422118
outer loop
vertex 9.568 149.5 37.86150356
vertex -55.8644296 224.3228708 158.5744577
vertex 85.41650498 208.0405147 132.3058678
endloop
endfacet
facet normal 0 0.8499631074 -0.5268422118
outer loop
vertex -437.2985 437.2985 502.1715036
vertex -540 540 667.8615036
vertex -320.76 540 667.8615036
endloop
endfacet
facet normal 1.45002791e-015 0.8499631074 -0.5268422118
outer loop
vertex -302.1855 302.1855 284.1915036
vertex -437.2985 437.2985 502.1715036
vertex -172.8093097 427.164485 485.8221324
endloop
endfacet
facet normal 1.386202626e-015 0.8499631074 -0.5268422118
outer loop
vertex -437.2985 437.2985 502.1715036
vertex -320.76 540 667.8615036
vertex -172.8093097 427.164485 485.8221324
endloop
endfacet
facet normal 3.767943105e-016 0.8499631074 -0.5268422118
outer loop
vertex -219.79 219.79 151.2615036
vertex -302.1855 302.1855 284.1915036
vertex -100.675199 316.7484188 307.6860972
endloop
endfacet
facet normal 1.850797015e-016 0.8499631074 -0.5268422118
outer loop
vertex -302.1855 302.1855 284.1915036
vertex -172.8093097 427.164485 485.8221324
vertex -100.675199 316.7484188 307.6860972
endloop
endfacet
facet normal 0 0.8499631074 -0.5268422118
outer loop
vertex 328.32 540 667.8615036
vertex 540 540 667.8615036
vertex 447.061 447.061 517.9215036
endloop
endfacet
facet normal 0 0.8499631074 -0.5268422118
outer loop
vertex 28.08 540 667.8615036
vertex 328.32 540 667.8615036
vertex 132.9841823 417.7056416 470.5620264
endloop
endfacet
facet normal 2.346260447e-016 0.8499631074 -0.5268422118
outer loop
vertex 328.32 540 667.8615036
vertex 447.061 447.061 517.9215036
vertex 132.9841823 417.7056416 470.5620264
endloop
endfacet
facet normal 0 0.8499631074 -0.5268422118
outer loop
vertex -320.76 540 667.8615036
vertex 28.08 540 667.8615036
vertex -172.8093097 427.164485 485.8221324
endloop
endfacet
facet normal -1.817311818e-016 0.8499631074 -0.5268422118
outer loop
vertex 447.061 447.061 517.9215036
vertex 317.415 317.415 308.7615036
vertex 132.9841823 417.7056416 470.5620264
endloop
endfacet
facet normal 1.036589687e-015 0.8499631074 -0.5268422118
outer loop
vertex 220.1805 220.1805 151.8915036
vertex 149.5 149.5 37.86150356
vertex 85.41650498 208.0405147 132.3058678
endloop
endfacet
facet normal -2.237556609e-016 0.8499631074 -0.5268422118
outer loop
vertex -172.8093097 427.164485 485.8221324
vertex 28.08 540 667.8615036
vertex 132.9841823 417.7056416 470.5620264
endloop
endfacet
facet normal 2.859268177e-016 0.8499631074 -0.5268422118
outer loop
vertex 317.415 317.415 308.7615036
vertex 220.1805 220.1805 151.8915036
vertex 101.6300861 291.2125428 266.4886533
endloop
endfacet
facet normal -1.322415725e-015 0.8499631074 -0.5268422118
outer loop
vertex -219.79 219.79 151.2615036
vertex -100.675199 316.7484188 307.6860972
vertex -55.8644296 224.3228708 158.5744577
endloop
endfacet
facet normal 8.702697962e-016 0.8499631074 -0.5268422118
outer loop
vertex 101.6300861 291.2125428 266.4886533
vertex 220.1805 220.1805 151.8915036
vertex 85.41650498 208.0405147 132.3058678
endloop
endfacet
facet normal 1.990939172e-016 0.8499631074 -0.5268422118
outer loop
vertex 317.415 317.415 308.7615036
vertex 101.6300861 291.2125428 266.4886533
vertex 132.9841823 417.7056416 470.5620264
endloop
endfacet
facet normal 1.99407186e-017 0.8499631074 -0.5268422118
outer loop
vertex 85.41650498 208.0405147 132.3058678
vertex -55.8644296 224.3228708 158.5744577
vertex 101.6300861 291.2125428 266.4886533
endloop
endfacet
facet normal -1.364825902e-017 0.8499631074 -0.5268422118
outer loop
vertex 101.6300861 291.2125428 266.4886533
vertex -55.8644296 224.3228708 158.5744577
vertex -100.675199 316.7484188 307.6860972
endloop
endfacet
facet normal -5.446884608e-017 0.8499631074 -0.5268422118
outer loop
vertex 101.6300861 291.2125428 266.4886533
vertex -100.675199 316.7484188 307.6860972
vertex 132.9841823 417.7056416 470.5620264
endloop
endfacet
facet normal -5.793569554e-017 0.8499631074 -0.5268422118
outer loop
vertex -100.675199 316.7484188 307.6860972
vertex -172.8093097 427.164485 485.8221324
vertex 132.9841823 417.7056416 470.5620264
endloop
endfacet
facet normal 0 -1 0
outer loop
vertex 149.5 -149.5 -50.47049644
vertex 149.5 -149.5 37.86150356
vertex 15.548 -149.5 37.86150356
endloop
endfacet
facet normal 0 -1 -0
outer loop
vertex -149.5 -149.5 -50.87849644
vertex -149.5 -149.5 -166.1384964
vertex -43.94927439 -149.5 -87.59600895
endloop
endfacet
facet normal 0 -1 0
outer loop
vertex -149.5 -149.5 -166.1384964
vertex -49.37413678 -149.5 -217.9780829
vertex -43.94927439 -149.5 -87.59600895
endloop
endfacet
facet normal 0 -1 0
outer loop
vertex -49.37413678 -149.5 -217.9780829
vertex 57.32520618 -149.5 -216.0233106
vertex -43.94927439 -149.5 -87.59600895
endloop
endfacet
facet normal 0 -1 0
outer loop
vertex 57.32520618 -149.5 -216.0233106
vertex 149.5 -149.5 -166.1384964
vertex 61.57345457 -149.5 -94.57210742
endloop
endfacet
facet normal 0 -1 0
outer loop
vertex -43.94927439 -149.5 -87.59600895
vertex 57.32520618 -149.5 -216.0233106
vertex 61.57345457 -149.5 -94.57210742
endloop
endfacet
facet normal 0 -1 0
outer loop
vertex 149.5 -149.5 -166.1384964
vertex 149.5 -149.5 -50.47049644
vertex 61.57345457 -149.5 -94.57210742
endloop
endfacet
facet normal -0 -1 0
outer loop
vertex 149.5 -149.5 -50.47049644
vertex 15.548 -149.5 37.86150356
vertex 61.57345457 -149.5 -94.57210742
endloop
endfacet
facet normal 0 -1 0
outer loop
vertex 61.57345457 -149.5 -94.57210742
vertex 15.548 -149.5 37.86150356
vertex -43.94927439 -149.5 -87.59600895
endloop
endfacet
facet normal -0 -1 0
outer loop
vertex 15.548 -149.5 37.86150356
vertex -149.5 -149.5 37.86150356
vertex -43.94927439 -149.5 -87.59600895
endloop
endfacet
facet normal 0 -1 0
outer loop
vertex -149.5 -149.5 37.86150356
vertex -149.5 -149.5 -50.87849644
vertex -43.94927439 -149.5 -87.59600895
endloop
endfacet
facet normal -9.19721326e-016 -0.8499631074 -0.5268422118
outer loop
vertex -206.513 -206.513 129.8415036
vertex -149.5 -149.5 37.86150356
vertex -57.66648169 -219.86577 151.3837446
endloop
endfacet
facet normal 0 -0.8499631074 -0.5268422118
outer loop
vertex -149.5 -149.5 37.86150356
vertex 15.548 -149.5 37.86150356
vertex -57.66648169 -219.86577 151.3837446
endloop
endfacet
facet normal -5.094016841e-016 -0.8499631074 -0.5268422118
outer loop
vertex -289.299 -289.299 263.4015036
vertex -206.513 -206.513 129.8415036
vertex -112.5604154 -302.8777179 285.3082699
endloop
endfacet
facet normal -8.053712185e-016 -0.8499631074 -0.5268422118
outer loop
vertex -206.513 -206.513 129.8415036
vertex -57.66648169 -219.86577 151.3837446
vertex -112.5604154 -302.8777179 285.3082699
endloop
endfacet
facet normal 0 -0.8499631074 -0.5268422118
outer loop
vertex -540 -540 667.8615036
vertex -439.251 -439.251 505.3215036
vertex -322.92 -540 667.8615036
endloop
endfacet
facet normal 0 -0.8499631074 -0.5268422118
outer loop
vertex 15.548 -149.5 37.86150356
vertex 149.5 -149.5 37.86150356
vertex 86.49178491 -208.9881619 133.8347226
endloop
endfacet
facet normal 8.970724943e-017 -0.8499631074 -0.5268422118
outer loop
vertex -57.66648169 -219.86577 151.3837446
vertex 15.548 -149.5 37.86150356
vertex 86.49178491 -208.9881619 133.8347226
endloop
endfacet
facet normal -1.954531102e-015 -0.8499631074 -0.5268422118
outer loop
vertex 149.5 -149.5 37.86150356
vertex 213.542 -213.542 141.1815036
vertex 86.49178491 -208.9881619 133.8347226
endloop
endfacet
facet normal 0 -0.8499631074 -0.5268422118
outer loop
vertex 440.4225 -440.4225 507.2115036
vertex 540 -540 667.8615036
vertex 324 -540 667.8615036
endloop
endfacet
facet normal 1.794552016e-016 -0.8499631074 -0.5268422118
outer loop
vertex 294.3755 -294.3755 271.5915036
vertex 440.4225 -440.4225 507.2115036
vertex 209.3341831 -428.722397 488.3355371
endloop
endfacet
facet normal 1.671030592e-016 -0.8499631074 -0.5268422118
outer loop
vertex 440.4225 -440.4225 507.2115036
vertex 324 -540 667.8615036
vertex 209.3341831 -428.722397 488.3355371
endloop
endfacet
facet normal -5.237809867e-016 -0.8499631074 -0.5268422118
outer loop
vertex 213.542 -213.542 141.1815036
vertex 294.3755 -294.3755 271.5915036
vertex 91.31780889 -295.0277062 272.6437184
endloop
endfacet
facet normal -5.406560598e-016 -0.8499631074 -0.5268422118
outer loop
vertex 294.3755 -294.3755 271.5915036
vertex 209.3341831 -428.722397 488.3355371
vertex 91.31780889 -295.0277062 272.6437184
endloop
endfacet
facet normal -0 -0.8499631074 -0.5268422118
outer loop
vertex 324 -540 667.8615036
vertex 108 -540 667.8615036
vertex 209.3341831 -428.722397 488.3355371
endloop
endfacet
facet normal -3.283261669e-016 -0.8499631074 -0.5268422118
outer loop
vertex -322.92 -540 667.8615036
vertex -439.251 -439.251 505.3215036
vertex -216.0871252 -431.7988924 493.2988971
endloop
endfacet
facet normal -0 -0.8499631074 -0.5268422118
outer loop
vertex -106.92 -540 667.8615036
vertex -322.92 -540 667.8615036
vertex -216.0871252 -431.7988924 493.2988971
endloop
endfacet
facet normal -3.962583482e-016 -0.8499631074 -0.5268422118
outer loop
vertex -439.251 -439.251 505.3215036
vertex -289.299 -289.299 263.4015036
vertex -216.0871252 -431.7988924 493.2988971
endloop
endfacet
facet normal -2.014917719e-015 -0.8499631074 -0.5268422118
outer loop
vertex 86.49178491 -208.9881619 133.8347226
vertex 213.542 -213.542 141.1815036
vertex 91.31780889 -295.0277062 272.6437184
endloop
endfacet
facet normal -5.149894868e-016 -0.8499631074 -0.5268422118
outer loop
vertex -289.299 -289.299 263.4015036
vertex -112.5604154 -302.8777179 285.3082699
vertex -216.0871252 -431.7988924 493.2988971
endloop
endfacet
facet normal 1.604594657e-016 -0.8499631074 -0.5268422118
outer loop
vertex -106.92 -540 667.8615036
vertex -216.0871252 -431.7988924 493.2988971
vertex 1.737963126 -428.8631009 488.562537
endloop
endfacet
facet normal -0 -0.8499631074 -0.5268422118
outer loop
vertex 108 -540 667.8615036
vertex -106.92 -540 667.8615036
vertex 1.737963126 -428.8631009 488.562537
endloop
endfacet
facet normal 1.14277422e-016 -0.8499631074 -0.5268422118
outer loop
vertex -216.0871252 -431.7988924 493.2988971
vertex -112.5604154 -302.8777179 285.3082699
vertex 1.737963126 -428.8631009 488.562537
endloop
endfacet
facet normal -1.660395914e-016 -0.8499631074 -0.5268422118
outer loop
vertex 108 -540 667.8615036
vertex 1.737963126 -428.8631009 488.562537
vertex 209.3341831 -428.722397 488.3355371
endloop
endfacet
facet normal -2.070468478e-016 -0.8499631074 -0.5268422118
outer loop
vertex 91.31780889 -295.0277062 272.6437184
vertex 209.3341831 -428.722397 488.3355371
vertex 1.737963126 -428.8631009 488.562537
endloop
endfacet
facet normal -9.012557767e-017 -0.8499631074 -0.5268422118
outer loop
vertex 91.31780889 -295.0277062 272.6437184
vertex 1.737963126 -428.8631009 488.562537
vertex -112.5604154 -302.8777179 285.3082699
endloop
endfacet
facet normal -8.71548429e-017 -0.8499631074 -0.5268422118
outer loop
vertex -112.5604154 -302.8777179 285.3082699
vertex -57.66648169 -219.86577 151.3837446
vertex 91.31780889 -295.0277062 272.6437184
endloop
endfacet
facet normal 8.655484447e-017 -0.8499631074 -0.5268422118
outer loop
vertex 86.49178491 -208.9881619 133.8347226
vertex 91.31780889 -295.0277062 272.6437184
vertex -57.66648169 -219.86577 151.3837446
endloop
endfacet
facet normal 0 -1 0
outer loop
vertex 540 -540 667.8615036
vertex 540 -540 843.4615036
vertex 324 -540 667.8615036
endloop
endfacet
facet normal 0 -1 0
outer loop
vertex 540 -540 843.4615036
vertex 540 -540 1067.861504
vertex 271.9176713 -540 860.8940556
endloop
endfacet
facet normal 0 -1 0
outer loop
vertex 324 -540 667.8615036
vertex 540 -540 843.4615036
vertex 271.9176713 -540 860.8940556
endloop
endfacet
facet normal -0 -1 0
outer loop
vertex 540 -540 1067.861504
vertex 179.28 -540 1067.861504
vertex 271.9176713 -540 860.8940556
endloop
endfacet
facet normal -0 -1 0
outer loop
vertex -180.36 -540 1067.861504
vertex -540 -540 1067.861504
vertex -540 -540 843.0615036
endloop
endfacet
facet normal 0 -1 -0
outer loop
vertex -540 -540 843.0615036
vertex -540 -540 667.8615036
vertex -322.92 -540 667.8615036
endloop
endfacet
facet normal 0 -1 0
outer loop
vertex -322.92 -540 667.8615036
vertex -106.92 -540 667.8615036
vertex -227.8874769 -540 831.5098973
endloop
endfacet
facet normal 0 -1 0
outer loop
vertex 108 -540 667.8615036
vertex 324 -540 667.8615036
vertex 271.9176713 -540 860.8940556
endloop
endfacet
facet normal 0 -1 0
outer loop
vertex 271.9176713 -540 860.8940556
vertex 179.28 -540 1067.861504
vertex 9.316889412 -540 863.9480808
endloop
endfacet
facet normal 0 -1 0
outer loop
vertex 108 -540 667.8615036
vertex 271.9176713 -540 860.8940556
vertex 9.316889412 -540 863.9480808
endloop
endfacet
facet normal -0 -1 0
outer loop
vertex 179.28 -540 1067.861504
vertex -180.36 -540 1067.861504
vertex 9.316889412 -540 863.9480808
endloop
endfacet
facet normal 0 -1 0
outer loop
vertex -540 -540 843.0615036
vertex -322.92 -540 667.8615036
vertex -227.8874769 -540 831.5098973
endloop
endfacet
facet normal 0 -1 0
outer loop
vertex -227.8874769 -540 831.5098973
vertex -106.92 -540 667.8615036
vertex 9.316889412 -540 863.9480808
endloop
endfacet
facet normal 0 -1 0
outer loop
vertex -106.92 -540 667.8615036
vertex 108 -540 667.8615036
vertex 9.316889412 -540 863.9480808
endloop
endfacet
facet normal -0 -1 0
outer loop
vertex 9.316889412 -540 863.9480808
vertex -180.36 -540 1067.861504
vertex -227.8874769 -540 831.5098973
endloop
endfacet
facet normal 0 -1 0
outer loop
vertex -180.36 -540 1067.861504
vertex -540 -540 843.0615036
vertex -227.8874769 -540 831.5098973
endloop
endfacet
facet normal 1 -2.278671116e-012 1.228589992e-015
outer loop
vertex 149.5 -149.5 -50.47049644
vertex 149.5 -149.5 -166.1384964
vertex 149.5 10.166 -166.1384964
endloop
endfacet
facet normal 1 -3.644567831e-012 0
outer loop
vertex 149.5 -149.5 37.86150356
vertex 149.5 -149.5 -50.47049644
vertex 149.5 -49.634 37.86150356
endloop
endfacet
facet normal 1 0 0
outer loop
vertex 149.5 10.166 -166.1384964
vertex 149.5 149.5 -166.1384964
vertex 149.5 149.5 -50.87849644
endloop
endfacet
facet normal 1 0 -0
outer loop
vertex 149.5 149.5 -50.87849644
vertex 149.5 149.5 37.86150356
vertex 149.5 49.933 37.86150356
endloop
endfacet
facet normal 1 0 0
outer loop
vertex 149.5 10.166 -166.1384964
vertex 149.5 149.5 -50.87849644
vertex 149.5 49.933 37.86150356
endloop
endfacet
facet normal 1 -2.894164659e-012 -8.483874833e-013
outer loop
vertex 149.5 -49.634 37.86150356
vertex 149.5 -149.5 -50.47049644
vertex 149.5 10.166 -166.1384964
endloop
endfacet
facet normal 1 -0 0
outer loop
vertex 149.5 -49.634 37.86150356
vertex 149.5 10.166 -166.1384964
vertex 149.5 49.933 37.86150356
endloop
endfacet
facet normal -1 0 0
outer loop
vertex -149.5 -149.5 -50.87849644
vertex -149.5 -149.5 37.86150356
vertex -149.5 -49.933 37.86150356
endloop
endfacet
facet normal -1 2.395977192e-017 4.931755931e-016
outer loop
vertex -149.5 -149.5 -166.1384964
vertex -149.5 -149.5 -50.87849644
vertex -149.5 -16.17057222 -57.35599193
endloop
endfacet
facet normal -1 3.72768174e-016 6.565809044e-017
outer loop
vertex -149.5 2.99 -166.1384964
vertex -149.5 -149.5 -166.1384964
vertex -149.5 -16.17057222 -57.35599193
endloop
endfacet
facet normal -1 0 0
outer loop
vertex -149.5 -149.5 -50.87849644
vertex -149.5 -49.933 37.86150356
vertex -149.5 -16.17057222 -57.35599193
endloop
endfacet
facet normal -1 0 0
outer loop
vertex -149.5 49.634 37.86150356
vertex -149.5 149.5 37.86150356
vertex -149.5 149.5 -50.47049644
endloop
endfacet
facet normal -1 0 0
outer loop
vertex -149.5 -49.933 37.86150356
vertex -149.5 49.634 37.86150356
vertex -149.5 -16.17057222 -57.35599193
endloop
endfacet
facet normal -1 0 -0
outer loop
vertex -149.5 149.5 -50.47049644
vertex -149.5 149.5 -166.1384964
vertex -149.5 2.99 -166.1384964
endloop
endfacet
facet normal -1 0 -0
outer loop
vertex -149.5 49.634 37.86150356
vertex -149.5 149.5 -50.47049644
vertex -149.5 -16.17057222 -57.35599193
endloop
endfacet
facet normal -1 0 0
outer loop
vertex -149.5 149.5 -50.47049644
vertex -149.5 2.99 -166.1384964
vertex -149.5 -16.17057222 -57.35599193
endloop
endfacet
facet normal 1 0 0
outer loop
vertex 540 322.92 667.8615036
vertex 540 540 667.8615036
vertex 540 540 843.0615036
endloop
endfacet
facet normal 1 0 0
outer loop
vertex 540 106.92 667.8615036
vertex 540 322.92 667.8615036
vertex 540 230.412494 836.7713268
endloop
endfacet
facet normal 1 0 0
outer loop
vertex 540 -108 667.8615036
vertex 540 106.92 667.8615036
vertex 540 -13.29512119 866.4347733
endloop
endfacet
facet normal 1 0 -0
outer loop
vertex 540 106.92 667.8615036
vertex 540 230.412494 836.7713268
vertex 540 -13.29512119 866.4347733
endloop
endfacet
facet normal 1 0 0
outer loop
vertex 540 -324 667.8615036
vertex 540 -108 667.8615036
vertex 540 -276.1987513 861.8794935
endloop
endfacet
facet normal 1 0 -0
outer loop
vertex 540 -108 667.8615036
vertex 540 -13.29512119 866.4347733
vertex 540 -276.1987513 861.8794935
endloop
endfacet
facet normal 1 0 0
outer loop
vertex 540 -540 667.8615036
vertex 540 -324 667.8615036
vertex 540 -540 843.4615036
endloop
endfacet
facet normal -1.322415725e-015 0.8499631074 -0.5268422118
outer loop
vertex -219.79 219.79 151.2615036
vertex -100.675199 316.7484188 307.6860972
vertex -55.8644296 224.3228708 158.5744577
endloop
endfacet
facet normal 1 0 -0
outer loop
vertex 540 -324 667.8615036
vertex 540 -276.1987513 861.8794935
vertex 540 -540 843.4615036
endloop
endfacet
facet normal 1 0 -0
outer loop
vertex 540 540 843.0615036
vertex 540 540 1067.861504
vertex 540 180.36 1067.861504
endloop
endfacet
facet normal 1 0 0
outer loop
vertex 540 -179.28 1067.861504
vertex 540 -540 1067.861504
vertex 540 -276.1987513 861.8794935
endloop
endfacet
facet normal 1 0 0
outer loop
vertex 540 540 843.0615036
vertex 540 180.36 1067.861504
vertex 540 230.412494 836.7713268
endloop
endfacet
facet normal 1 0 0
outer loop
vertex 540 540 843.0615036
vertex 540 230.412494 836.7713268
vertex 540 322.92 667.8615036
endloop
endfacet
facet normal 1 0 0
outer loop
vertex 540 180.36 1067.861504
vertex 540 -179.28 1067.861504
vertex 540 -13.29512119 866.4347733
endloop
endfacet
facet normal 1 0 0
outer loop
vertex 540 -179.28 1067.861504
vertex 540 -276.1987513 861.8794935
vertex 540 -13.29512119 866.4347733
endloop
endfacet
facet normal 1 0 0
outer loop
vertex 540 230.412494 836.7713268
vertex 540 180.36 1067.861504
vertex 540 -13.29512119 866.4347733
endloop
endfacet
facet normal 2.859268177e-016 0.8499631074 -0.5268422118
outer loop
vertex 317.415 317.415 308.7615036
vertex 220.1805 220.1805 151.8915036
vertex 101.6300861 291.2125428 266.4886533
endloop
endfacet
facet normal 1 0 0
outer loop
vertex 540 -276.1987513 861.8794935
vertex 540 -540 1067.861504
vertex 540 -540 843.4615036
endloop
endfacet
facet normal 0.8499631074 0 -0.5268422118
outer loop
vertex 540 -540 667.8615036
vertex 440.4225 -440.4225 507.2115036
vertex 540 -324 667.8615036
endloop
endfacet
facet normal 0.8499631074 -1.039730151e-015 -0.5268422118
outer loop
vertex 294.3755 -294.3755 271.5915036
vertex 213.542 -213.542 141.1815036
vertex 307.9812013 -131.2430086 293.5418027
endloop
endfacet
facet normal 0.8499631074 -7.137758628e-016 -0.5268422118
outer loop
vertex 213.542 -213.542 141.1815036
vertex 149.5 -149.5 37.86150356
vertex 224.3569331 -93.32896482 158.629411
endloop
endfacet
facet normal 0.8499631074 -4.579670891e-016 -0.5268422118
outer loop
vertex 307.9812013 -131.2430086 293.5418027
vertex 213.542 -213.542 141.1815036
vertex 224.3569331 -93.32896482 158.629411
endloop
endfacet
facet normal 0.8499631074 -3.097748198e-012 -0.5268422118
outer loop
vertex 149.5 -149.5 37.86150356
vertex 149.5 -49.634 37.86150356
vertex 224.3569331 -93.32896482 158.629411
endloop
endfacet
facet normal 0.8499631074 0 -0.5268422118
outer loop
vertex 149.5 49.933 37.86150356
vertex 149.5 149.5 37.86150356
vertex 204.6978333 108.2109139 126.9130656
endloop
endfacet
facet normal 0.8499631074 -7.037315144e-013 -0.5268422118
outer loop
vertex 149.5 149.5 37.86150356
vertex 220.1805 220.1805 151.8915036
vertex 204.6978333 108.2109139 126.9130656
endloop
endfacet
facet normal 0.8499631074 0 -0.5268422118
outer loop
vertex 447.061 447.061 517.9215036
vertex 540 540 667.8615036
vertex 540 322.92 667.8615036
endloop
endfacet
facet normal 0.8499631074 2.312728057e-015 -0.5268422118
outer loop
vertex 317.415 317.415 308.7615036
vertex 447.061 447.061 517.9215036
vertex 434.939529 211.2090861 498.3657372
endloop
endfacet
facet normal 0.8499631074 2.275665057e-015 -0.5268422118
outer loop
vertex 447.061 447.061 517.9215036
vertex 540 322.92 667.8615036
vertex 434.939529 211.2090861 498.3657372
endloop
endfacet
facet normal 0.8499631074 0 -0.5268422118
outer loop
vertex 540 322.92 667.8615036
vertex 540 106.92 667.8615036
vertex 434.939529 211.2090861 498.3657372
endloop
endfacet
facet normal 0.8499631074 0 -0.5268422118
outer loop
vertex 540 -108 667.8615036
vertex 540 -324 667.8615036
vertex 434.7994549 -221.9446355 498.1397535
endloop
endfacet
facet normal 0.8499631074 -1.282884745e-015 -0.5268422118
outer loop
vertex 540 -324 667.8615036
vertex 440.4225 -440.4225 507.2115036
vertex 434.7994549 -221.9446355 498.1397535
endloop
endfacet
facet normal 0.8499631074 -1.371812058e-015 -0.5268422118
outer loop
vertex 440.4225 -440.4225 507.2115036
vertex 294.3755 -294.3755 271.5915036
vertex 434.7994549 -221.9446355 498.1397535
endloop
endfacet
facet normal 0.8499631074 0 -0.5268422118
outer loop
vertex 149.5 -49.634 37.86150356
vertex 149.5 49.933 37.86150356
vertex 204.9013469 11.97237485 127.2413975
endloop
endfacet
facet normal 0.8499631074 3.249916468e-016 -0.5268422118
outer loop
vertex 220.1805 220.1805 151.8915036
vertex 317.415 317.415 308.7615036
vertex 288.9892407 76.70576498 262.9017638
endloop
endfacet
facet normal 0.8499631074 7.499259748e-016 -0.5268422118
outer loop
vertex 317.415 317.415 308.7615036
vertex 434.939529 211.2090861 498.3657372
vertex 288.9892407 76.70576498 262.9017638
endloop
endfacet
facet normal 0.8499631074 8.557862775e-013 -0.5268422118
outer loop
vertex 149.5 -49.634 37.86150356
vertex 204.9013469 11.97237485 127.2413975
vertex 224.3569331 -93.32896482 158.629411
endloop
endfacet
facet normal 0.8499631074 0 -0.5268422118
outer loop
vertex 540 106.92 667.8615036
vertex 540 -108 667.8615036
vertex 434.7844401 -5.69400636 498.1155298
endloop
endfacet
facet normal 0.8499631074 -1.016362947e-015 -0.5268422118
outer loop
vertex 294.3755 -294.3755 271.5915036
vertex 307.9812013 -131.2430086 293.5418027
vertex 434.7994549 -221.9446355 498.1397535
endloop
endfacet
facet normal 0.8499631074 0 -0.5268422118
outer loop
vertex 540 106.92 667.8615036
vertex 434.7844401 -5.69400636 498.1155298
vertex 434.939529 211.2090861 498.3657372
endloop
endfacet
facet normal 0.8499631074 1.196855562e-014 -0.5268422118
outer loop
vertex 204.9013469 11.97237485 127.2413975
vertex 149.5 49.933 37.86150356
vertex 204.6978333 108.2109139 126.9130656
endloop
endfacet
facet normal 0.8499631074 7.581027694e-017 -0.5268422118
outer loop
vertex 434.7844401 -5.69400636 498.1155298
vertex 540 -108 667.8615036
vertex 434.7994549 -221.9446355 498.1397535
endloop
endfacet
facet normal 0.8499631074 -1.327533185e-015 -0.5268422118
outer loop
vertex 204.6978333 108.2109139 126.9130656
vertex 220.1805 220.1805 151.8915036
vertex 288.9892407 76.70576498 262.9017638
endloop
endfacet
facet normal 0.8499631074 2.874472199e-017 -0.5268422118
outer loop
vertex 307.9812013 -131.2430086 293.5418027
vertex 224.3569331 -93.32896482 158.629411
vertex 288.9892407 76.70576498 262.9017638
endloop
endfacet
facet normal 0.8499631074 7.558191758e-017 -0.5268422118
outer loop
vertex 434.7844401 -5.69400636 498.1155298
vertex 434.7994549 -221.9446355 498.1397535
vertex 307.9812013 -131.2430086 293.5418027
endloop
endfacet
facet normal 0.8499631074 0 -0.5268422118
outer loop
vertex 288.9892407 76.70576498 262.9017638
vertex 434.939529 211.2090861 498.3657372
vertex 434.7844401 -5.69400636 498.1155298
endloop
endfacet
facet normal 0.8499631074 9.998821798e-017 -0.5268422118
outer loop
vertex 288.9892407 76.70576498 262.9017638
vertex 434.7844401 -5.69400636 498.1155298
vertex 307.9812013 -131.2430086 293.5418027
endloop
endfacet
facet normal 0.8499631074 1.413198822e-016 -0.5268422118
outer loop
vertex 204.6978333 108.2109139 126.9130656
vertex 288.9892407 76.70576498 262.9017638
vertex 204.9013469 11.97237485 127.2413975
endloop
endfacet
facet normal 0.8499631074 -1.895038517e-016 -0.5268422118
outer loop
vertex 288.9892407 76.70576498 262.9017638
vertex 224.3569331 -93.32896482 158.629411
vertex 204.9013469 11.97237485 127.2413975
endloop
endfacet
facet normal -0.8499631074 -0 -0.5268422118
outer loop
vertex -149.5 49.634 37.86150356
vertex -149.5 -49.933 37.86150356
vertex -189.1676657 -1.286617187 101.8579936
endloop
endfacet
facet normal -0.8499631074 -0 -0.5268422118
outer loop
vertex -149.5 -49.933 37.86150356
vertex -149.5 -149.5 37.86150356
vertex -197.5307246 -98.57885772 115.3502527
endloop
endfacet
facet normal -0.8499631074 4.492630223e-016 -0.5268422118
outer loop
vertex -189.1676657 -1.286617187 101.8579936
vertex -149.5 -49.933 37.86150356
vertex -197.5307246 -98.57885772 115.3502527
endloop
endfacet
facet normal -0.8499631074 8.493424906e-016 -0.5268422118
outer loop
vertex -149.5 -149.5 37.86150356
vertex -206.513 -206.513 129.8415036
vertex -197.5307246 -98.57885772 115.3502527
endloop
endfacet
facet normal -0.8499631074 0 -0.5268422118
outer loop
vertex -439.251 -439.251 505.3215036
vertex -540 -540 667.8615036
vertex -540 -322.92 667.8615036
endloop
endfacet
facet normal -0.8499631074 0 -0.5268422118
outer loop
vertex -540 -106.92 667.8615036
vertex -540 108 667.8615036
vertex -460.1342712 4.871620806 539.0128246
endloop
endfacet
facet normal -0.8499631074 0 -0.5268422118
outer loop
vertex -540 324 667.8615036
vertex -540 540 667.8615036
vertex -437.2985 437.2985 502.1715036
endloop
endfacet
facet normal -0.8499631074 -1.12150241e-015 -0.5268422118
outer loop
vertex -302.1855 302.1855 284.1915036
vertex -219.79 219.79 151.2615036
vertex -324.8728817 29.30864113 320.7934254
endloop
endfacet
facet normal -0.8499631074 -7.85305452e-016 -0.5268422118
outer loop
vertex -219.79 219.79 151.2615036
vertex -149.5 149.5 37.86150356
vertex -210.3199649 95.30232284 135.983342
endloop
endfacet
facet normal -0.8499631074 -5.150394931e-016 -0.5268422118
outer loop
vertex -324.8728817 29.30864113 320.7934254
vertex -219.79 219.79 151.2615036
vertex -210.3199649 95.30232284 135.983342
endloop
endfacet
facet normal -0.8499631074 -0 -0.5268422118
outer loop
vertex -149.5 149.5 37.86150356
vertex -149.5 49.634 37.86150356
vertex -210.3199649 95.30232284 135.983342
endloop
endfacet
facet normal -0.8499631074 2.50123433e-015 -0.5268422118
outer loop
vertex -439.251 -439.251 505.3215036
vertex -540 -322.92 667.8615036
vertex -432.2631191 -196.3278313 494.0478417
endloop
endfacet
facet normal -0.8499631074 2.600379913e-015 -0.5268422118
outer loop
vertex -289.299 -289.299 263.4015036
vertex -439.251 -439.251 505.3215036
vertex -432.2631191 -196.3278313 494.0478417
endloop
endfacet
facet normal -0.8499631074 0 -0.5268422118
outer loop
vertex -540 -322.92 667.8615036
vertex -540 -106.92 667.8615036
vertex -432.2631191 -196.3278313 494.0478417
endloop
endfacet
facet normal -0.8499631074 -3.265082406e-015 -0.5268422118
outer loop
vertex -540 324 667.8615036
vertex -437.2985 437.2985 502.1715036
vertex -435.3710279 205.080954 499.0618815
endloop
endfacet
facet normal -0.8499631074 0 -0.5268422118
outer loop
vertex -540 108 667.8615036
vertex -540 324 667.8615036
vertex -435.3710279 205.080954 499.0618815
endloop
endfacet
facet normal -0.8499631074 -3.267594658e-015 -0.5268422118
outer loop
vertex -437.2985 437.2985 502.1715036
vertex -302.1855 302.1855 284.1915036
vertex -435.3710279 205.080954 499.0618815
endloop
endfacet
facet normal -0.8499631074 9.301413067e-016 -0.5268422118
outer loop
vertex -289.299 -289.299 263.4015036
vertex -432.2631191 -196.3278313 494.0478417
vertex -324.8728817 29.30864113 320.7934254
endloop
endfacet
facet normal -0.8499631074 -7.859640757e-016 -0.5268422118
outer loop
vertex -435.3710279 205.080954 499.0618815
vertex -302.1855 302.1855 284.1915036
vertex -324.8728817 29.30864113 320.7934254
endloop
endfacet
facet normal -0.8499631074 -8.139465666e-016 -0.5268422118
outer loop
vertex -460.1342712 4.871620806 539.0128246
vertex -540 108 667.8615036
vertex -435.3710279 205.080954 499.0618815
endloop
endfacet
facet normal -0.8499631074 9.761754471e-017 -0.5268422118
outer loop
vertex -149.5 49.634 37.86150356
vertex -189.1676657 -1.286617187 101.8579936
vertex -210.3199649 95.30232284 135.983342
endloop
endfacet
facet normal -0.8499631074 5.067518864e-016 -0.5268422118
outer loop
vertex -435.3710279 205.080954 499.0618815
vertex -324.8728817 29.30864113 320.7934254
vertex -460.1342712 4.871620806 539.0128246
endloop
endfacet
facet normal -0.8499631074 1.848235879e-015 -0.5268422118
outer loop
vertex -540 -106.92 667.8615036
vertex -460.1342712 4.871620806 539.0128246
vertex -432.2631191 -196.3278313 494.0478417
endloop
endfacet
facet normal -0.8499631074 8.587736546e-016 -0.5268422118
outer loop
vertex -197.5307246 -98.57885772 115.3502527
vertex -206.513 -206.513 129.8415036
vertex -257.6378056 -129.7865519 212.3219838
endloop
endfacet
facet normal -0.8499631074 2.876779897e-016 -0.5268422118
outer loop
vertex -189.1676657 -1.286617187 101.8579936
vertex -197.5307246 -98.57885772 115.3502527
vertex -244.0145281 -16.96670446 190.3433286
endloop
endfacet
facet normal -0.8499631074 1.720293087e-015 -0.5268422118
outer loop
vertex -206.513 -206.513 129.8415036
vertex -289.299 -289.299 263.4015036
vertex -257.6378056 -129.7865519 212.3219838
endloop
endfacet
facet normal -0.8499631074 6.171157766e-016 -0.5268422118
outer loop
vertex -210.3199649 95.30232284 135.983342
vertex -189.1676657 -1.286617187 101.8579936
vertex -244.0145281 -16.96670446 190.3433286
endloop
endfacet
facet normal -0.8499631074 5.496610023e-016 -0.5268422118
outer loop
vertex -324.8728817 29.30864113 320.7934254
vertex -432.2631191 -196.3278313 494.0478417
vertex -460.1342712 4.871620806 539.0128246
endloop
endfacet
facet normal -0.8499631074 7.53856367e-017 -0.5268422118
outer loop
vertex -197.5307246 -98.57885772 115.3502527
vertex -257.6378056 -129.7865519 212.3219838
vertex -244.0145281 -16.96670446 190.3433286
endloop
endfacet
facet normal -0.8499631074 6.3064487e-016 -0.5268422118
outer loop
vertex -324.8728817 29.30864113 320.7934254
vertex -210.3199649 95.30232284 135.983342
vertex -244.0145281 -16.96670446 190.3433286
endloop
endfacet
facet normal -0.8499631074 1.352789124e-015 -0.5268422118
outer loop
vertex -257.6378056 -129.7865519 212.3219838
vertex -289.299 -289.299 263.4015036
vertex -324.8728817 29.30864113 320.7934254
endloop
endfacet
facet normal -0.8499631074 1.473908395e-016 -0.5268422118
outer loop
vertex -257.6378056 -129.7865519 212.3219838
vertex -324.8728817 29.30864113 320.7934254
vertex -244.0145281 -16.96670446 190.3433286
endloop
endfacet
facet normal -1 -2.836497947e-015 0
outer loop
vertex -540 -540 843.0615036
vertex -540 -540 1067.861504
vertex -540 -179.28 1067.861504
endloop
endfacet
facet normal -1 0 5.84007728e-015
outer loop
vertex -540 -540 667.8615036
vertex -540 -540 843.0615036
vertex -540 -322.92 667.8615036
endloop
endfacet
facet normal -1 -3.654293914e-015 1.312256944e-015
outer loop
vertex -540 -322.92 667.8615036
vertex -540 -540 843.0615036
vertex -540 -179.28 1067.861504
endloop
endfacet
facet normal -1 0 0
outer loop
vertex -540 324 667.8615036
vertex -540 108 667.8615036
vertex -540 295.4406287 861.3000202
endloop
endfacet
facet normal -1 -0 0
outer loop
vertex -540 295.4406287 861.3000202
vertex -540 108 667.8615036
vertex -540 -30.65625417 862.7529529
endloop
endfacet
facet normal -1 0 0
outer loop
vertex -540 108 667.8615036
vertex -540 -106.92 667.8615036
vertex -540 -30.65625417 862.7529529
endloop
endfacet
facet normal -1 0 0
outer loop
vertex -540 -179.28 1067.861504
vertex -540 180.36 1067.861504
vertex -540 -30.65625417 862.7529529
endloop
endfacet
facet normal -1 0 0
outer loop
vertex -540 -322.92 667.8615036
vertex -540 -179.28 1067.861504
vertex -540 -30.65625417 862.7529529
endloop
endfacet
facet normal -2.237556609e-016 0.8499631074 -0.5268422118
outer loop
vertex -172.8093097 427.164485 485.8221324
vertex 28.08 540 667.8615036
vertex 132.9841823 417.7056416 470.5620264
endloop
endfacet
facet normal -1 0 0
outer loop
vertex -540 324 667.8615036
vertex -540 295.4406287 861.3000202
vertex -540 540 667.8615036
endloop
endfacet
facet normal -1 0 0
outer loop
vertex -540 -30.65625417 862.7529529
vertex -540 180.36 1067.861504
vertex -540 295.4406287 861.3000202
endloop
endfacet
facet normal -1 0 0
outer loop
vertex -540 295.4406287 861.3000202
vertex -540 180.36 1067.861504
vertex -540 540 1067.861504
endloop
endfacet
facet normal -1 0 0
outer loop
vertex -540 -106.92 667.8615036
vertex -540 -322.92 667.8615036
vertex -540 -30.65625417 862.7529529
endloop
endfacet
facet normal 1.036589687e-015 0.8499631074 -0.5268422118
outer loop
vertex 220.1805 220.1805 151.8915036
vertex 149.5 149.5 37.86150356
vertex 85.41650498 208.0405147 132.3058678
endloop
endfacet
facet normal -1 0 0
outer loop
vertex -540 295.4406287 861.3000202
vertex -540 540 1067.861504
vertex -540 540 667.8615036
endloop
endfacet
facet normal -0 1 0
outer loop
vertex 209.52 540 1067.861504
vertex 540 540 1067.861504
vertex 540 540 843.0615036
endloop
endfacet
facet normal 0 1 0
outer loop
vertex 540 540 843.0615036
vertex 540 540 667.8615036
vertex 328.32 540 667.8615036
endloop
endfacet
facet normal 0 1 0
outer loop
vertex 209.52 540 1067.861504
vertex 540 540 843.0615036
vertex 328.32 540 667.8615036
endloop
endfacet
facet normal 0 1 0
outer loop
vertex 209.52 540 1067.861504
vertex 328.32 540 667.8615036
vertex 28.08 540 667.8615036
endloop
endfacet
facet normal 0 1 0
outer loop
vertex -540 540 667.8615036
vertex -540 540 1067.861504
vertex -320.76 540 667.8615036
endloop
endfacet
facet normal -0 1 0
outer loop
vertex -540 540 1067.861504
vertex -208.44 540 1067.861504
vertex -320.76 540 667.8615036
endloop
endfacet
facet normal -0 1 0
outer loop
vertex -208.44 540 1067.861504
vertex 209.52 540 1067.861504
vertex 28.08 540 667.8615036
endloop
endfacet
facet normal -1.817311818e-016 0.8499631074 -0.5268422118
outer loop
vertex 447.061 447.061 517.9215036
vertex 317.415 317.415 308.7615036
vertex 132.9841823 417.7056416 470.5620264
endloop
endfacet
facet normal 0 0.8499631074 -0.5268422118
outer loop
vertex -320.76 540 667.8615036
vertex 28.08 540 667.8615036
vertex -172.8093097 427.164485 485.8221324
endloop
endfacet
facet normal 0 1 0
outer loop
vertex -208.44 540 1067.861504
vertex 28.08 540 667.8615036
vertex -320.76 540 667.8615036
endloop
endfacet
facet normal -0 1 0
outer loop
vertex 9.568 149.5 37.86150356
vertex 149.5 149.5 37.86150356
vertex 149.5 149.5 -50.87849644
endloop
endfacet
facet normal 0 1 0
outer loop
vertex 149.5 149.5 -50.87849644
vertex 149.5 149.5 -166.1384964
vertex 40.90627161 149.5 -109.9740584
endloop
endfacet
facet normal 0 1 0
outer loop
vertex 9.568 149.5 37.86150356
vertex 149.5 149.5 -50.87849644
vertex 40.90627161 149.5 -109.9740584
endloop
endfacet
facet normal 0 1 0
outer loop
vertex 149.5 149.5 -166.1384964
vertex 53.51763971 149.5 -216.9979545
vertex 40.90627161 149.5 -109.9740584
endloop
endfacet
facet normal 0 1 0
outer loop
vertex 53.51763971 149.5 -216.9979545
vertex -55.74080709 149.5 -216.4375486
vertex 40.90627161 149.5 -109.9740584
endloop
endfacet
facet normal 0 1 0
outer loop
vertex -55.74080709 149.5 -216.4375486
vertex -149.5 149.5 -166.1384964
vertex -57.24008095 149.5 -67.26104509
endloop
endfacet
facet normal 0 1 0
outer loop
vertex 40.90627161 149.5 -109.9740584
vertex -55.74080709 149.5 -216.4375486
vertex -57.24008095 149.5 -67.26104509
endloop
endfacet
facet normal 0 1 0
outer loop
vertex -149.5 149.5 -166.1384964
vertex -149.5 149.5 -50.47049644
vertex -57.24008095 149.5 -67.26104509
endloop
endfacet
facet normal -0 1 0
outer loop
vertex -149.5 149.5 -50.47049644
vertex -149.5 149.5 37.86150356
vertex -57.24008095 149.5 -67.26104509
endloop
endfacet
facet normal -0 1 0
outer loop
vertex -149.5 149.5 37.86150356
vertex 9.568 149.5 37.86150356
vertex -57.24008095 149.5 -67.26104509
endloop
endfacet
facet normal 0 1 0
outer loop
vertex 9.568 149.5 37.86150356
vertex 40.90627161 149.5 -109.9740584
vertex -57.24008095 149.5 -67.26104509
endloop
endfacet
facet normal 0 0.8499631074 -0.5268422118
outer loop
vertex 9.568 149.5 37.86150356
vertex -149.5 149.5 37.86150356
vertex -55.8644296 224.3228708 158.5744577
endloop
endfacet
facet normal -1.294924343e-015 0.8499631074 -0.5268422118
outer loop
vertex -149.5 149.5 37.86150356
vertex -219.79 219.79 151.2615036
vertex -55.8644296 224.3228708 158.5744577
endloop
endfacet
facet normal 0 0.8499631074 -0.5268422118
outer loop
vertex 149.5 149.5 37.86150356
vertex 9.568 149.5 37.86150356
vertex 85.41650498 208.0405147 132.3058678
endloop
endfacet
facet normal -2.520396555e-016 0.8499631074 -0.5268422118
outer loop
vertex 9.568 149.5 37.86150356
vertex -55.8644296 224.3228708 158.5744577
vertex 85.41650498 208.0405147 132.3058678
endloop
endfacet
facet normal 0 0.8499631074 -0.5268422118
outer loop
vertex -437.2985 437.2985 502.1715036
vertex -540 540 667.8615036
vertex -320.76 540 667.8615036
endloop
endfacet
facet normal 1.45002791e-015 0.8499631074 -0.5268422118
outer loop
vertex -302.1855 302.1855 284.1915036
vertex -437.2985 437.2985 502.1715036
vertex -172.8093097 427.164485 485.8221324
endloop
endfacet
facet normal 1.386202626e-015 0.8499631074 -0.5268422118
outer loop
vertex -437.2985 437.2985 502.1715036
vertex -320.76 540 667.8615036
vertex -172.8093097 427.164485 485.8221324
endloop
endfacet
facet normal 3.767943105e-016 0.8499631074 -0.5268422118
outer loop
vertex -219.79 219.79 151.2615036
vertex -302.1855 302.1855 284.1915036
vertex -100.675199 316.7484188 307.6860972
endloop
endfacet
facet normal 1.850797015e-016 0.8499631074 -0.5268422118
outer loop
vertex -302.1855 302.1855 284.1915036
vertex -172.8093097 427.164485 485.8221324
vertex -100.675199 316.7484188 307.6860972
endloop
endfacet
facet normal 0 0.8499631074 -0.5268422118
outer loop
vertex 328.32 540 667.8615036
vertex 540 540 667.8615036
vertex 447.061 447.061 517.9215036
endloop
endfacet
facet normal 0 0.8499631074 -0.5268422118
outer loop
vertex 28.08 540 667.8615036
vertex 328.32 540 667.8615036
vertex 132.9841823 417.7056416 470.5620264
endloop
endfacet
facet normal 2.346260447e-016 0.8499631074 -0.5268422118
outer loop
vertex 328.32 540 667.8615036
vertex 447.061 447.061 517.9215036
vertex 132.9841823 417.7056416 470.5620264
endloop
endfacet
endsolid
