solid Boden
   facet normal 0.000000e+000 0.000000e+000 1.000000e+000
      outer loop
         vertex -2.500000e+002 2.500000e+002 0.000000e+000
         vertex -2.500000e+002 -2.500000e+002 0.000000e+000
         vertex 2.500000e+002 2.500000e+002 0.000000e+000
      endloop
   endfacet
   facet normal 0.000000e+000 0.000000e+000 1.000000e+000
      outer loop
         vertex 2.500000e+002 2.500000e+002 0.000000e+000
         vertex -2.500000e+002 -2.500000e+002 0.000000e+000
         vertex 2.500000e+002 -2.500000e+002 0.000000e+000
      endloop
   endfacet
endsolid