solid ins_face
   facet normal 0.000000e+000 0.000000e+000 1.000000e+000
      outer loop
         vertex -4.475348e+001 -4.703781e+000 1.674000e+002
         vertex -4.401664e+001 -9.356027e+000 1.674000e+002
         vertex 3.011088e+001 3.344152e+001 1.674000e+002
      endloop
   endfacet
   facet normal 0.000000e+000 0.000000e+000 1.000000e+000
      outer loop
         vertex 2.250000e+001 -3.897115e+001 1.674000e+002
         vertex 2.645034e+001 -3.640577e+001 1.674000e+002
         vertex 3.011088e+001 3.344152e+001 1.674000e+002
      endloop
   endfacet
   facet normal 0.000000e+000 0.000000e+000 1.000000e+000
      outer loop
         vertex -3.011088e+001 -3.344152e+001 1.674000e+002
         vertex -2.645034e+001 -3.640577e+001 1.674000e+002
         vertex 3.011088e+001 3.344152e+001 1.674000e+002
      endloop
   endfacet
   facet normal 0.000000e+000 0.000000e+000 1.000000e+000
      outer loop
         vertex 3.011088e+001 3.344152e+001 1.674000e+002
         vertex -2.645034e+001 -3.640577e+001 1.674000e+002
         vertex -2.250000e+001 -3.897115e+001 1.674000e+002
      endloop
   endfacet
   facet normal 0.000000e+000 0.000000e+000 1.000000e+000
      outer loop
         vertex 3.011088e+001 3.344152e+001 1.674000e+002
         vertex -2.250000e+001 -3.897115e+001 1.674000e+002
         vertex -1.830315e+001 -4.110955e+001 1.674000e+002
      endloop
   endfacet
   facet normal 0.000000e+000 0.000000e+000 1.000000e+000
      outer loop
         vertex 2.645034e+001 -3.640577e+001 1.674000e+002
         vertex 3.011088e+001 -3.344152e+001 1.674000e+002
         vertex 3.011088e+001 3.344152e+001 1.674000e+002
      endloop
   endfacet
   facet normal 0.000000e+000 0.000000e+000 1.000000e+000
      outer loop
         vertex 3.011088e+001 3.344152e+001 1.674000e+002
         vertex 3.011088e+001 -3.344152e+001 1.674000e+002
         vertex 3.344152e+001 -3.011088e+001 1.674000e+002
      endloop
   endfacet
   facet normal 0.000000e+000 0.000000e+000 1.000000e+000
      outer loop
         vertex 3.011088e+001 3.344152e+001 1.674000e+002
         vertex 3.344152e+001 -3.011088e+001 1.674000e+002
         vertex 3.640577e+001 -2.645034e+001 1.674000e+002
      endloop
   endfacet
   facet normal 0.000000e+000 0.000000e+000 1.000000e+000
      outer loop
         vertex 3.640577e+001 -2.645034e+001 1.674000e+002
         vertex 3.897115e+001 -2.250000e+001 1.674000e+002
         vertex 3.011088e+001 3.344152e+001 1.674000e+002
      endloop
   endfacet
   facet normal 0.000000e+000 0.000000e+000 1.000000e+000
      outer loop
         vertex 3.011088e+001 3.344152e+001 1.674000e+002
         vertex 3.897115e+001 -2.250000e+001 1.674000e+002
         vertex 4.110955e+001 -1.830315e+001 1.674000e+002
      endloop
   endfacet
   facet normal 0.000000e+000 0.000000e+000 1.000000e+000
      outer loop
         vertex 3.011088e+001 3.344152e+001 1.674000e+002
         vertex 4.110955e+001 -1.830315e+001 1.674000e+002
         vertex 4.279754e+001 -1.390576e+001 1.674000e+002
      endloop
   endfacet
   facet normal 0.000000e+000 0.000000e+000 1.000000e+000
      outer loop
         vertex 2.645034e+001 3.640577e+001 1.674000e+002
         vertex -4.110955e+001 1.830315e+001 1.674000e+002
         vertex 3.011088e+001 3.344152e+001 1.674000e+002
      endloop
   endfacet
   facet normal 0.000000e+000 0.000000e+000 1.000000e+000
      outer loop
         vertex 3.011088e+001 3.344152e+001 1.674000e+002
         vertex -4.110955e+001 1.830315e+001 1.674000e+002
         vertex -4.279754e+001 1.390576e+001 1.674000e+002
      endloop
   endfacet
   facet normal 0.000000e+000 0.000000e+000 1.000000e+000
      outer loop
         vertex 3.011088e+001 3.344152e+001 1.674000e+002
         vertex -4.279754e+001 1.390576e+001 1.674000e+002
         vertex -4.401664e+001 9.356027e+000 1.674000e+002
      endloop
   endfacet
   facet normal 0.000000e+000 0.000000e+000 1.000000e+000
      outer loop
         vertex -4.401664e+001 9.356027e+000 1.674000e+002
         vertex -4.475348e+001 4.703781e+000 1.674000e+002
         vertex 3.011088e+001 3.344152e+001 1.674000e+002
      endloop
   endfacet
   facet normal 0.000000e+000 0.000000e+000 1.000000e+000
      outer loop
         vertex 3.011088e+001 3.344152e+001 1.674000e+002
         vertex -4.475348e+001 4.703781e+000 1.674000e+002
         vertex -4.500000e+001 1.725642e-015 1.674000e+002
      endloop
   endfacet
   facet normal 0.000000e+000 0.000000e+000 1.000000e+000
      outer loop
         vertex 3.011088e+001 3.344152e+001 1.674000e+002
         vertex -4.500000e+001 1.725642e-015 1.674000e+002
         vertex -4.475348e+001 -4.703781e+000 1.674000e+002
      endloop
   endfacet
   facet normal 0.000000e+000 0.000000e+000 1.000000e+000
      outer loop
         vertex -3.897115e+001 -2.250000e+001 1.674000e+002
         vertex -3.640577e+001 -2.645034e+001 1.674000e+002
         vertex 3.011088e+001 3.344152e+001 1.674000e+002
      endloop
   endfacet
   facet normal 0.000000e+000 0.000000e+000 1.000000e+000
      outer loop
         vertex 3.011088e+001 3.344152e+001 1.674000e+002
         vertex -3.640577e+001 -2.645034e+001 1.674000e+002
         vertex -3.344152e+001 -3.011088e+001 1.674000e+002
      endloop
   endfacet
   facet normal 0.000000e+000 0.000000e+000 1.000000e+000
      outer loop
         vertex 3.011088e+001 3.344152e+001 1.674000e+002
         vertex -3.344152e+001 -3.011088e+001 1.674000e+002
         vertex -3.011088e+001 -3.344152e+001 1.674000e+002
      endloop
   endfacet
   facet normal 0.000000e+000 0.000000e+000 1.000000e+000
      outer loop
         vertex -1.830315e+001 -4.110955e+001 1.674000e+002
         vertex -1.390576e+001 -4.279754e+001 1.674000e+002
         vertex 3.011088e+001 3.344152e+001 1.674000e+002
      endloop
   endfacet
   facet normal 0.000000e+000 0.000000e+000 1.000000e+000
      outer loop
         vertex 3.011088e+001 3.344152e+001 1.674000e+002
         vertex -1.390576e+001 -4.279754e+001 1.674000e+002
         vertex -9.356027e+000 -4.401664e+001 1.674000e+002
      endloop
   endfacet
   facet normal 0.000000e+000 0.000000e+000 1.000000e+000
      outer loop
         vertex 3.011088e+001 3.344152e+001 1.674000e+002
         vertex -9.356027e+000 -4.401664e+001 1.674000e+002
         vertex -4.703781e+000 -4.475348e+001 1.674000e+002
      endloop
   endfacet
   facet normal 0.000000e+000 0.000000e+000 1.000000e+000
      outer loop
         vertex -4.703781e+000 -4.475348e+001 1.674000e+002
         vertex -4.481097e-015 -4.500000e+001 1.674000e+002
         vertex 3.011088e+001 3.344152e+001 1.674000e+002
      endloop
   endfacet
   facet normal 0.000000e+000 0.000000e+000 1.000000e+000
      outer loop
         vertex 3.011088e+001 3.344152e+001 1.674000e+002
         vertex -4.481097e-015 -4.500000e+001 1.674000e+002
         vertex 4.703781e+000 -4.475348e+001 1.674000e+002
      endloop
   endfacet
   facet normal 0.000000e+000 0.000000e+000 1.000000e+000
      outer loop
         vertex 3.011088e+001 3.344152e+001 1.674000e+002
         vertex 4.703781e+000 -4.475348e+001 1.674000e+002
         vertex 9.356027e+000 -4.401664e+001 1.674000e+002
      endloop
   endfacet
   facet normal 0.000000e+000 0.000000e+000 1.000000e+000
      outer loop
         vertex 9.356027e+000 -4.401664e+001 1.674000e+002
         vertex 1.390576e+001 -4.279754e+001 1.674000e+002
         vertex 3.011088e+001 3.344152e+001 1.674000e+002
      endloop
   endfacet
   facet normal 0.000000e+000 0.000000e+000 1.000000e+000
      outer loop
         vertex 3.011088e+001 3.344152e+001 1.674000e+002
         vertex 1.390576e+001 -4.279754e+001 1.674000e+002
         vertex 1.830315e+001 -4.110955e+001 1.674000e+002
      endloop
   endfacet
   facet normal 0.000000e+000 0.000000e+000 1.000000e+000
      outer loop
         vertex 3.011088e+001 3.344152e+001 1.674000e+002
         vertex 1.830315e+001 -4.110955e+001 1.674000e+002
         vertex 2.250000e+001 -3.897115e+001 1.674000e+002
      endloop
   endfacet
   facet normal 0.000000e+000 0.000000e+000 1.000000e+000
      outer loop
         vertex 4.279754e+001 -1.390576e+001 1.674000e+002
         vertex 4.401664e+001 -9.356027e+000 1.674000e+002
         vertex 3.011088e+001 3.344152e+001 1.674000e+002
      endloop
   endfacet
   facet normal 0.000000e+000 0.000000e+000 1.000000e+000
      outer loop
         vertex 3.011088e+001 3.344152e+001 1.674000e+002
         vertex 4.401664e+001 -9.356027e+000 1.674000e+002
         vertex 4.475348e+001 -4.703781e+000 1.674000e+002
      endloop
   endfacet
   facet normal 0.000000e+000 0.000000e+000 1.000000e+000
      outer loop
         vertex 3.011088e+001 3.344152e+001 1.674000e+002
         vertex 4.475348e+001 -4.703781e+000 1.674000e+002
         vertex 4.500000e+001 -7.236552e-015 1.674000e+002
      endloop
   endfacet
   facet normal 0.000000e+000 0.000000e+000 1.000000e+000
      outer loop
         vertex 3.640577e+001 2.645034e+001 1.674000e+002
         vertex 4.401664e+001 9.356027e+000 1.674000e+002
         vertex 3.897115e+001 2.250000e+001 1.674000e+002
      endloop
   endfacet
   facet normal 0.000000e+000 0.000000e+000 1.000000e+000
      outer loop
         vertex 3.897115e+001 2.250000e+001 1.674000e+002
         vertex 4.401664e+001 9.356027e+000 1.674000e+002
         vertex 4.279754e+001 1.390576e+001 1.674000e+002
      endloop
   endfacet
   facet normal 0.000000e+000 0.000000e+000 1.000000e+000
      outer loop
         vertex 3.897115e+001 2.250000e+001 1.674000e+002
         vertex 4.279754e+001 1.390576e+001 1.674000e+002
         vertex 4.110955e+001 1.830315e+001 1.674000e+002
      endloop
   endfacet
   facet normal 0.000000e+000 0.000000e+000 1.000000e+000
      outer loop
         vertex 2.645034e+001 3.640577e+001 1.674000e+002
         vertex 2.250000e+001 3.897115e+001 1.674000e+002
         vertex -4.110955e+001 1.830315e+001 1.674000e+002
      endloop
   endfacet
   facet normal 0.000000e+000 0.000000e+000 1.000000e+000
      outer loop
         vertex -4.110955e+001 1.830315e+001 1.674000e+002
         vertex 2.250000e+001 3.897115e+001 1.674000e+002
         vertex 1.830315e+001 4.110955e+001 1.674000e+002
      endloop
   endfacet
   facet normal 0.000000e+000 0.000000e+000 1.000000e+000
      outer loop
         vertex -4.110955e+001 1.830315e+001 1.674000e+002
         vertex 1.830315e+001 4.110955e+001 1.674000e+002
         vertex 1.390576e+001 4.279754e+001 1.674000e+002
      endloop
   endfacet
   facet normal 0.000000e+000 0.000000e+000 1.000000e+000
      outer loop
         vertex 1.390576e+001 4.279754e+001 1.674000e+002
         vertex 9.356027e+000 4.401664e+001 1.674000e+002
         vertex -4.110955e+001 1.830315e+001 1.674000e+002
      endloop
   endfacet
   facet normal 0.000000e+000 0.000000e+000 1.000000e+000
      outer loop
         vertex -4.110955e+001 1.830315e+001 1.674000e+002
         vertex 9.356027e+000 4.401664e+001 1.674000e+002
         vertex 4.703781e+000 4.475348e+001 1.674000e+002
      endloop
   endfacet
   facet normal 0.000000e+000 0.000000e+000 1.000000e+000
      outer loop
         vertex -4.110955e+001 1.830315e+001 1.674000e+002
         vertex 4.703781e+000 4.475348e+001 1.674000e+002
         vertex -3.897115e+001 2.250000e+001 1.674000e+002
      endloop
   endfacet
   facet normal 0.000000e+000 0.000000e+000 1.000000e+000
      outer loop
         vertex -3.897115e+001 2.250000e+001 1.674000e+002
         vertex 4.703781e+000 4.475348e+001 1.674000e+002
         vertex -3.640577e+001 2.645034e+001 1.674000e+002
      endloop
   endfacet
   facet normal 0.000000e+000 0.000000e+000 1.000000e+000
      outer loop
         vertex -4.401664e+001 -9.356027e+000 1.674000e+002
         vertex -4.279754e+001 -1.390576e+001 1.674000e+002
         vertex 3.011088e+001 3.344152e+001 1.674000e+002
      endloop
   endfacet
   facet normal 0.000000e+000 0.000000e+000 1.000000e+000
      outer loop
         vertex 3.011088e+001 3.344152e+001 1.674000e+002
         vertex -4.279754e+001 -1.390576e+001 1.674000e+002
         vertex -4.110955e+001 -1.830315e+001 1.674000e+002
      endloop
   endfacet
   facet normal 0.000000e+000 0.000000e+000 1.000000e+000
      outer loop
         vertex 3.011088e+001 3.344152e+001 1.674000e+002
         vertex -4.110955e+001 -1.830315e+001 1.674000e+002
         vertex -3.897115e+001 -2.250000e+001 1.674000e+002
      endloop
   endfacet
   facet normal 0.000000e+000 0.000000e+000 1.000000e+000
      outer loop
         vertex 4.500000e+001 -7.236552e-015 1.674000e+002
         vertex 4.475348e+001 4.703781e+000 1.674000e+002
         vertex 3.011088e+001 3.344152e+001 1.674000e+002
      endloop
   endfacet
   facet normal 0.000000e+000 0.000000e+000 1.000000e+000
      outer loop
         vertex 3.011088e+001 3.344152e+001 1.674000e+002
         vertex 4.475348e+001 4.703781e+000 1.674000e+002
         vertex 4.401664e+001 9.356027e+000 1.674000e+002
      endloop
   endfacet
   facet normal 0.000000e+000 0.000000e+000 1.000000e+000
      outer loop
         vertex 3.011088e+001 3.344152e+001 1.674000e+002
         vertex 4.401664e+001 9.356027e+000 1.674000e+002
         vertex 3.344152e+001 3.011088e+001 1.674000e+002
      endloop
   endfacet
   facet normal 0.000000e+000 0.000000e+000 1.000000e+000
      outer loop
         vertex 3.344152e+001 3.011088e+001 1.674000e+002
         vertex 4.401664e+001 9.356027e+000 1.674000e+002
         vertex 3.640577e+001 2.645034e+001 1.674000e+002
      endloop
   endfacet
   facet normal 0.000000e+000 0.000000e+000 1.000000e+000
      outer loop
         vertex 9.992007e-015 4.500000e+001 1.674000e+002
         vertex -4.703781e+000 4.475348e+001 1.674000e+002
         vertex -3.011088e+001 3.344152e+001 1.674000e+002
      endloop
   endfacet
   facet normal 0.000000e+000 0.000000e+000 1.000000e+000
      outer loop
         vertex -3.011088e+001 3.344152e+001 1.674000e+002
         vertex -4.703781e+000 4.475348e+001 1.674000e+002
         vertex -9.356027e+000 4.401664e+001 1.674000e+002
      endloop
   endfacet
   facet normal 0.000000e+000 0.000000e+000 1.000000e+000
      outer loop
         vertex -3.011088e+001 3.344152e+001 1.674000e+002
         vertex -9.356027e+000 4.401664e+001 1.674000e+002
         vertex -1.390576e+001 4.279754e+001 1.674000e+002
      endloop
   endfacet
   facet normal 0.000000e+000 0.000000e+000 1.000000e+000
      outer loop
         vertex -1.390576e+001 4.279754e+001 1.674000e+002
         vertex -1.830315e+001 4.110955e+001 1.674000e+002
         vertex -3.011088e+001 3.344152e+001 1.674000e+002
      endloop
   endfacet
   facet normal 0.000000e+000 0.000000e+000 1.000000e+000
      outer loop
         vertex -3.011088e+001 3.344152e+001 1.674000e+002
         vertex -1.830315e+001 4.110955e+001 1.674000e+002
         vertex -2.250000e+001 3.897115e+001 1.674000e+002
      endloop
   endfacet
   facet normal 0.000000e+000 0.000000e+000 1.000000e+000
      outer loop
         vertex -3.011088e+001 3.344152e+001 1.674000e+002
         vertex -2.250000e+001 3.897115e+001 1.674000e+002
         vertex -2.645034e+001 3.640577e+001 1.674000e+002
      endloop
   endfacet
   facet normal 0.000000e+000 0.000000e+000 1.000000e+000
      outer loop
         vertex 9.992007e-015 4.500000e+001 1.674000e+002
         vertex -3.011088e+001 3.344152e+001 1.674000e+002
         vertex 4.703781e+000 4.475348e+001 1.674000e+002
      endloop
   endfacet
   facet normal 0.000000e+000 0.000000e+000 1.000000e+000
      outer loop
         vertex 4.703781e+000 4.475348e+001 1.674000e+002
         vertex -3.011088e+001 3.344152e+001 1.674000e+002
         vertex -3.344152e+001 3.011088e+001 1.674000e+002
      endloop
   endfacet
   facet normal 0.000000e+000 0.000000e+000 1.000000e+000
      outer loop
         vertex 4.703781e+000 4.475348e+001 1.674000e+002
         vertex -3.344152e+001 3.011088e+001 1.674000e+002
         vertex -3.640577e+001 2.645034e+001 1.674000e+002
      endloop
   endfacet
endsolid