solid Zylinder_100
   facet normal 1.661989e-002 -9.998619e-001 0.000000e+000
      outer loop
         vertex -2.492294e+000 4.993784e+001 1.500000e+002
         vertex -1.144237e-015 5.000000e+001 0.000000e+000
         vertex -1.144237e-015 5.000000e+001 1.500000e+002
      endloop
   endfacet
   facet normal -1.661989e-002 -9.998619e-001 0.000000e+000
      outer loop
         vertex -1.144237e-015 5.000000e+001 1.500000e+002
         vertex -1.144237e-015 5.000000e+001 0.000000e+000
         vertex 2.492294e+000 4.993784e+001 0.000000e+000
      endloop
   endfacet
   facet normal -3.323978e-002 -9.994474e-001 0.000000e+000
      outer loop
         vertex -1.144237e-015 5.000000e+001 1.500000e+002
         vertex 2.492294e+000 4.993784e+001 0.000000e+000
         vertex 2.492294e+000 4.993784e+001 1.500000e+002
      endloop
   endfacet
   facet normal -6.643823e-002 -9.977905e-001 0.000000e+000
      outer loop
         vertex 2.492294e+000 4.993784e+001 1.500000e+002
         vertex 2.492294e+000 4.993784e+001 0.000000e+000
         vertex 4.978392e+000 4.975154e+001 0.000000e+000
      endloop
   endfacet
   facet normal -8.301679e-002 -9.965482e-001 0.000000e+000
      outer loop
         vertex 2.492294e+000 4.993784e+001 1.500000e+002
         vertex 4.978392e+000 4.975154e+001 0.000000e+000
         vertex 4.978392e+000 4.975154e+001 1.500000e+002
      endloop
   endfacet
   facet normal -1.160914e-001 -9.932385e-001 0.000000e+000
      outer loop
         vertex 4.978392e+000 4.975154e+001 1.500000e+002
         vertex 4.978392e+000 4.975154e+001 0.000000e+000
         vertex 7.452113e+000 4.944154e+001 0.000000e+000
      endloop
   endfacet
   facet normal -1.325874e-001 -9.911713e-001 0.000000e+000
      outer loop
         vertex 4.978392e+000 4.975154e+001 1.500000e+002
         vertex 7.452113e+000 4.944154e+001 0.000000e+000
         vertex 7.452113e+000 4.944154e+001 1.500000e+002
      endloop
   endfacet
   facet normal -1.654559e-001 -9.862172e-001 0.000000e+000
      outer loop
         vertex 7.452113e+000 4.944154e+001 1.500000e+002
         vertex 7.452113e+000 4.944154e+001 0.000000e+000
         vertex 9.907307e+000 4.900862e+001 0.000000e+000
      endloop
   endfacet
   facet normal -1.818284e-001 -9.833302e-001 0.000000e+000
      outer loop
         vertex 7.452113e+000 4.944154e+001 1.500000e+002
         vertex 9.907307e+000 4.900862e+001 0.000000e+000
         vertex 9.907307e+000 4.900862e+001 1.500000e+002
      endloop
   endfacet
   facet normal -2.144091e-001 -9.767439e-001 0.000000e+000
      outer loop
         vertex 9.907307e+000 4.900862e+001 1.500000e+002
         vertex 9.907307e+000 4.900862e+001 0.000000e+000
         vertex 1.233787e+001 4.845387e+001 0.000000e+000
      endloop
   endfacet
   facet normal -2.306174e-001 -9.730445e-001 0.000000e+000
      outer loop
         vertex 9.907307e+000 4.900862e+001 1.500000e+002
         vertex 1.233787e+001 4.845387e+001 0.000000e+000
         vertex 1.233787e+001 4.845387e+001 1.500000e+002
      endloop
   endfacet
   facet normal -2.628293e-001 -9.648424e-001 0.000000e+000
      outer loop
         vertex 1.233787e+001 4.845387e+001 1.500000e+002
         vertex 1.233787e+001 4.845387e+001 0.000000e+000
         vertex 1.473776e+001 4.777864e+001 0.000000e+000
      endloop
   endfacet
   facet normal -2.788329e-001 -9.603396e-001 0.000000e+000
      outer loop
         vertex 1.233787e+001 4.845387e+001 1.500000e+002
         vertex 1.473776e+001 4.777864e+001 0.000000e+000
         vertex 1.473776e+001 4.777864e+001 1.500000e+002
      endloop
   endfacet
   facet normal -3.105960e-001 -9.505420e-001 0.000000e+000
      outer loop
         vertex 1.473776e+001 4.777864e+001 1.500000e+002
         vertex 1.473776e+001 4.777864e+001 0.000000e+000
         vertex 1.710101e+001 4.698463e+001 0.000000e+000
      endloop
   endfacet
   facet normal -3.263553e-001 -9.452472e-001 0.000000e+000
      outer loop
         vertex 1.473776e+001 4.777864e+001 1.500000e+002
         vertex 1.710101e+001 4.698463e+001 0.000000e+000
         vertex 1.710101e+001 4.698463e+001 1.500000e+002
      endloop
   endfacet
   facet normal -3.575905e-001 -9.338785e-001 0.000000e+000
      outer loop
         vertex 1.710101e+001 4.698463e+001 1.500000e+002
         vertex 1.710101e+001 4.698463e+001 0.000000e+000
         vertex 1.942174e+001 4.607381e+001 0.000000e+000
      endloop
   endfacet
   facet normal -3.730663e-001 -9.278047e-001 0.000000e+000
      outer loop
         vertex 1.710101e+001 4.698463e+001 1.500000e+002
         vertex 1.942174e+001 4.607381e+001 0.000000e+000
         vertex 1.942174e+001 4.607381e+001 1.500000e+002
      endloop
   endfacet
   facet normal -4.036960e-001 -9.148932e-001 0.000000e+000
      outer loop
         vertex 1.942174e+001 4.607381e+001 1.500000e+002
         vertex 1.942174e+001 4.607381e+001 0.000000e+000
         vertex 2.169419e+001 4.504844e+001 0.000000e+000
      endloop
   endfacet
   facet normal -4.188498e-001 -9.080555e-001 0.000000e+000
      outer loop
         vertex 1.942174e+001 4.607381e+001 1.500000e+002
         vertex 2.169419e+001 4.504844e+001 0.000000e+000
         vertex 2.169419e+001 4.504844e+001 1.500000e+002
      endloop
   endfacet
   facet normal -4.487978e-001 -8.936333e-001 0.000000e+000
      outer loop
         vertex 2.169419e+001 4.504844e+001 1.500000e+002
         vertex 2.169419e+001 4.504844e+001 0.000000e+000
         vertex 2.391270e+001 4.391108e+001 0.000000e+000
      endloop
   endfacet
   facet normal -4.635920e-001 -8.860488e-001 0.000000e+000
      outer loop
         vertex 2.169419e+001 4.504844e+001 1.500000e+002
         vertex 2.391270e+001 4.391108e+001 0.000000e+000
         vertex 2.391270e+001 4.391108e+001 1.500000e+002
      endloop
   endfacet
   facet normal -4.927839e-001 -8.701518e-001 0.000000e+000
      outer loop
         vertex 2.391270e+001 4.391108e+001 1.500000e+002
         vertex 2.391270e+001 4.391108e+001 0.000000e+000
         vertex 2.607176e+001 4.266454e+001 0.000000e+000
      endloop
   endfacet
   facet normal -5.071816e-001 -8.618392e-001 0.000000e+000
      outer loop
         vertex 2.391270e+001 4.391108e+001 1.500000e+002
         vertex 2.607176e+001 4.266454e+001 0.000000e+000
         vertex 2.607176e+001 4.266454e+001 1.500000e+002
      endloop
   endfacet
   facet normal -5.355448e-001 -8.445069e-001 0.000000e+000
      outer loop
         vertex 2.607176e+001 4.266454e+001 1.500000e+002
         vertex 2.607176e+001 4.266454e+001 0.000000e+000
         vertex 2.816600e+001 4.131194e+001 0.000000e+000
      endloop
   endfacet
   facet normal -5.495103e-001 -8.354869e-001 0.000000e+000
      outer loop
         vertex 2.607176e+001 4.266454e+001 1.500000e+002
         vertex 2.816600e+001 4.131194e+001 0.000000e+000
         vertex 2.816600e+001 4.131194e+001 1.500000e+002
      endloop
   endfacet
   facet normal -5.769742e-001 -8.167623e-001 0.000000e+000
      outer loop
         vertex 2.816600e+001 4.131194e+001 1.500000e+002
         vertex 2.816600e+001 4.131194e+001 0.000000e+000
         vertex 3.019022e+001 3.985662e+001 0.000000e+000
      endloop
   endfacet
   facet normal -5.904728e-001 -8.070576e-001 0.000000e+000
      outer loop
         vertex 2.816600e+001 4.131194e+001 1.500000e+002
         vertex 3.019022e+001 3.985662e+001 0.000000e+000
         vertex 3.019022e+001 3.985662e+001 1.500000e+002
      endloop
   endfacet
   facet normal -6.169693e-001 -7.869872e-001 0.000000e+000
      outer loop
         vertex 3.019022e+001 3.985662e+001 1.500000e+002
         vertex 3.019022e+001 3.985662e+001 0.000000e+000
         vertex 3.213938e+001 3.830222e+001 0.000000e+000
      endloop
   endfacet
   facet normal -6.299673e-001 -7.766216e-001 0.000000e+000
      outer loop
         vertex 3.019022e+001 3.985662e+001 1.500000e+002
         vertex 3.213938e+001 3.830222e+001 0.000000e+000
         vertex 3.213938e+001 3.830222e+001 1.500000e+002
      endloop
   endfacet
   facet normal -6.554304e-001 -7.552556e-001 0.000000e+000
      outer loop
         vertex 3.213938e+001 3.830222e+001 1.500000e+002
         vertex 3.213938e+001 3.830222e+001 0.000000e+000
         vertex 3.400864e+001 3.665260e+001 0.000000e+000
      endloop
   endfacet
   facet normal -6.678956e-001 -7.442550e-001 0.000000e+000
      outer loop
         vertex 3.213938e+001 3.830222e+001 1.500000e+002
         vertex 3.400864e+001 3.665260e+001 0.000000e+000
         vertex 3.400864e+001 3.665260e+001 1.500000e+002
      endloop
   endfacet
   facet normal -6.922621e-001 -7.216462e-001 0.000000e+000
      outer loop
         vertex 3.400864e+001 3.665260e+001 1.500000e+002
         vertex 3.400864e+001 3.665260e+001 0.000000e+000
         vertex 3.579334e+001 3.491184e+001 0.000000e+000
      endloop
   endfacet
   facet normal -7.041633e-001 -7.100380e-001 0.000000e+000
      outer loop
         vertex 3.400864e+001 3.665260e+001 1.500000e+002
         vertex 3.579334e+001 3.491184e+001 0.000000e+000
         vertex 3.579334e+001 3.491184e+001 1.500000e+002
      endloop
   endfacet
   facet normal -7.273726e-001 -6.862427e-001 0.000000e+000
      outer loop
         vertex 3.579334e+001 3.491184e+001 1.500000e+002
         vertex 3.579334e+001 3.491184e+001 0.000000e+000
         vertex 3.748906e+001 3.308429e+001 0.000000e+000
      endloop
   endfacet
   facet normal -7.386805e-001 -6.740556e-001 0.000000e+000
      outer loop
         vertex 3.579334e+001 3.491184e+001 1.500000e+002
         vertex 3.748906e+001 3.308429e+001 0.000000e+000
         vertex 3.748906e+001 3.308429e+001 1.500000e+002
      endloop
   endfacet
   facet normal -7.606748e-001 -6.491331e-001 0.000000e+000
      outer loop
         vertex 3.748906e+001 3.308429e+001 1.500000e+002
         vertex 3.748906e+001 3.308429e+001 0.000000e+000
         vertex 3.909158e+001 3.117449e+001 0.000000e+000
      endloop
   endfacet
   facet normal -7.713612e-001 -6.363977e-001 0.000000e+000
      outer loop
         vertex 3.748906e+001 3.308429e+001 1.500000e+002
         vertex 3.909158e+001 3.117449e+001 0.000000e+000
         vertex 3.909158e+001 3.117449e+001 1.500000e+002
      endloop
   endfacet
   facet normal -7.920858e-001 -6.104097e-001 0.000000e+000
      outer loop
         vertex 3.909158e+001 3.117449e+001 1.500000e+002
         vertex 3.909158e+001 3.117449e+001 0.000000e+000
         vertex 4.059690e+001 2.918718e+001 0.000000e+000
      endloop
   endfacet
   facet normal -8.021241e-001 -5.971574e-001 0.000000e+000
      outer loop
         vertex 3.909158e+001 3.117449e+001 1.500000e+002
         vertex 4.059690e+001 2.918718e+001 0.000000e+000
         vertex 4.059690e+001 2.918718e+001 1.500000e+002
      endloop
   endfacet
   facet normal -8.215276e-001 -5.701687e-001 0.000000e+000
      outer loop
         vertex 4.059690e+001 2.918718e+001 1.500000e+002
         vertex 4.059690e+001 2.918718e+001 0.000000e+000
         vertex 4.200130e+001 2.712731e+001 0.000000e+000
      endloop
   endfacet
   facet normal -8.308928e-001 -5.564325e-001 0.000000e+000
      outer loop
         vertex 4.059690e+001 2.918718e+001 1.500000e+002
         vertex 4.200130e+001 2.712731e+001 0.000000e+000
         vertex 4.200130e+001 2.712731e+001 1.500000e+002
      endloop
   endfacet
   facet normal -8.489270e-001 -5.285102e-001 0.000000e+000
      outer loop
         vertex 4.200130e+001 2.712731e+001 1.500000e+002
         vertex 4.200130e+001 2.712731e+001 0.000000e+000
         vertex 4.330127e+001 2.500000e+001 0.000000e+000
      endloop
   endfacet
   facet normal -8.575959e-001 -5.143242e-001 0.000000e+000
      outer loop
         vertex 4.200130e+001 2.712731e+001 1.500000e+002
         vertex 4.330127e+001 2.500000e+001 0.000000e+000
         vertex 4.330127e+001 2.500000e+001 1.500000e+002
      endloop
   endfacet
   facet normal -8.742157e-001 -4.855377e-001 0.000000e+000
      outer loop
         vertex 4.330127e+001 2.500000e+001 1.500000e+002
         vertex 4.330127e+001 2.500000e+001 0.000000e+000
         vertex 4.449359e+001 2.281053e+001 0.000000e+000
      endloop
   endfacet
   facet normal -8.821667e-001 -4.709372e-001 0.000000e+000
      outer loop
         vertex 4.330127e+001 2.500000e+001 1.500000e+002
         vertex 4.449359e+001 2.281053e+001 0.000000e+000
         vertex 4.449359e+001 2.281053e+001 1.500000e+002
      endloop
   endfacet
   facet normal -8.973311e-001 -4.413581e-001 0.000000e+000
      outer loop
         vertex 4.449359e+001 2.281053e+001 1.500000e+002
         vertex 4.449359e+001 2.281053e+001 0.000000e+000
         vertex 4.557529e+001 2.056436e+001 0.000000e+000
      endloop
   endfacet
   facet normal -9.045444e-001 -4.263794e-001 0.000000e+000
      outer loop
         vertex 4.449359e+001 2.281053e+001 1.500000e+002
         vertex 4.557529e+001 2.056436e+001 0.000000e+000
         vertex 4.557529e+001 2.056436e+001 1.500000e+002
      endloop
   endfacet
   facet normal -9.182155e-001 -3.960812e-001 0.000000e+000
      outer loop
         vertex 4.557529e+001 2.056436e+001 1.500000e+002
         vertex 4.557529e+001 2.056436e+001 0.000000e+000
         vertex 4.654369e+001 1.826705e+001 0.000000e+000
      endloop
   endfacet
   facet normal -9.246733e-001 -3.807616e-001 0.000000e+000
      outer loop
         vertex 4.557529e+001 2.056436e+001 1.500000e+002
         vertex 4.654369e+001 1.826705e+001 0.000000e+000
         vertex 4.654369e+001 1.826705e+001 1.500000e+002
      endloop
   endfacet
   facet normal -9.368171e-001 -3.498196e-001 0.000000e+000
      outer loop
         vertex 4.654369e+001 1.826705e+001 1.500000e+002
         vertex 4.654369e+001 1.826705e+001 0.000000e+000
         vertex 4.739637e+001 1.592433e+001 0.000000e+000
      endloop
   endfacet
   facet normal -9.425032e-001 -3.341971e-001 0.000000e+000
      outer loop
         vertex 4.654369e+001 1.826705e+001 1.500000e+002
         vertex 4.739637e+001 1.592433e+001 0.000000e+000
         vertex 4.739637e+001 1.592433e+001 1.500000e+002
      endloop
   endfacet
   facet normal -9.530897e-001 -3.026882e-001 0.000000e+000
      outer loop
         vertex 4.739637e+001 1.592433e+001 1.500000e+002
         vertex 4.739637e+001 1.592433e+001 0.000000e+000
         vertex 4.813121e+001 1.354202e+001 0.000000e+000
      endloop
   endfacet
   facet normal -9.579899e-001 -2.868018e-001 0.000000e+000
      outer loop
         vertex 4.739637e+001 1.592433e+001 1.500000e+002
         vertex 4.813121e+001 1.354202e+001 0.000000e+000
         vertex 4.813121e+001 1.354202e+001 1.500000e+002
      endloop
   endfacet
   facet normal -9.669926e-001 -2.548043e-001 0.000000e+000
      outer loop
         vertex 4.813121e+001 1.354202e+001 1.500000e+002
         vertex 4.813121e+001 1.354202e+001 0.000000e+000
         vertex 4.874640e+001 1.112605e+001 0.000000e+000
      endloop
   endfacet
   facet normal -9.710950e-001 -2.386934e-001 0.000000e+000
      outer loop
         vertex 4.813121e+001 1.354202e+001 1.500000e+002
         vertex 4.874640e+001 1.112605e+001 0.000000e+000
         vertex 4.874640e+001 1.112605e+001 1.500000e+002
      endloop
   endfacet
   facet normal -9.784915e-001 -2.062870e-001 0.000000e+000
      outer loop
         vertex 4.874640e+001 1.112605e+001 1.500000e+002
         vertex 4.874640e+001 1.112605e+001 0.000000e+000
         vertex 4.924039e+001 8.682409e+000 0.000000e+000
      endloop
   endfacet
   facet normal -9.817857e-001 -1.899916e-001 0.000000e+000
      outer loop
         vertex 4.874640e+001 1.112605e+001 1.500000e+002
         vertex 4.924039e+001 8.682409e+000 0.000000e+000
         vertex 4.924039e+001 8.682409e+000 1.500000e+002
      endloop
   endfacet
   facet normal -9.875578e-001 -1.572568e-001 0.000000e+000
      outer loop
         vertex 4.924039e+001 8.682409e+000 1.500000e+002
         vertex 4.924039e+001 8.682409e+000 0.000000e+000
         vertex 4.961196e+001 6.217185e+000 0.000000e+000
      endloop
   endfacet
   facet normal -9.900356e-001 -1.408174e-001 0.000000e+000
      outer loop
         vertex 4.924039e+001 8.682409e+000 1.500000e+002
         vertex 4.961196e+001 6.217185e+000 0.000000e+000
         vertex 4.961196e+001 6.217185e+000 1.500000e+002
      endloop
   endfacet
   facet normal -9.941688e-001 -1.078356e-001 0.000000e+000
      outer loop
         vertex 4.961196e+001 6.217185e+000 1.500000e+002
         vertex 4.961196e+001 6.217185e+000 0.000000e+000
         vertex 4.986019e+001 3.736505e+000 0.000000e+000
      endloop
   endfacet
   facet normal -9.958240e-001 -9.129319e-002 0.000000e+000
      outer loop
         vertex 4.961196e+001 6.217185e+000 1.500000e+002
         vertex 4.986019e+001 3.736505e+000 0.000000e+000
         vertex 4.986019e+001 3.736505e+000 1.500000e+002
      endloop
   endfacet
   facet normal -9.983081e-001 -5.814635e-002 0.000000e+000
      outer loop
         vertex 4.986019e+001 3.736505e+000 1.500000e+002
         vertex 4.986019e+001 3.736505e+000 0.000000e+000
         vertex 4.998446e+001 1.246535e+000 0.000000e+000
      endloop
   endfacet
   facet normal -9.991367e-001 -4.154197e-002 0.000000e+000
      outer loop
         vertex 4.986019e+001 3.736505e+000 1.500000e+002
         vertex 4.998446e+001 1.246535e+000 0.000000e+000
         vertex 4.998446e+001 1.246535e+000 1.500000e+002
      endloop
   endfacet
   facet normal -9.999654e-001 -8.312527e-003 0.000000e+000
      outer loop
         vertex 4.998446e+001 1.246535e+000 1.500000e+002
         vertex 4.998446e+001 1.246535e+000 0.000000e+000
         vertex 4.998446e+001 -1.246535e+000 0.000000e+000
      endloop
   endfacet
   facet normal -9.999654e-001 8.312527e-003 0.000000e+000
      outer loop
         vertex 4.998446e+001 1.246535e+000 1.500000e+002
         vertex 4.998446e+001 -1.246535e+000 0.000000e+000
         vertex 4.998446e+001 -1.246535e+000 1.500000e+002
      endloop
   endfacet
   facet normal -9.991367e-001 4.154197e-002 0.000000e+000
      outer loop
         vertex 4.998446e+001 -1.246535e+000 1.500000e+002
         vertex 4.998446e+001 -1.246535e+000 0.000000e+000
         vertex 4.986019e+001 -3.736505e+000 0.000000e+000
      endloop
   endfacet
   facet normal -9.983081e-001 5.814636e-002 0.000000e+000
      outer loop
         vertex 4.998446e+001 -1.246535e+000 1.500000e+002
         vertex 4.986019e+001 -3.736505e+000 0.000000e+000
         vertex 4.986019e+001 -3.736505e+000 1.500000e+002
      endloop
   endfacet
   facet normal -9.958240e-001 9.129319e-002 0.000000e+000
      outer loop
         vertex 4.986019e+001 -3.736505e+000 1.500000e+002
         vertex 4.986019e+001 -3.736505e+000 0.000000e+000
         vertex 4.961196e+001 -6.217185e+000 0.000000e+000
      endloop
   endfacet
   facet normal -9.941688e-001 1.078356e-001 0.000000e+000
      outer loop
         vertex 4.986019e+001 -3.736505e+000 1.500000e+002
         vertex 4.961196e+001 -6.217185e+000 0.000000e+000
         vertex 4.961196e+001 -6.217185e+000 1.500000e+002
      endloop
   endfacet
   facet normal -9.900356e-001 1.408174e-001 0.000000e+000
      outer loop
         vertex 4.961196e+001 -6.217185e+000 1.500000e+002
         vertex 4.961196e+001 -6.217185e+000 0.000000e+000
         vertex 4.924039e+001 -8.682409e+000 0.000000e+000
      endloop
   endfacet
   facet normal -9.875578e-001 1.572568e-001 0.000000e+000
      outer loop
         vertex 4.961196e+001 -6.217185e+000 1.500000e+002
         vertex 4.924039e+001 -8.682409e+000 0.000000e+000
         vertex 4.924039e+001 -8.682409e+000 1.500000e+002
      endloop
   endfacet
   facet normal -9.817857e-001 1.899916e-001 0.000000e+000
      outer loop
         vertex 4.924039e+001 -8.682409e+000 1.500000e+002
         vertex 4.924039e+001 -8.682409e+000 0.000000e+000
         vertex 4.874640e+001 -1.112605e+001 0.000000e+000
      endloop
   endfacet
   facet normal -9.784915e-001 2.062870e-001 0.000000e+000
      outer loop
         vertex 4.924039e+001 -8.682409e+000 1.500000e+002
         vertex 4.874640e+001 -1.112605e+001 0.000000e+000
         vertex 4.874640e+001 -1.112605e+001 1.500000e+002
      endloop
   endfacet
   facet normal -9.710950e-001 2.386934e-001 0.000000e+000
      outer loop
         vertex 4.874640e+001 -1.112605e+001 1.500000e+002
         vertex 4.874640e+001 -1.112605e+001 0.000000e+000
         vertex 4.813121e+001 -1.354202e+001 0.000000e+000
      endloop
   endfacet
   facet normal -9.669926e-001 2.548043e-001 0.000000e+000
      outer loop
         vertex 4.874640e+001 -1.112605e+001 1.500000e+002
         vertex 4.813121e+001 -1.354202e+001 0.000000e+000
         vertex 4.813121e+001 -1.354202e+001 1.500000e+002
      endloop
   endfacet
   facet normal -9.579899e-001 2.868018e-001 0.000000e+000
      outer loop
         vertex 4.813121e+001 -1.354202e+001 1.500000e+002
         vertex 4.813121e+001 -1.354202e+001 0.000000e+000
         vertex 4.739637e+001 -1.592433e+001 0.000000e+000
      endloop
   endfacet
   facet normal -9.530897e-001 3.026882e-001 0.000000e+000
      outer loop
         vertex 4.813121e+001 -1.354202e+001 1.500000e+002
         vertex 4.739637e+001 -1.592433e+001 0.000000e+000
         vertex 4.739637e+001 -1.592433e+001 1.500000e+002
      endloop
   endfacet
   facet normal -9.425032e-001 3.341971e-001 0.000000e+000
      outer loop
         vertex 4.739637e+001 -1.592433e+001 1.500000e+002
         vertex 4.739637e+001 -1.592433e+001 0.000000e+000
         vertex 4.654369e+001 -1.826705e+001 0.000000e+000
      endloop
   endfacet
   facet normal -9.368171e-001 3.498196e-001 0.000000e+000
      outer loop
         vertex 4.739637e+001 -1.592433e+001 1.500000e+002
         vertex 4.654369e+001 -1.826705e+001 0.000000e+000
         vertex 4.654369e+001 -1.826705e+001 1.500000e+002
      endloop
   endfacet
   facet normal -9.246733e-001 3.807616e-001 0.000000e+000
      outer loop
         vertex 4.654369e+001 -1.826705e+001 1.500000e+002
         vertex 4.654369e+001 -1.826705e+001 0.000000e+000
         vertex 4.557529e+001 -2.056436e+001 0.000000e+000
      endloop
   endfacet
   facet normal -9.182155e-001 3.960812e-001 0.000000e+000
      outer loop
         vertex 4.654369e+001 -1.826705e+001 1.500000e+002
         vertex 4.557529e+001 -2.056436e+001 0.000000e+000
         vertex 4.557529e+001 -2.056436e+001 1.500000e+002
      endloop
   endfacet
   facet normal -9.045444e-001 4.263794e-001 0.000000e+000
      outer loop
         vertex 4.557529e+001 -2.056436e+001 1.500000e+002
         vertex 4.557529e+001 -2.056436e+001 0.000000e+000
         vertex 4.449359e+001 -2.281053e+001 0.000000e+000
      endloop
   endfacet
   facet normal -8.973311e-001 4.413581e-001 0.000000e+000
      outer loop
         vertex 4.557529e+001 -2.056436e+001 1.500000e+002
         vertex 4.449359e+001 -2.281053e+001 0.000000e+000
         vertex 4.449359e+001 -2.281053e+001 1.500000e+002
      endloop
   endfacet
   facet normal -8.821667e-001 4.709372e-001 0.000000e+000
      outer loop
         vertex 4.449359e+001 -2.281053e+001 1.500000e+002
         vertex 4.449359e+001 -2.281053e+001 0.000000e+000
         vertex 4.330127e+001 -2.500000e+001 0.000000e+000
      endloop
   endfacet
   facet normal -8.742157e-001 4.855376e-001 0.000000e+000
      outer loop
         vertex 4.449359e+001 -2.281053e+001 1.500000e+002
         vertex 4.330127e+001 -2.500000e+001 0.000000e+000
         vertex 4.330127e+001 -2.500000e+001 1.500000e+002
      endloop
   endfacet
   facet normal -8.575959e-001 5.143242e-001 0.000000e+000
      outer loop
         vertex 4.330127e+001 -2.500000e+001 1.500000e+002
         vertex 4.330127e+001 -2.500000e+001 0.000000e+000
         vertex 4.200130e+001 -2.712731e+001 0.000000e+000
      endloop
   endfacet
   facet normal -8.489270e-001 5.285102e-001 0.000000e+000
      outer loop
         vertex 4.330127e+001 -2.500000e+001 1.500000e+002
         vertex 4.200130e+001 -2.712731e+001 0.000000e+000
         vertex 4.200130e+001 -2.712731e+001 1.500000e+002
      endloop
   endfacet
   facet normal -8.308928e-001 5.564325e-001 0.000000e+000
      outer loop
         vertex 4.200130e+001 -2.712731e+001 1.500000e+002
         vertex 4.200130e+001 -2.712731e+001 0.000000e+000
         vertex 4.059690e+001 -2.918718e+001 0.000000e+000
      endloop
   endfacet
   facet normal -8.215276e-001 5.701687e-001 0.000000e+000
      outer loop
         vertex 4.200130e+001 -2.712731e+001 1.500000e+002
         vertex 4.059690e+001 -2.918718e+001 0.000000e+000
         vertex 4.059690e+001 -2.918718e+001 1.500000e+002
      endloop
   endfacet
   facet normal -8.021241e-001 5.971574e-001 0.000000e+000
      outer loop
         vertex 4.059690e+001 -2.918718e+001 1.500000e+002
         vertex 4.059690e+001 -2.918718e+001 0.000000e+000
         vertex 3.909158e+001 -3.117449e+001 0.000000e+000
      endloop
   endfacet
   facet normal -7.920858e-001 6.104097e-001 0.000000e+000
      outer loop
         vertex 4.059690e+001 -2.918718e+001 1.500000e+002
         vertex 3.909158e+001 -3.117449e+001 0.000000e+000
         vertex 3.909158e+001 -3.117449e+001 1.500000e+002
      endloop
   endfacet
   facet normal -7.713612e-001 6.363977e-001 0.000000e+000
      outer loop
         vertex 3.909158e+001 -3.117449e+001 1.500000e+002
         vertex 3.909158e+001 -3.117449e+001 0.000000e+000
         vertex 3.748906e+001 -3.308429e+001 0.000000e+000
      endloop
   endfacet
   facet normal -7.606748e-001 6.491331e-001 0.000000e+000
      outer loop
         vertex 3.909158e+001 -3.117449e+001 1.500000e+002
         vertex 3.748906e+001 -3.308429e+001 0.000000e+000
         vertex 3.748906e+001 -3.308429e+001 1.500000e+002
      endloop
   endfacet
   facet normal -7.386805e-001 6.740556e-001 0.000000e+000
      outer loop
         vertex 3.748906e+001 -3.308429e+001 1.500000e+002
         vertex 3.748906e+001 -3.308429e+001 0.000000e+000
         vertex 3.579334e+001 -3.491184e+001 0.000000e+000
      endloop
   endfacet
   facet normal -7.273726e-001 6.862427e-001 0.000000e+000
      outer loop
         vertex 3.748906e+001 -3.308429e+001 1.500000e+002
         vertex 3.579334e+001 -3.491184e+001 0.000000e+000
         vertex 3.579334e+001 -3.491184e+001 1.500000e+002
      endloop
   endfacet
   facet normal -7.041633e-001 7.100380e-001 0.000000e+000
      outer loop
         vertex 3.579334e+001 -3.491184e+001 1.500000e+002
         vertex 3.579334e+001 -3.491184e+001 0.000000e+000
         vertex 3.400864e+001 -3.665260e+001 0.000000e+000
      endloop
   endfacet
   facet normal -6.922621e-001 7.216462e-001 0.000000e+000
      outer loop
         vertex 3.579334e+001 -3.491184e+001 1.500000e+002
         vertex 3.400864e+001 -3.665260e+001 0.000000e+000
         vertex 3.400864e+001 -3.665260e+001 1.500000e+002
      endloop
   endfacet
   facet normal -6.678956e-001 7.442550e-001 0.000000e+000
      outer loop
         vertex 3.400864e+001 -3.665260e+001 1.500000e+002
         vertex 3.400864e+001 -3.665260e+001 0.000000e+000
         vertex 3.213938e+001 -3.830222e+001 0.000000e+000
      endloop
   endfacet
   facet normal -6.554304e-001 7.552556e-001 0.000000e+000
      outer loop
         vertex 3.400864e+001 -3.665260e+001 1.500000e+002
         vertex 3.213938e+001 -3.830222e+001 0.000000e+000
         vertex 3.213938e+001 -3.830222e+001 1.500000e+002
      endloop
   endfacet
   facet normal -6.299673e-001 7.766216e-001 0.000000e+000
      outer loop
         vertex 3.213938e+001 -3.830222e+001 1.500000e+002
         vertex 3.213938e+001 -3.830222e+001 0.000000e+000
         vertex 3.019022e+001 -3.985662e+001 0.000000e+000
      endloop
   endfacet
   facet normal -6.169693e-001 7.869872e-001 0.000000e+000
      outer loop
         vertex 3.213938e+001 -3.830222e+001 1.500000e+002
         vertex 3.019022e+001 -3.985662e+001 0.000000e+000
         vertex 3.019022e+001 -3.985662e+001 1.500000e+002
      endloop
   endfacet
   facet normal -5.904728e-001 8.070576e-001 0.000000e+000
      outer loop
         vertex 3.019022e+001 -3.985662e+001 1.500000e+002
         vertex 3.019022e+001 -3.985662e+001 0.000000e+000
         vertex 2.816600e+001 -4.131194e+001 0.000000e+000
      endloop
   endfacet
   facet normal -5.769742e-001 8.167623e-001 0.000000e+000
      outer loop
         vertex 3.019022e+001 -3.985662e+001 1.500000e+002
         vertex 2.816600e+001 -4.131194e+001 0.000000e+000
         vertex 2.816600e+001 -4.131194e+001 1.500000e+002
      endloop
   endfacet
   facet normal -5.495103e-001 8.354869e-001 0.000000e+000
      outer loop
         vertex 2.816600e+001 -4.131194e+001 1.500000e+002
         vertex 2.816600e+001 -4.131194e+001 0.000000e+000
         vertex 2.607176e+001 -4.266454e+001 0.000000e+000
      endloop
   endfacet
   facet normal -5.355448e-001 8.445069e-001 0.000000e+000
      outer loop
         vertex 2.816600e+001 -4.131194e+001 1.500000e+002
         vertex 2.607176e+001 -4.266454e+001 0.000000e+000
         vertex 2.607176e+001 -4.266454e+001 1.500000e+002
      endloop
   endfacet
   facet normal -5.071816e-001 8.618392e-001 0.000000e+000
      outer loop
         vertex 2.607176e+001 -4.266454e+001 1.500000e+002
         vertex 2.607176e+001 -4.266454e+001 0.000000e+000
         vertex 2.391270e+001 -4.391108e+001 0.000000e+000
      endloop
   endfacet
   facet normal -4.927839e-001 8.701518e-001 0.000000e+000
      outer loop
         vertex 2.607176e+001 -4.266454e+001 1.500000e+002
         vertex 2.391270e+001 -4.391108e+001 0.000000e+000
         vertex 2.391270e+001 -4.391108e+001 1.500000e+002
      endloop
   endfacet
   facet normal -4.635920e-001 8.860488e-001 0.000000e+000
      outer loop
         vertex 2.391270e+001 -4.391108e+001 1.500000e+002
         vertex 2.391270e+001 -4.391108e+001 0.000000e+000
         vertex 2.169419e+001 -4.504844e+001 0.000000e+000
      endloop
   endfacet
   facet normal -4.487978e-001 8.936333e-001 0.000000e+000
      outer loop
         vertex 2.391270e+001 -4.391108e+001 1.500000e+002
         vertex 2.169419e+001 -4.504844e+001 0.000000e+000
         vertex 2.169419e+001 -4.504844e+001 1.500000e+002
      endloop
   endfacet
   facet normal -4.188498e-001 9.080555e-001 0.000000e+000
      outer loop
         vertex 2.169419e+001 -4.504844e+001 1.500000e+002
         vertex 2.169419e+001 -4.504844e+001 0.000000e+000
         vertex 1.942174e+001 -4.607381e+001 0.000000e+000
      endloop
   endfacet
   facet normal -4.036960e-001 9.148932e-001 0.000000e+000
      outer loop
         vertex 2.169419e+001 -4.504844e+001 1.500000e+002
         vertex 1.942174e+001 -4.607381e+001 0.000000e+000
         vertex 1.942174e+001 -4.607381e+001 1.500000e+002
      endloop
   endfacet
   facet normal -3.730663e-001 9.278046e-001 0.000000e+000
      outer loop
         vertex 1.942174e+001 -4.607381e+001 1.500000e+002
         vertex 1.942174e+001 -4.607381e+001 0.000000e+000
         vertex 1.710101e+001 -4.698463e+001 0.000000e+000
      endloop
   endfacet
   facet normal -3.575905e-001 9.338785e-001 0.000000e+000
      outer loop
         vertex 1.942174e+001 -4.607381e+001 1.500000e+002
         vertex 1.710101e+001 -4.698463e+001 0.000000e+000
         vertex 1.710101e+001 -4.698463e+001 1.500000e+002
      endloop
   endfacet
   facet normal -3.263553e-001 9.452472e-001 0.000000e+000
      outer loop
         vertex 1.710101e+001 -4.698463e+001 1.500000e+002
         vertex 1.710101e+001 -4.698463e+001 0.000000e+000
         vertex 1.473776e+001 -4.777864e+001 0.000000e+000
      endloop
   endfacet
   facet normal -3.105960e-001 9.505420e-001 0.000000e+000
      outer loop
         vertex 1.710101e+001 -4.698463e+001 1.500000e+002
         vertex 1.473776e+001 -4.777864e+001 0.000000e+000
         vertex 1.473776e+001 -4.777864e+001 1.500000e+002
      endloop
   endfacet
   facet normal -2.788329e-001 9.603396e-001 0.000000e+000
      outer loop
         vertex 1.473776e+001 -4.777864e+001 1.500000e+002
         vertex 1.473776e+001 -4.777864e+001 0.000000e+000
         vertex 1.233787e+001 -4.845387e+001 0.000000e+000
      endloop
   endfacet
   facet normal -2.628293e-001 9.648424e-001 0.000000e+000
      outer loop
         vertex 1.473776e+001 -4.777864e+001 1.500000e+002
         vertex 1.233787e+001 -4.845387e+001 0.000000e+000
         vertex 1.233787e+001 -4.845387e+001 1.500000e+002
      endloop
   endfacet
   facet normal -2.306174e-001 9.730445e-001 0.000000e+000
      outer loop
         vertex 1.233787e+001 -4.845387e+001 1.500000e+002
         vertex 1.233787e+001 -4.845387e+001 0.000000e+000
         vertex 9.907307e+000 -4.900862e+001 0.000000e+000
      endloop
   endfacet
   facet normal -2.144091e-001 9.767439e-001 0.000000e+000
      outer loop
         vertex 1.233787e+001 -4.845387e+001 1.500000e+002
         vertex 9.907307e+000 -4.900862e+001 0.000000e+000
         vertex 9.907307e+000 -4.900862e+001 1.500000e+002
      endloop
   endfacet
   facet normal -1.818284e-001 9.833302e-001 0.000000e+000
      outer loop
         vertex 9.907307e+000 -4.900862e+001 1.500000e+002
         vertex 9.907307e+000 -4.900862e+001 0.000000e+000
         vertex 7.452113e+000 -4.944154e+001 0.000000e+000
      endloop
   endfacet
   facet normal -1.654559e-001 9.862172e-001 0.000000e+000
      outer loop
         vertex 9.907307e+000 -4.900862e+001 1.500000e+002
         vertex 7.452113e+000 -4.944154e+001 0.000000e+000
         vertex 7.452113e+000 -4.944154e+001 1.500000e+002
      endloop
   endfacet
   facet normal -1.325874e-001 9.911713e-001 0.000000e+000
      outer loop
         vertex 7.452113e+000 -4.944154e+001 1.500000e+002
         vertex 7.452113e+000 -4.944154e+001 0.000000e+000
         vertex 4.978392e+000 -4.975154e+001 0.000000e+000
      endloop
   endfacet
   facet normal -1.160914e-001 9.932385e-001 0.000000e+000
      outer loop
         vertex 7.452113e+000 -4.944154e+001 1.500000e+002
         vertex 4.978392e+000 -4.975154e+001 0.000000e+000
         vertex 4.978392e+000 -4.975154e+001 1.500000e+002
      endloop
   endfacet
   facet normal -8.301680e-002 9.965482e-001 0.000000e+000
      outer loop
         vertex 4.978392e+000 -4.975154e+001 1.500000e+002
         vertex 4.978392e+000 -4.975154e+001 0.000000e+000
         vertex 2.492294e+000 -4.993784e+001 0.000000e+000
      endloop
   endfacet
   facet normal -6.643824e-002 9.977905e-001 0.000000e+000
      outer loop
         vertex 4.978392e+000 -4.975154e+001 1.500000e+002
         vertex 2.492294e+000 -4.993784e+001 0.000000e+000
         vertex 2.492294e+000 -4.993784e+001 1.500000e+002
      endloop
   endfacet
   facet normal -3.323978e-002 9.994474e-001 0.000000e+000
      outer loop
         vertex 2.492294e+000 -4.993784e+001 1.500000e+002
         vertex 2.492294e+000 -4.993784e+001 0.000000e+000
         vertex -4.978996e-015 -5.000000e+001 0.000000e+000
      endloop
   endfacet
   facet normal -1.661989e-002 9.998619e-001 0.000000e+000
      outer loop
         vertex 2.492294e+000 -4.993784e+001 1.500000e+002
         vertex -4.978996e-015 -5.000000e+001 0.000000e+000
         vertex -4.978996e-015 -5.000000e+001 1.500000e+002
      endloop
   endfacet
   facet normal 1.661989e-002 9.998619e-001 0.000000e+000
      outer loop
         vertex -4.978996e-015 -5.000000e+001 1.500000e+002
         vertex -4.978996e-015 -5.000000e+001 0.000000e+000
         vertex -2.492294e+000 -4.993784e+001 0.000000e+000
      endloop
   endfacet
   facet normal 3.323978e-002 9.994474e-001 0.000000e+000
      outer loop
         vertex -4.978996e-015 -5.000000e+001 1.500000e+002
         vertex -2.492294e+000 -4.993784e+001 0.000000e+000
         vertex -2.492294e+000 -4.993784e+001 1.500000e+002
      endloop
   endfacet
   facet normal 6.643823e-002 9.977905e-001 0.000000e+000
      outer loop
         vertex -2.492294e+000 -4.993784e+001 1.500000e+002
         vertex -2.492294e+000 -4.993784e+001 0.000000e+000
         vertex -4.978392e+000 -4.975154e+001 0.000000e+000
      endloop
   endfacet
   facet normal 8.301679e-002 9.965482e-001 0.000000e+000
      outer loop
         vertex -2.492294e+000 -4.993784e+001 1.500000e+002
         vertex -4.978392e+000 -4.975154e+001 0.000000e+000
         vertex -4.978392e+000 -4.975154e+001 1.500000e+002
      endloop
   endfacet
   facet normal 1.160914e-001 9.932385e-001 0.000000e+000
      outer loop
         vertex -4.978392e+000 -4.975154e+001 1.500000e+002
         vertex -4.978392e+000 -4.975154e+001 0.000000e+000
         vertex -7.452113e+000 -4.944154e+001 0.000000e+000
      endloop
   endfacet
   facet normal 1.325874e-001 9.911713e-001 0.000000e+000
      outer loop
         vertex -4.978392e+000 -4.975154e+001 1.500000e+002
         vertex -7.452113e+000 -4.944154e+001 0.000000e+000
         vertex -7.452113e+000 -4.944154e+001 1.500000e+002
      endloop
   endfacet
   facet normal 1.654559e-001 9.862172e-001 0.000000e+000
      outer loop
         vertex -7.452113e+000 -4.944154e+001 1.500000e+002
         vertex -7.452113e+000 -4.944154e+001 0.000000e+000
         vertex -9.907307e+000 -4.900862e+001 0.000000e+000
      endloop
   endfacet
   facet normal 1.818284e-001 9.833302e-001 0.000000e+000
      outer loop
         vertex -7.452113e+000 -4.944154e+001 1.500000e+002
         vertex -9.907307e+000 -4.900862e+001 0.000000e+000
         vertex -9.907307e+000 -4.900862e+001 1.500000e+002
      endloop
   endfacet
   facet normal 2.144091e-001 9.767439e-001 0.000000e+000
      outer loop
         vertex -9.907307e+000 -4.900862e+001 1.500000e+002
         vertex -9.907307e+000 -4.900862e+001 0.000000e+000
         vertex -1.233787e+001 -4.845387e+001 0.000000e+000
      endloop
   endfacet
   facet normal 2.306174e-001 9.730445e-001 0.000000e+000
      outer loop
         vertex -9.907307e+000 -4.900862e+001 1.500000e+002
         vertex -1.233787e+001 -4.845387e+001 0.000000e+000
         vertex -1.233787e+001 -4.845387e+001 1.500000e+002
      endloop
   endfacet
   facet normal 2.628293e-001 9.648424e-001 0.000000e+000
      outer loop
         vertex -1.233787e+001 -4.845387e+001 1.500000e+002
         vertex -1.233787e+001 -4.845387e+001 0.000000e+000
         vertex -1.473776e+001 -4.777864e+001 0.000000e+000
      endloop
   endfacet
   facet normal 2.788329e-001 9.603396e-001 0.000000e+000
      outer loop
         vertex -1.233787e+001 -4.845387e+001 1.500000e+002
         vertex -1.473776e+001 -4.777864e+001 0.000000e+000
         vertex -1.473776e+001 -4.777864e+001 1.500000e+002
      endloop
   endfacet
   facet normal 3.105960e-001 9.505420e-001 0.000000e+000
      outer loop
         vertex -1.473776e+001 -4.777864e+001 1.500000e+002
         vertex -1.473776e+001 -4.777864e+001 0.000000e+000
         vertex -1.710101e+001 -4.698463e+001 0.000000e+000
      endloop
   endfacet
   facet normal 3.263553e-001 9.452472e-001 0.000000e+000
      outer loop
         vertex -1.473776e+001 -4.777864e+001 1.500000e+002
         vertex -1.710101e+001 -4.698463e+001 0.000000e+000
         vertex -1.710101e+001 -4.698463e+001 1.500000e+002
      endloop
   endfacet
   facet normal 3.575905e-001 9.338785e-001 0.000000e+000
      outer loop
         vertex -1.710101e+001 -4.698463e+001 1.500000e+002
         vertex -1.710101e+001 -4.698463e+001 0.000000e+000
         vertex -1.942174e+001 -4.607381e+001 0.000000e+000
      endloop
   endfacet
   facet normal 3.730663e-001 9.278047e-001 0.000000e+000
      outer loop
         vertex -1.710101e+001 -4.698463e+001 1.500000e+002
         vertex -1.942174e+001 -4.607381e+001 0.000000e+000
         vertex -1.942174e+001 -4.607381e+001 1.500000e+002
      endloop
   endfacet
   facet normal 4.036960e-001 9.148932e-001 0.000000e+000
      outer loop
         vertex -1.942174e+001 -4.607381e+001 1.500000e+002
         vertex -1.942174e+001 -4.607381e+001 0.000000e+000
         vertex -2.169419e+001 -4.504844e+001 0.000000e+000
      endloop
   endfacet
   facet normal 4.188498e-001 9.080555e-001 0.000000e+000
      outer loop
         vertex -1.942174e+001 -4.607381e+001 1.500000e+002
         vertex -2.169419e+001 -4.504844e+001 0.000000e+000
         vertex -2.169419e+001 -4.504844e+001 1.500000e+002
      endloop
   endfacet
   facet normal 4.487978e-001 8.936333e-001 0.000000e+000
      outer loop
         vertex -2.169419e+001 -4.504844e+001 1.500000e+002
         vertex -2.169419e+001 -4.504844e+001 0.000000e+000
         vertex -2.391270e+001 -4.391108e+001 0.000000e+000
      endloop
   endfacet
   facet normal 4.635920e-001 8.860488e-001 0.000000e+000
      outer loop
         vertex -2.169419e+001 -4.504844e+001 1.500000e+002
         vertex -2.391270e+001 -4.391108e+001 0.000000e+000
         vertex -2.391270e+001 -4.391108e+001 1.500000e+002
      endloop
   endfacet
   facet normal 4.927839e-001 8.701518e-001 0.000000e+000
      outer loop
         vertex -2.391270e+001 -4.391108e+001 1.500000e+002
         vertex -2.391270e+001 -4.391108e+001 0.000000e+000
         vertex -2.607176e+001 -4.266454e+001 0.000000e+000
      endloop
   endfacet
   facet normal 5.071816e-001 8.618392e-001 0.000000e+000
      outer loop
         vertex -2.391270e+001 -4.391108e+001 1.500000e+002
         vertex -2.607176e+001 -4.266454e+001 0.000000e+000
         vertex -2.607176e+001 -4.266454e+001 1.500000e+002
      endloop
   endfacet
   facet normal 5.355448e-001 8.445069e-001 0.000000e+000
      outer loop
         vertex -2.607176e+001 -4.266454e+001 1.500000e+002
         vertex -2.607176e+001 -4.266454e+001 0.000000e+000
         vertex -2.816600e+001 -4.131194e+001 0.000000e+000
      endloop
   endfacet
   facet normal 5.495103e-001 8.354869e-001 0.000000e+000
      outer loop
         vertex -2.607176e+001 -4.266454e+001 1.500000e+002
         vertex -2.816600e+001 -4.131194e+001 0.000000e+000
         vertex -2.816600e+001 -4.131194e+001 1.500000e+002
      endloop
   endfacet
   facet normal 5.769742e-001 8.167623e-001 0.000000e+000
      outer loop
         vertex -2.816600e+001 -4.131194e+001 1.500000e+002
         vertex -2.816600e+001 -4.131194e+001 0.000000e+000
         vertex -3.019022e+001 -3.985662e+001 0.000000e+000
      endloop
   endfacet
   facet normal 5.904728e-001 8.070576e-001 0.000000e+000
      outer loop
         vertex -2.816600e+001 -4.131194e+001 1.500000e+002
         vertex -3.019022e+001 -3.985662e+001 0.000000e+000
         vertex -3.019022e+001 -3.985662e+001 1.500000e+002
      endloop
   endfacet
   facet normal 6.169693e-001 7.869872e-001 0.000000e+000
      outer loop
         vertex -3.019022e+001 -3.985662e+001 1.500000e+002
         vertex -3.019022e+001 -3.985662e+001 0.000000e+000
         vertex -3.213938e+001 -3.830222e+001 0.000000e+000
      endloop
   endfacet
   facet normal 6.299673e-001 7.766216e-001 0.000000e+000
      outer loop
         vertex -3.019022e+001 -3.985662e+001 1.500000e+002
         vertex -3.213938e+001 -3.830222e+001 0.000000e+000
         vertex -3.213938e+001 -3.830222e+001 1.500000e+002
      endloop
   endfacet
   facet normal 6.554304e-001 7.552556e-001 0.000000e+000
      outer loop
         vertex -3.213938e+001 -3.830222e+001 1.500000e+002
         vertex -3.213938e+001 -3.830222e+001 0.000000e+000
         vertex -3.400864e+001 -3.665260e+001 0.000000e+000
      endloop
   endfacet
   facet normal 6.678956e-001 7.442550e-001 0.000000e+000
      outer loop
         vertex -3.213938e+001 -3.830222e+001 1.500000e+002
         vertex -3.400864e+001 -3.665260e+001 0.000000e+000
         vertex -3.400864e+001 -3.665260e+001 1.500000e+002
      endloop
   endfacet
   facet normal 6.922621e-001 7.216462e-001 0.000000e+000
      outer loop
         vertex -3.400864e+001 -3.665260e+001 1.500000e+002
         vertex -3.400864e+001 -3.665260e+001 0.000000e+000
         vertex -3.579334e+001 -3.491184e+001 0.000000e+000
      endloop
   endfacet
   facet normal 7.041633e-001 7.100380e-001 0.000000e+000
      outer loop
         vertex -3.400864e+001 -3.665260e+001 1.500000e+002
         vertex -3.579334e+001 -3.491184e+001 0.000000e+000
         vertex -3.579334e+001 -3.491184e+001 1.500000e+002
      endloop
   endfacet
   facet normal 7.273726e-001 6.862427e-001 0.000000e+000
      outer loop
         vertex -3.579334e+001 -3.491184e+001 1.500000e+002
         vertex -3.579334e+001 -3.491184e+001 0.000000e+000
         vertex -3.748906e+001 -3.308429e+001 0.000000e+000
      endloop
   endfacet
   facet normal 7.386805e-001 6.740556e-001 0.000000e+000
      outer loop
         vertex -3.579334e+001 -3.491184e+001 1.500000e+002
         vertex -3.748906e+001 -3.308429e+001 0.000000e+000
         vertex -3.748906e+001 -3.308429e+001 1.500000e+002
      endloop
   endfacet
   facet normal 7.606748e-001 6.491331e-001 0.000000e+000
      outer loop
         vertex -3.748906e+001 -3.308429e+001 1.500000e+002
         vertex -3.748906e+001 -3.308429e+001 0.000000e+000
         vertex -3.909158e+001 -3.117449e+001 0.000000e+000
      endloop
   endfacet
   facet normal 7.713612e-001 6.363977e-001 0.000000e+000
      outer loop
         vertex -3.748906e+001 -3.308429e+001 1.500000e+002
         vertex -3.909158e+001 -3.117449e+001 0.000000e+000
         vertex -3.909158e+001 -3.117449e+001 1.500000e+002
      endloop
   endfacet
   facet normal 7.920858e-001 6.104097e-001 0.000000e+000
      outer loop
         vertex -3.909158e+001 -3.117449e+001 1.500000e+002
         vertex -3.909158e+001 -3.117449e+001 0.000000e+000
         vertex -4.059690e+001 -2.918718e+001 0.000000e+000
      endloop
   endfacet
   facet normal 8.021241e-001 5.971574e-001 0.000000e+000
      outer loop
         vertex -3.909158e+001 -3.117449e+001 1.500000e+002
         vertex -4.059690e+001 -2.918718e+001 0.000000e+000
         vertex -4.059690e+001 -2.918718e+001 1.500000e+002
      endloop
   endfacet
   facet normal 8.215276e-001 5.701687e-001 0.000000e+000
      outer loop
         vertex -4.059690e+001 -2.918718e+001 1.500000e+002
         vertex -4.059690e+001 -2.918718e+001 0.000000e+000
         vertex -4.200130e+001 -2.712731e+001 0.000000e+000
      endloop
   endfacet
   facet normal 8.308928e-001 5.564325e-001 0.000000e+000
      outer loop
         vertex -4.059690e+001 -2.918718e+001 1.500000e+002
         vertex -4.200130e+001 -2.712731e+001 0.000000e+000
         vertex -4.200130e+001 -2.712731e+001 1.500000e+002
      endloop
   endfacet
   facet normal 8.489270e-001 5.285102e-001 0.000000e+000
      outer loop
         vertex -4.200130e+001 -2.712731e+001 1.500000e+002
         vertex -4.200130e+001 -2.712731e+001 0.000000e+000
         vertex -4.330127e+001 -2.500000e+001 0.000000e+000
      endloop
   endfacet
   facet normal 8.575959e-001 5.143242e-001 0.000000e+000
      outer loop
         vertex -4.200130e+001 -2.712731e+001 1.500000e+002
         vertex -4.330127e+001 -2.500000e+001 0.000000e+000
         vertex -4.330127e+001 -2.500000e+001 1.500000e+002
      endloop
   endfacet
   facet normal 8.742157e-001 4.855377e-001 0.000000e+000
      outer loop
         vertex -4.330127e+001 -2.500000e+001 1.500000e+002
         vertex -4.330127e+001 -2.500000e+001 0.000000e+000
         vertex -4.449359e+001 -2.281053e+001 0.000000e+000
      endloop
   endfacet
   facet normal 8.821667e-001 4.709372e-001 0.000000e+000
      outer loop
         vertex -4.330127e+001 -2.500000e+001 1.500000e+002
         vertex -4.449359e+001 -2.281053e+001 0.000000e+000
         vertex -4.449359e+001 -2.281053e+001 1.500000e+002
      endloop
   endfacet
   facet normal 8.973311e-001 4.413581e-001 0.000000e+000
      outer loop
         vertex -4.449359e+001 -2.281053e+001 1.500000e+002
         vertex -4.449359e+001 -2.281053e+001 0.000000e+000
         vertex -4.557529e+001 -2.056436e+001 0.000000e+000
      endloop
   endfacet
   facet normal 9.045444e-001 4.263794e-001 0.000000e+000
      outer loop
         vertex -4.449359e+001 -2.281053e+001 1.500000e+002
         vertex -4.557529e+001 -2.056436e+001 0.000000e+000
         vertex -4.557529e+001 -2.056436e+001 1.500000e+002
      endloop
   endfacet
   facet normal 9.182155e-001 3.960812e-001 0.000000e+000
      outer loop
         vertex -4.557529e+001 -2.056436e+001 1.500000e+002
         vertex -4.557529e+001 -2.056436e+001 0.000000e+000
         vertex -4.654369e+001 -1.826705e+001 0.000000e+000
      endloop
   endfacet
   facet normal 9.246733e-001 3.807616e-001 0.000000e+000
      outer loop
         vertex -4.557529e+001 -2.056436e+001 1.500000e+002
         vertex -4.654369e+001 -1.826705e+001 0.000000e+000
         vertex -4.654369e+001 -1.826705e+001 1.500000e+002
      endloop
   endfacet
   facet normal 9.368171e-001 3.498196e-001 0.000000e+000
      outer loop
         vertex -4.654369e+001 -1.826705e+001 1.500000e+002
         vertex -4.654369e+001 -1.826705e+001 0.000000e+000
         vertex -4.739637e+001 -1.592433e+001 0.000000e+000
      endloop
   endfacet
   facet normal 9.425032e-001 3.341971e-001 0.000000e+000
      outer loop
         vertex -4.654369e+001 -1.826705e+001 1.500000e+002
         vertex -4.739637e+001 -1.592433e+001 0.000000e+000
         vertex -4.739637e+001 -1.592433e+001 1.500000e+002
      endloop
   endfacet
   facet normal 9.530897e-001 3.026882e-001 0.000000e+000
      outer loop
         vertex -4.739637e+001 -1.592433e+001 1.500000e+002
         vertex -4.739637e+001 -1.592433e+001 0.000000e+000
         vertex -4.813121e+001 -1.354202e+001 0.000000e+000
      endloop
   endfacet
   facet normal 9.579899e-001 2.868018e-001 0.000000e+000
      outer loop
         vertex -4.739637e+001 -1.592433e+001 1.500000e+002
         vertex -4.813121e+001 -1.354202e+001 0.000000e+000
         vertex -4.813121e+001 -1.354202e+001 1.500000e+002
      endloop
   endfacet
   facet normal 9.669926e-001 2.548043e-001 0.000000e+000
      outer loop
         vertex -4.813121e+001 -1.354202e+001 1.500000e+002
         vertex -4.813121e+001 -1.354202e+001 0.000000e+000
         vertex -4.874640e+001 -1.112605e+001 0.000000e+000
      endloop
   endfacet
   facet normal 9.710950e-001 2.386934e-001 0.000000e+000
      outer loop
         vertex -4.813121e+001 -1.354202e+001 1.500000e+002
         vertex -4.874640e+001 -1.112605e+001 0.000000e+000
         vertex -4.874640e+001 -1.112605e+001 1.500000e+002
      endloop
   endfacet
   facet normal 9.784915e-001 2.062870e-001 0.000000e+000
      outer loop
         vertex -4.874640e+001 -1.112605e+001 1.500000e+002
         vertex -4.874640e+001 -1.112605e+001 0.000000e+000
         vertex -4.924039e+001 -8.682409e+000 0.000000e+000
      endloop
   endfacet
   facet normal 9.817857e-001 1.899916e-001 0.000000e+000
      outer loop
         vertex -4.874640e+001 -1.112605e+001 1.500000e+002
         vertex -4.924039e+001 -8.682409e+000 0.000000e+000
         vertex -4.924039e+001 -8.682409e+000 1.500000e+002
      endloop
   endfacet
   facet normal 9.875578e-001 1.572568e-001 0.000000e+000
      outer loop
         vertex -4.924039e+001 -8.682409e+000 1.500000e+002
         vertex -4.924039e+001 -8.682409e+000 0.000000e+000
         vertex -4.961196e+001 -6.217185e+000 0.000000e+000
      endloop
   endfacet
   facet normal 9.900356e-001 1.408174e-001 0.000000e+000
      outer loop
         vertex -4.924039e+001 -8.682409e+000 1.500000e+002
         vertex -4.961196e+001 -6.217185e+000 0.000000e+000
         vertex -4.961196e+001 -6.217185e+000 1.500000e+002
      endloop
   endfacet
   facet normal 9.941688e-001 1.078356e-001 0.000000e+000
      outer loop
         vertex -4.961196e+001 -6.217185e+000 1.500000e+002
         vertex -4.961196e+001 -6.217185e+000 0.000000e+000
         vertex -4.986019e+001 -3.736505e+000 0.000000e+000
      endloop
   endfacet
   facet normal 9.958240e-001 9.129319e-002 0.000000e+000
      outer loop
         vertex -4.961196e+001 -6.217185e+000 1.500000e+002
         vertex -4.986019e+001 -3.736505e+000 0.000000e+000
         vertex -4.986019e+001 -3.736505e+000 1.500000e+002
      endloop
   endfacet
   facet normal 9.983081e-001 5.814635e-002 0.000000e+000
      outer loop
         vertex -4.986019e+001 -3.736505e+000 1.500000e+002
         vertex -4.986019e+001 -3.736505e+000 0.000000e+000
         vertex -4.998446e+001 -1.246535e+000 0.000000e+000
      endloop
   endfacet
   facet normal 9.991367e-001 4.154197e-002 0.000000e+000
      outer loop
         vertex -4.986019e+001 -3.736505e+000 1.500000e+002
         vertex -4.998446e+001 -1.246535e+000 0.000000e+000
         vertex -4.998446e+001 -1.246535e+000 1.500000e+002
      endloop
   endfacet
   facet normal 9.999654e-001 8.312527e-003 0.000000e+000
      outer loop
         vertex -4.998446e+001 -1.246535e+000 1.500000e+002
         vertex -4.998446e+001 -1.246535e+000 0.000000e+000
         vertex -4.998446e+001 1.246535e+000 0.000000e+000
      endloop
   endfacet
   facet normal 9.999654e-001 -8.312527e-003 0.000000e+000
      outer loop
         vertex -4.998446e+001 -1.246535e+000 1.500000e+002
         vertex -4.998446e+001 1.246535e+000 0.000000e+000
         vertex -4.998446e+001 1.246535e+000 1.500000e+002
      endloop
   endfacet
   facet normal 9.991367e-001 -4.154197e-002 0.000000e+000
      outer loop
         vertex -4.998446e+001 1.246535e+000 1.500000e+002
         vertex -4.998446e+001 1.246535e+000 0.000000e+000
         vertex -4.986019e+001 3.736505e+000 0.000000e+000
      endloop
   endfacet
   facet normal 9.983081e-001 -5.814636e-002 0.000000e+000
      outer loop
         vertex -4.998446e+001 1.246535e+000 1.500000e+002
         vertex -4.986019e+001 3.736505e+000 0.000000e+000
         vertex -4.986019e+001 3.736505e+000 1.500000e+002
      endloop
   endfacet
   facet normal 9.958240e-001 -9.129319e-002 0.000000e+000
      outer loop
         vertex -4.986019e+001 3.736505e+000 1.500000e+002
         vertex -4.986019e+001 3.736505e+000 0.000000e+000
         vertex -4.961196e+001 6.217185e+000 0.000000e+000
      endloop
   endfacet
   facet normal 9.941688e-001 -1.078356e-001 0.000000e+000
      outer loop
         vertex -4.986019e+001 3.736505e+000 1.500000e+002
         vertex -4.961196e+001 6.217185e+000 0.000000e+000
         vertex -4.961196e+001 6.217185e+000 1.500000e+002
      endloop
   endfacet
   facet normal 9.900356e-001 -1.408174e-001 0.000000e+000
      outer loop
         vertex -4.961196e+001 6.217185e+000 1.500000e+002
         vertex -4.961196e+001 6.217185e+000 0.000000e+000
         vertex -4.924039e+001 8.682409e+000 0.000000e+000
      endloop
   endfacet
   facet normal 9.875578e-001 -1.572568e-001 0.000000e+000
      outer loop
         vertex -4.961196e+001 6.217185e+000 1.500000e+002
         vertex -4.924039e+001 8.682409e+000 0.000000e+000
         vertex -4.924039e+001 8.682409e+000 1.500000e+002
      endloop
   endfacet
   facet normal 9.817857e-001 -1.899916e-001 0.000000e+000
      outer loop
         vertex -4.924039e+001 8.682409e+000 1.500000e+002
         vertex -4.924039e+001 8.682409e+000 0.000000e+000
         vertex -4.874640e+001 1.112605e+001 0.000000e+000
      endloop
   endfacet
   facet normal 9.784915e-001 -2.062870e-001 0.000000e+000
      outer loop
         vertex -4.924039e+001 8.682409e+000 1.500000e+002
         vertex -4.874640e+001 1.112605e+001 0.000000e+000
         vertex -4.874640e+001 1.112605e+001 1.500000e+002
      endloop
   endfacet
   facet normal 9.710950e-001 -2.386934e-001 0.000000e+000
      outer loop
         vertex -4.874640e+001 1.112605e+001 1.500000e+002
         vertex -4.874640e+001 1.112605e+001 0.000000e+000
         vertex -4.813121e+001 1.354202e+001 0.000000e+000
      endloop
   endfacet
   facet normal 9.669926e-001 -2.548043e-001 0.000000e+000
      outer loop
         vertex -4.874640e+001 1.112605e+001 1.500000e+002
         vertex -4.813121e+001 1.354202e+001 0.000000e+000
         vertex -4.813121e+001 1.354202e+001 1.500000e+002
      endloop
   endfacet
   facet normal 9.579899e-001 -2.868018e-001 0.000000e+000
      outer loop
         vertex -4.813121e+001 1.354202e+001 1.500000e+002
         vertex -4.813121e+001 1.354202e+001 0.000000e+000
         vertex -4.739637e+001 1.592433e+001 0.000000e+000
      endloop
   endfacet
   facet normal 9.530897e-001 -3.026882e-001 0.000000e+000
      outer loop
         vertex -4.813121e+001 1.354202e+001 1.500000e+002
         vertex -4.739637e+001 1.592433e+001 0.000000e+000
         vertex -4.739637e+001 1.592433e+001 1.500000e+002
      endloop
   endfacet
   facet normal 9.425032e-001 -3.341971e-001 0.000000e+000
      outer loop
         vertex -4.739637e+001 1.592433e+001 1.500000e+002
         vertex -4.739637e+001 1.592433e+001 0.000000e+000
         vertex -4.654369e+001 1.826705e+001 0.000000e+000
      endloop
   endfacet
   facet normal 9.368171e-001 -3.498196e-001 0.000000e+000
      outer loop
         vertex -4.739637e+001 1.592433e+001 1.500000e+002
         vertex -4.654369e+001 1.826705e+001 0.000000e+000
         vertex -4.654369e+001 1.826705e+001 1.500000e+002
      endloop
   endfacet
   facet normal 9.246733e-001 -3.807616e-001 0.000000e+000
      outer loop
         vertex -4.654369e+001 1.826705e+001 1.500000e+002
         vertex -4.654369e+001 1.826705e+001 0.000000e+000
         vertex -4.557529e+001 2.056436e+001 0.000000e+000
      endloop
   endfacet
   facet normal 9.182155e-001 -3.960812e-001 0.000000e+000
      outer loop
         vertex -4.654369e+001 1.826705e+001 1.500000e+002
         vertex -4.557529e+001 2.056436e+001 0.000000e+000
         vertex -4.557529e+001 2.056436e+001 1.500000e+002
      endloop
   endfacet
   facet normal 9.045444e-001 -4.263794e-001 0.000000e+000
      outer loop
         vertex -4.557529e+001 2.056436e+001 1.500000e+002
         vertex -4.557529e+001 2.056436e+001 0.000000e+000
         vertex -4.449359e+001 2.281053e+001 0.000000e+000
      endloop
   endfacet
   facet normal 8.973311e-001 -4.413581e-001 0.000000e+000
      outer loop
         vertex -4.557529e+001 2.056436e+001 1.500000e+002
         vertex -4.449359e+001 2.281053e+001 0.000000e+000
         vertex -4.449359e+001 2.281053e+001 1.500000e+002
      endloop
   endfacet
   facet normal 8.821667e-001 -4.709372e-001 0.000000e+000
      outer loop
         vertex -4.449359e+001 2.281053e+001 1.500000e+002
         vertex -4.449359e+001 2.281053e+001 0.000000e+000
         vertex -4.330127e+001 2.500000e+001 0.000000e+000
      endloop
   endfacet
   facet normal 8.742157e-001 -4.855376e-001 0.000000e+000
      outer loop
         vertex -4.449359e+001 2.281053e+001 1.500000e+002
         vertex -4.330127e+001 2.500000e+001 0.000000e+000
         vertex -4.330127e+001 2.500000e+001 1.500000e+002
      endloop
   endfacet
   facet normal 8.575959e-001 -5.143242e-001 0.000000e+000
      outer loop
         vertex -4.330127e+001 2.500000e+001 1.500000e+002
         vertex -4.330127e+001 2.500000e+001 0.000000e+000
         vertex -4.200130e+001 2.712731e+001 0.000000e+000
      endloop
   endfacet
   facet normal 8.489270e-001 -5.285102e-001 0.000000e+000
      outer loop
         vertex -4.330127e+001 2.500000e+001 1.500000e+002
         vertex -4.200130e+001 2.712731e+001 0.000000e+000
         vertex -4.200130e+001 2.712731e+001 1.500000e+002
      endloop
   endfacet
   facet normal 8.308928e-001 -5.564325e-001 0.000000e+000
      outer loop
         vertex -4.200130e+001 2.712731e+001 1.500000e+002
         vertex -4.200130e+001 2.712731e+001 0.000000e+000
         vertex -4.059690e+001 2.918718e+001 0.000000e+000
      endloop
   endfacet
   facet normal 8.215276e-001 -5.701687e-001 0.000000e+000
      outer loop
         vertex -4.200130e+001 2.712731e+001 1.500000e+002
         vertex -4.059690e+001 2.918718e+001 0.000000e+000
         vertex -4.059690e+001 2.918718e+001 1.500000e+002
      endloop
   endfacet
   facet normal 8.021241e-001 -5.971574e-001 0.000000e+000
      outer loop
         vertex -4.059690e+001 2.918718e+001 1.500000e+002
         vertex -4.059690e+001 2.918718e+001 0.000000e+000
         vertex -3.909158e+001 3.117449e+001 0.000000e+000
      endloop
   endfacet
   facet normal 7.920858e-001 -6.104097e-001 0.000000e+000
      outer loop
         vertex -4.059690e+001 2.918718e+001 1.500000e+002
         vertex -3.909158e+001 3.117449e+001 0.000000e+000
         vertex -3.909158e+001 3.117449e+001 1.500000e+002
      endloop
   endfacet
   facet normal 7.713612e-001 -6.363977e-001 0.000000e+000
      outer loop
         vertex -3.909158e+001 3.117449e+001 1.500000e+002
         vertex -3.909158e+001 3.117449e+001 0.000000e+000
         vertex -3.748906e+001 3.308429e+001 0.000000e+000
      endloop
   endfacet
   facet normal 7.606748e-001 -6.491331e-001 0.000000e+000
      outer loop
         vertex -3.909158e+001 3.117449e+001 1.500000e+002
         vertex -3.748906e+001 3.308429e+001 0.000000e+000
         vertex -3.748906e+001 3.308429e+001 1.500000e+002
      endloop
   endfacet
   facet normal 7.386805e-001 -6.740556e-001 0.000000e+000
      outer loop
         vertex -3.748906e+001 3.308429e+001 1.500000e+002
         vertex -3.748906e+001 3.308429e+001 0.000000e+000
         vertex -3.579334e+001 3.491184e+001 0.000000e+000
      endloop
   endfacet
   facet normal 7.273726e-001 -6.862427e-001 0.000000e+000
      outer loop
         vertex -3.748906e+001 3.308429e+001 1.500000e+002
         vertex -3.579334e+001 3.491184e+001 0.000000e+000
         vertex -3.579334e+001 3.491184e+001 1.500000e+002
      endloop
   endfacet
   facet normal 7.041633e-001 -7.100380e-001 0.000000e+000
      outer loop
         vertex -3.579334e+001 3.491184e+001 1.500000e+002
         vertex -3.579334e+001 3.491184e+001 0.000000e+000
         vertex -3.400864e+001 3.665260e+001 0.000000e+000
      endloop
   endfacet
   facet normal 6.922621e-001 -7.216462e-001 0.000000e+000
      outer loop
         vertex -3.579334e+001 3.491184e+001 1.500000e+002
         vertex -3.400864e+001 3.665260e+001 0.000000e+000
         vertex -3.400864e+001 3.665260e+001 1.500000e+002
      endloop
   endfacet
   facet normal 6.678956e-001 -7.442550e-001 0.000000e+000
      outer loop
         vertex -3.400864e+001 3.665260e+001 1.500000e+002
         vertex -3.400864e+001 3.665260e+001 0.000000e+000
         vertex -3.213938e+001 3.830222e+001 0.000000e+000
      endloop
   endfacet
   facet normal 6.554304e-001 -7.552556e-001 0.000000e+000
      outer loop
         vertex -3.400864e+001 3.665260e+001 1.500000e+002
         vertex -3.213938e+001 3.830222e+001 0.000000e+000
         vertex -3.213938e+001 3.830222e+001 1.500000e+002
      endloop
   endfacet
   facet normal 6.299673e-001 -7.766216e-001 0.000000e+000
      outer loop
         vertex -3.213938e+001 3.830222e+001 1.500000e+002
         vertex -3.213938e+001 3.830222e+001 0.000000e+000
         vertex -3.019022e+001 3.985662e+001 0.000000e+000
      endloop
   endfacet
   facet normal 6.169693e-001 -7.869872e-001 0.000000e+000
      outer loop
         vertex -3.213938e+001 3.830222e+001 1.500000e+002
         vertex -3.019022e+001 3.985662e+001 0.000000e+000
         vertex -3.019022e+001 3.985662e+001 1.500000e+002
      endloop
   endfacet
   facet normal 5.904728e-001 -8.070576e-001 0.000000e+000
      outer loop
         vertex -3.019022e+001 3.985662e+001 1.500000e+002
         vertex -3.019022e+001 3.985662e+001 0.000000e+000
         vertex -2.816600e+001 4.131194e+001 0.000000e+000
      endloop
   endfacet
   facet normal 5.769742e-001 -8.167623e-001 0.000000e+000
      outer loop
         vertex -3.019022e+001 3.985662e+001 1.500000e+002
         vertex -2.816600e+001 4.131194e+001 0.000000e+000
         vertex -2.816600e+001 4.131194e+001 1.500000e+002
      endloop
   endfacet
   facet normal 5.495103e-001 -8.354869e-001 0.000000e+000
      outer loop
         vertex -2.816600e+001 4.131194e+001 1.500000e+002
         vertex -2.816600e+001 4.131194e+001 0.000000e+000
         vertex -2.607176e+001 4.266454e+001 0.000000e+000
      endloop
   endfacet
   facet normal 5.355448e-001 -8.445069e-001 0.000000e+000
      outer loop
         vertex -2.816600e+001 4.131194e+001 1.500000e+002
         vertex -2.607176e+001 4.266454e+001 0.000000e+000
         vertex -2.607176e+001 4.266454e+001 1.500000e+002
      endloop
   endfacet
   facet normal 5.071816e-001 -8.618392e-001 0.000000e+000
      outer loop
         vertex -2.607176e+001 4.266454e+001 1.500000e+002
         vertex -2.607176e+001 4.266454e+001 0.000000e+000
         vertex -2.391270e+001 4.391108e+001 0.000000e+000
      endloop
   endfacet
   facet normal 4.927839e-001 -8.701518e-001 0.000000e+000
      outer loop
         vertex -2.607176e+001 4.266454e+001 1.500000e+002
         vertex -2.391270e+001 4.391108e+001 0.000000e+000
         vertex -2.391270e+001 4.391108e+001 1.500000e+002
      endloop
   endfacet
   facet normal 4.635920e-001 -8.860488e-001 0.000000e+000
      outer loop
         vertex -2.391270e+001 4.391108e+001 1.500000e+002
         vertex -2.391270e+001 4.391108e+001 0.000000e+000
         vertex -2.169419e+001 4.504844e+001 0.000000e+000
      endloop
   endfacet
   facet normal 4.487978e-001 -8.936333e-001 0.000000e+000
      outer loop
         vertex -2.391270e+001 4.391108e+001 1.500000e+002
         vertex -2.169419e+001 4.504844e+001 0.000000e+000
         vertex -2.169419e+001 4.504844e+001 1.500000e+002
      endloop
   endfacet
   facet normal 4.188498e-001 -9.080555e-001 0.000000e+000
      outer loop
         vertex -2.169419e+001 4.504844e+001 1.500000e+002
         vertex -2.169419e+001 4.504844e+001 0.000000e+000
         vertex -1.942174e+001 4.607381e+001 0.000000e+000
      endloop
   endfacet
   facet normal 4.036960e-001 -9.148932e-001 0.000000e+000
      outer loop
         vertex -2.169419e+001 4.504844e+001 1.500000e+002
         vertex -1.942174e+001 4.607381e+001 0.000000e+000
         vertex -1.942174e+001 4.607381e+001 1.500000e+002
      endloop
   endfacet
   facet normal 3.730663e-001 -9.278046e-001 0.000000e+000
      outer loop
         vertex -1.942174e+001 4.607381e+001 1.500000e+002
         vertex -1.942174e+001 4.607381e+001 0.000000e+000
         vertex -1.710101e+001 4.698463e+001 0.000000e+000
      endloop
   endfacet
   facet normal 3.575905e-001 -9.338785e-001 0.000000e+000
      outer loop
         vertex -1.942174e+001 4.607381e+001 1.500000e+002
         vertex -1.710101e+001 4.698463e+001 0.000000e+000
         vertex -1.710101e+001 4.698463e+001 1.500000e+002
      endloop
   endfacet
   facet normal 3.263553e-001 -9.452472e-001 0.000000e+000
      outer loop
         vertex -1.710101e+001 4.698463e+001 1.500000e+002
         vertex -1.710101e+001 4.698463e+001 0.000000e+000
         vertex -1.473776e+001 4.777864e+001 0.000000e+000
      endloop
   endfacet
   facet normal 3.105960e-001 -9.505420e-001 0.000000e+000
      outer loop
         vertex -1.710101e+001 4.698463e+001 1.500000e+002
         vertex -1.473776e+001 4.777864e+001 0.000000e+000
         vertex -1.473776e+001 4.777864e+001 1.500000e+002
      endloop
   endfacet
   facet normal 2.788329e-001 -9.603396e-001 0.000000e+000
      outer loop
         vertex -1.473776e+001 4.777864e+001 1.500000e+002
         vertex -1.473776e+001 4.777864e+001 0.000000e+000
         vertex -1.233787e+001 4.845387e+001 0.000000e+000
      endloop
   endfacet
   facet normal 2.628293e-001 -9.648424e-001 0.000000e+000
      outer loop
         vertex -1.473776e+001 4.777864e+001 1.500000e+002
         vertex -1.233787e+001 4.845387e+001 0.000000e+000
         vertex -1.233787e+001 4.845387e+001 1.500000e+002
      endloop
   endfacet
   facet normal 2.306174e-001 -9.730445e-001 0.000000e+000
      outer loop
         vertex -1.233787e+001 4.845387e+001 1.500000e+002
         vertex -1.233787e+001 4.845387e+001 0.000000e+000
         vertex -9.907307e+000 4.900862e+001 0.000000e+000
      endloop
   endfacet
   facet normal 2.144091e-001 -9.767439e-001 0.000000e+000
      outer loop
         vertex -1.233787e+001 4.845387e+001 1.500000e+002
         vertex -9.907307e+000 4.900862e+001 0.000000e+000
         vertex -9.907307e+000 4.900862e+001 1.500000e+002
      endloop
   endfacet
   facet normal 1.818284e-001 -9.833302e-001 0.000000e+000
      outer loop
         vertex -9.907307e+000 4.900862e+001 1.500000e+002
         vertex -9.907307e+000 4.900862e+001 0.000000e+000
         vertex -7.452113e+000 4.944154e+001 0.000000e+000
      endloop
   endfacet
   facet normal 1.654559e-001 -9.862172e-001 0.000000e+000
      outer loop
         vertex -9.907307e+000 4.900862e+001 1.500000e+002
         vertex -7.452113e+000 4.944154e+001 0.000000e+000
         vertex -7.452113e+000 4.944154e+001 1.500000e+002
      endloop
   endfacet
   facet normal 1.325874e-001 -9.911713e-001 0.000000e+000
      outer loop
         vertex -7.452113e+000 4.944154e+001 1.500000e+002
         vertex -7.452113e+000 4.944154e+001 0.000000e+000
         vertex -4.978392e+000 4.975154e+001 0.000000e+000
      endloop
   endfacet
   facet normal 1.160914e-001 -9.932385e-001 0.000000e+000
      outer loop
         vertex -7.452113e+000 4.944154e+001 1.500000e+002
         vertex -4.978392e+000 4.975154e+001 0.000000e+000
         vertex -4.978392e+000 4.975154e+001 1.500000e+002
      endloop
   endfacet
   facet normal 8.301680e-002 -9.965482e-001 0.000000e+000
      outer loop
         vertex -4.978392e+000 4.975154e+001 1.500000e+002
         vertex -4.978392e+000 4.975154e+001 0.000000e+000
         vertex -2.492294e+000 4.993784e+001 0.000000e+000
      endloop
   endfacet
   facet normal 6.643824e-002 -9.977905e-001 0.000000e+000
      outer loop
         vertex -4.978392e+000 4.975154e+001 1.500000e+002
         vertex -2.492294e+000 4.993784e+001 0.000000e+000
         vertex -2.492294e+000 4.993784e+001 1.500000e+002
      endloop
   endfacet
   facet normal 3.323978e-002 -9.994474e-001 0.000000e+000
      outer loop
         vertex -2.492294e+000 4.993784e+001 1.500000e+002
         vertex -2.492294e+000 4.993784e+001 0.000000e+000
         vertex -1.144237e-015 5.000000e+001 0.000000e+000
      endloop
   endfacet
endsolid