solid COMSOL rendering object dif1
facet normal -0.992766320705414 -0.0979418456554413 0
outer loop
vertex -0.24728736281395 -0.0367281921207905 0
vertex -0.24728736281395 -0.0367281921207905 2
vertex -0.25 3.06161713146292e-17 2
endloop
endfacet
facet normal -0.966583251953125 -0.246062502264977 0
outer loop
vertex -0.238825052976608 -0.0739093422889709 0
vertex -0.238825052976608 -0.0739093422889709 2
vertex -0.24728736281395 -0.0367281921207905 2
endloop
endfacet
facet normal -0.918316662311554 -0.389379978179932 0
outer loop
vertex -0.224956214427948 -0.109062828123569 0
vertex -0.224956214427948 -0.109062828123569 2
vertex -0.238825052976608 -0.0739093422889709 2
endloop
endfacet
facet normal -0.849653005599976 -0.522593200206757 0
outer loop
vertex -0.206141769886017 -0.14144104719162 0
vertex -0.206141769886017 -0.14144104719162 2
vertex -0.224956214427948 -0.109062828123569 2
endloop
endfacet
facet normal -0.762650310993195 -0.643011689186096 0
outer loop
vertex -0.18292298913002 -0.170408859848976 0
vertex -0.18292298913002 -0.170408859848976 2
vertex -0.206141769886017 -0.14144104719162 2
endloop
endfacet
facet normal -0.662718653678894 -0.745895862579346 0
outer loop
vertex -0.157058000564575 -0.194506525993347 0
vertex -0.157058000564575 -0.194506525993347 2
vertex -0.18292298913002 -0.170408859848976 2
endloop
endfacet
facet normal -0.548278987407684 -0.833461105823517 0
outer loop
vertex -0.127075612545013 -0.215294659137726 0
vertex -0.127075612545013 -0.215294659137726 2
vertex -0.157058000564575 -0.194506525993347 2
endloop
endfacet
facet normal -0.422316193580627 -0.903902351856232 0
outer loop
vertex -0.0948307663202286 -0.231316074728966 0
vertex -0.0948307663202286 -0.231316074728966 2
vertex -0.127075612545013 -0.215294659137726 2
endloop
endfacet
facet normal -0.289297223091125 -0.954890549182892 0
outer loop
vertex -0.0610710717737675 -0.242425918579102 0
vertex -0.0610710717737675 -0.242425918579102 2
vertex -0.0948307663202286 -0.231316074728966 2
endloop
endfacet
facet normal -0.15217413008213 -0.986136853694916 0
outer loop
vertex -0.0265297647565603 -0.248588353395462 0
vertex -0.0265297647565603 -0.248588353395462 2
vertex -0.0610710717737675 -0.242425918579102 2
endloop
endfacet
facet normal -0.0353730209171772 -0.998117744922638 0
outer loop
vertex -4.59242536632213e-17 -0.25 0
vertex -4.59242536632213e-17 -0.25 2
vertex -0.0265297647565603 -0.248588353395462 2
endloop
endfacet
facet normal -0.0707460418343544 -0.996235609054565 0
outer loop
vertex -0.0265297647565603 -0.248588353395462 2
vertex -0.0265297647565603 -0.248588353395462 0
vertex -4.59242536632213e-17 -0.25 0
endloop
endfacet
facet normal -0.1982292085886 -0.977920234203339 0
outer loop
vertex -0.0610710717737675 -0.242425918579102 2
vertex -0.0610710717737675 -0.242425918579102 0
vertex -0.0265297647565603 -0.248588353395462 0
endloop
endfacet
facet normal -0.33431014418602 -0.940077483654022 0
outer loop
vertex -0.0948307663202286 -0.231316074728966 2
vertex -0.0948307663202286 -0.231316074728966 0
vertex -0.0610710717737675 -0.242425918579102 0
endloop
endfacet
facet normal -0.465309292078018 -0.88254052400589 0
outer loop
vertex -0.127075612545013 -0.215294659137726 2
vertex -0.127075612545013 -0.215294659137726 0
vertex -0.0948307663202286 -0.231316074728966 0
endloop
endfacet
facet normal -0.58825546503067 -0.805743634700775 0
outer loop
vertex -0.157058000564575 -0.194506525993347 2
vertex -0.157058000564575 -0.194506525993347 0
vertex -0.127075612545013 -0.215294659137726 0
endloop
endfacet
facet normal -0.697205305099487 -0.713765621185303 0
outer loop
vertex -0.18292298913002 -0.170408859848976 2
vertex -0.18292298913002 -0.170408859848976 0
vertex -0.157058000564575 -0.194506525993347 0
endloop
endfacet
facet normal -0.793608665466309 -0.604387938976288 0
outer loop
vertex -0.206141769886017 -0.14144104719162 2
vertex -0.206141769886017 -0.14144104719162 0
vertex -0.18292298913002 -0.170408859848976 0
endloop
endfacet
facet normal -0.874738931655884 -0.479422241449356 0
outer loop
vertex -0.224956214427948 -0.109062828123569 2
vertex -0.224956214427948 -0.109062828123569 0
vertex -0.206141769886017 -0.14144104719162 0
endloop
endfacet
facet normal -0.936808407306671 -0.342508673667908 0
outer loop
vertex -0.238825052976608 -0.0739093422889709 2
vertex -0.238825052976608 -0.0739093422889709 0
vertex -0.224956214427948 -0.109062828123569 0
endloop
endfacet
facet normal -0.977866351604462 -0.196487620472908 0
outer loop
vertex -0.24728736281395 -0.0367281921207905 2
vertex -0.24728736281395 -0.0367281921207905 0
vertex -0.238825052976608 -0.0739093422889709 0
endloop
endfacet
facet normal -0.996383190155029 -0.0489709228277206 0
outer loop
vertex -0.25 3.06161713146292e-17 2
vertex -0.25 3.06161713146292e-17 0
vertex -0.24728736281395 -0.0367281921207905 0
endloop
endfacet
facet normal -0.0979418456554413 0.992766320705414 0
outer loop
vertex -0.0367281921207905 0.24728736281395 0
vertex -0.0367281921207905 0.24728736281395 2
vertex 1.53080856573146e-17 0.25 2
endloop
endfacet
facet normal -0.246062502264977 0.966583251953125 0
outer loop
vertex -0.0739093422889709 0.238825052976608 0
vertex -0.0739093422889709 0.238825052976608 2
vertex -0.0367281921207905 0.24728736281395 2
endloop
endfacet
facet normal -0.389379978179932 0.918316662311554 0
outer loop
vertex -0.109062828123569 0.224956214427948 0
vertex -0.109062828123569 0.224956214427948 2
vertex -0.0739093422889709 0.238825052976608 2
endloop
endfacet
facet normal -0.522593200206757 0.849653005599976 0
outer loop
vertex -0.14144104719162 0.206141769886017 0
vertex -0.14144104719162 0.206141769886017 2
vertex -0.109062828123569 0.224956214427948 2
endloop
endfacet
facet normal -0.643011689186096 0.762650310993195 0
outer loop
vertex -0.170408859848976 0.18292298913002 0
vertex -0.170408859848976 0.18292298913002 2
vertex -0.14144104719162 0.206141769886017 2
endloop
endfacet
facet normal -0.745895862579346 0.662718653678894 0
outer loop
vertex -0.194506525993347 0.157058000564575 0
vertex -0.194506525993347 0.157058000564575 2
vertex -0.170408859848976 0.18292298913002 2
endloop
endfacet
facet normal -0.833461105823517 0.548278987407684 0
outer loop
vertex -0.215294659137726 0.127075612545013 0
vertex -0.215294659137726 0.127075612545013 2
vertex -0.194506525993347 0.157058000564575 2
endloop
endfacet
facet normal -0.903902351856232 0.422316193580627 0
outer loop
vertex -0.231316074728966 0.0948307663202286 0
vertex -0.231316074728966 0.0948307663202286 2
vertex -0.215294659137726 0.127075612545013 2
endloop
endfacet
facet normal -0.954890549182892 0.289297223091125 0
outer loop
vertex -0.242425918579102 0.0610710717737675 0
vertex -0.242425918579102 0.0610710717737675 2
vertex -0.231316074728966 0.0948307663202286 2
endloop
endfacet
facet normal -0.986136853694916 0.15217413008213 0
outer loop
vertex -0.248588353395462 0.0265297647565603 0
vertex -0.248588353395462 0.0265297647565603 2
vertex -0.242425918579102 0.0610710717737675 2
endloop
endfacet
facet normal -0.998117744922638 0.0353730209171772 0
outer loop
vertex -0.25 3.06161713146292e-17 0
vertex -0.25 3.06161713146292e-17 2
vertex -0.248588353395462 0.0265297647565603 2
endloop
endfacet
facet normal -0.996235609054565 0.0707460418343544 0
outer loop
vertex -0.248588353395462 0.0265297647565603 2
vertex -0.248588353395462 0.0265297647565603 0
vertex -0.25 3.06161713146292e-17 0
endloop
endfacet
facet normal -0.977920234203339 0.1982292085886 0
outer loop
vertex -0.242425918579102 0.0610710717737675 2
vertex -0.242425918579102 0.0610710717737675 0
vertex -0.248588353395462 0.0265297647565603 0
endloop
endfacet
facet normal -0.940077483654022 0.33431014418602 0
outer loop
vertex -0.231316074728966 0.0948307663202286 2
vertex -0.231316074728966 0.0948307663202286 0
vertex -0.242425918579102 0.0610710717737675 0
endloop
endfacet
facet normal -0.88254052400589 0.465309292078018 0
outer loop
vertex -0.215294659137726 0.127075612545013 2
vertex -0.215294659137726 0.127075612545013 0
vertex -0.231316074728966 0.0948307663202286 0
endloop
endfacet
facet normal -0.805743634700775 0.58825546503067 0
outer loop
vertex -0.194506525993347 0.157058000564575 2
vertex -0.194506525993347 0.157058000564575 0
vertex -0.215294659137726 0.127075612545013 0
endloop
endfacet
facet normal -0.713765621185303 0.697205305099487 0
outer loop
vertex -0.170408859848976 0.18292298913002 2
vertex -0.170408859848976 0.18292298913002 0
vertex -0.194506525993347 0.157058000564575 0
endloop
endfacet
facet normal -0.604387938976288 0.793608665466309 0
outer loop
vertex -0.14144104719162 0.206141769886017 2
vertex -0.14144104719162 0.206141769886017 0
vertex -0.170408859848976 0.18292298913002 0
endloop
endfacet
facet normal -0.479422241449356 0.874738931655884 0
outer loop
vertex -0.109062828123569 0.224956214427948 2
vertex -0.109062828123569 0.224956214427948 0
vertex -0.14144104719162 0.206141769886017 0
endloop
endfacet
facet normal -0.342508673667908 0.936808407306671 0
outer loop
vertex -0.0739093422889709 0.238825052976608 2
vertex -0.0739093422889709 0.238825052976608 0
vertex -0.109062828123569 0.224956214427948 0
endloop
endfacet
facet normal -0.196487620472908 0.977866351604462 0
outer loop
vertex -0.0367281921207905 0.24728736281395 2
vertex -0.0367281921207905 0.24728736281395 0
vertex -0.0739093422889709 0.238825052976608 0
endloop
endfacet
facet normal -0.0489709228277206 0.996383190155029 0
outer loop
vertex 1.53080856573146e-17 0.25 2
vertex 1.53080856573146e-17 0.25 0
vertex -0.0367281921207905 0.24728736281395 0
endloop
endfacet
facet normal 0 -0 -1
outer loop
vertex -0.242425918579102 0.0610710717737675 0
vertex -0.0461939759552479 0.0191341713070869 0
vertex -0.0500000007450581 2.08166817117217e-17 0
endloop
endfacet
facet normal 0 -0 -1
outer loop
vertex -0.0500000007450581 2.08166817117217e-17 0
vertex -0.248588353395462 0.0265297647565603 0
vertex -0.242425918579102 0.0610710717737675 0
endloop
endfacet
facet normal 0 -0 -1
outer loop
vertex -0.0500000007450581 2.08166817117217e-17 0
vertex -0.25 3.06161713146292e-17 0
vertex -0.248588353395462 0.0265297647565603 0
endloop
endfacet
facet normal -0 0 -1
outer loop
vertex -0.215294659137726 0.127075612545013 0
vertex -0.194506525993347 0.157058000564575 0
vertex -0.0353553406894207 0.0353553406894207 0
endloop
endfacet
facet normal -0 -0 -1
outer loop
vertex -0.0461939759552479 0.0191341713070869 0
vertex -0.231316074728966 0.0948307663202286 0
vertex -0.215294659137726 0.127075612545013 0
endloop
endfacet
facet normal -0 -0 -1
outer loop
vertex -0.0353553406894207 0.0353553406894207 0
vertex -0.0461939759552479 0.0191341713070869 0
vertex -0.215294659137726 0.127075612545013 0
endloop
endfacet
facet normal 0 0 -1
outer loop
vertex -0.14144104719162 0.206141769886017 0
vertex -0.109062828123569 0.224956214427948 0
vertex -0.0191341713070869 0.0461939759552479 0
endloop
endfacet
facet normal -0 -0 -1
outer loop
vertex -0.0353553406894207 0.0353553406894207 0
vertex -0.170408859848976 0.18292298913002 0
vertex -0.14144104719162 0.206141769886017 0
endloop
endfacet
facet normal 0 -0 -1
outer loop
vertex -0.0191341713070869 0.0461939759552479 0
vertex -0.0353553406894207 0.0353553406894207 0
vertex -0.14144104719162 0.206141769886017 0
endloop
endfacet
facet normal -0 0 -1
outer loop
vertex -0.194506525993347 0.157058000564575 0
vertex -0.170408859848976 0.18292298913002 0
vertex -0.0353553406894207 0.0353553406894207 0
endloop
endfacet
facet normal 0 -0 -1
outer loop
vertex -0.0367281921207905 0.24728736281395 0
vertex 1.38777878078145e-17 0.0500000007450581 0
vertex -0.0191341713070869 0.0461939759552479 0
endloop
endfacet
facet normal 0 0 -1
outer loop
vertex -0.0191341713070869 0.0461939759552479 0
vertex -0.109062828123569 0.224956214427948 0
vertex -0.0739093422889709 0.238825052976608 0
endloop
endfacet
facet normal 0 -0 -1
outer loop
vertex -0.0191341713070869 0.0461939759552479 0
vertex -0.0739093422889709 0.238825052976608 0
vertex -0.0367281921207905 0.24728736281395 0
endloop
endfacet
facet normal 0 -0 -1
outer loop
vertex 0.0610710717737675 0.242425918579102 0
vertex 0.0191341713070869 0.0461939759552479 0
vertex 1.38777878078145e-17 0.0500000007450581 0
endloop
endfacet
facet normal 0 -0 -1
outer loop
vertex 1.38777878078145e-17 0.0500000007450581 0
vertex 0.0265297647565603 0.248588353395462 0
vertex 0.0610710717737675 0.242425918579102 0
endloop
endfacet
facet normal 0 -0 -1
outer loop
vertex 1.38777878078145e-17 0.0500000007450581 0
vertex 1.53080856573146e-17 0.25 0
vertex 0.0265297647565603 0.248588353395462 0
endloop
endfacet
facet normal 0 -0 -1
outer loop
vertex 0.0610710717737675 0.242425918579102 0
vertex 0.0948307663202286 0.231316074728966 0
vertex 0.0191341713070869 0.0461939759552479 0
endloop
endfacet
facet normal 0 -0 -1
outer loop
vertex -0.0367281921207905 0.24728736281395 0
vertex 1.53080856573146e-17 0.25 0
vertex 1.38777878078145e-17 0.0500000007450581 0
endloop
endfacet
facet normal 0 0 -1
outer loop
vertex 0.127075612545013 0.215294659137726 0
vertex 0.157058000564575 0.194506525993347 0
vertex 0.0353553406894207 0.0353553406894207 0
endloop
endfacet
facet normal 0 -0 -1
outer loop
vertex 0.0191341713070869 0.0461939759552479 0
vertex 0.0948307663202286 0.231316074728966 0
vertex 0.127075612545013 0.215294659137726 0
endloop
endfacet
facet normal 0 0 -1
outer loop
vertex 0.0353553406894207 0.0353553406894207 0
vertex 0.0191341713070869 0.0461939759552479 0
vertex 0.127075612545013 0.215294659137726 0
endloop
endfacet
facet normal -0 -0 -1
outer loop
vertex 0.206141769886017 0.14144104719162 0
vertex 0.224956214427948 0.109062828123569 0
vertex 0.0461939759552479 0.0191341713070869 0
endloop
endfacet
facet normal 0 0 -1
outer loop
vertex 0.0353553406894207 0.0353553406894207 0
vertex 0.18292298913002 0.170408859848976 0
vertex 0.206141769886017 0.14144104719162 0
endloop
endfacet
facet normal -0 0 -1
outer loop
vertex 0.0461939759552479 0.0191341713070869 0
vertex 0.0353553406894207 0.0353553406894207 0
vertex 0.206141769886017 0.14144104719162 0
endloop
endfacet
facet normal 0 0 -1
outer loop
vertex 0.157058000564575 0.194506525993347 0
vertex 0.18292298913002 0.170408859848976 0
vertex 0.0353553406894207 0.0353553406894207 0
endloop
endfacet
facet normal 0 0 -1
outer loop
vertex 0.24728736281395 0.0367281921207905 0
vertex 0.0500000007450581 1.38777878078145e-17 0
vertex 0.0461939759552479 0.0191341713070869 0
endloop
endfacet
facet normal -0 -0 -1
outer loop
vertex 0.0461939759552479 0.0191341713070869 0
vertex 0.224956214427948 0.109062828123569 0
vertex 0.238825052976608 0.0739093422889709 0
endloop
endfacet
facet normal -0 0 -1
outer loop
vertex 0.0461939759552479 0.0191341713070869 0
vertex 0.238825052976608 0.0739093422889709 0
vertex 0.24728736281395 0.0367281921207905 0
endloop
endfacet
facet normal 0 0 -1
outer loop
vertex 0.24728736281395 0.0367281921207905 0
vertex 0.25 0 0
vertex 0.0500000007450581 1.38777878078145e-17 0
endloop
endfacet
facet normal 0 -0 -1
outer loop
vertex 0.242425918579102 -0.0610710717737675 0
vertex 0.0461939759552479 -0.0191341713070869 0
vertex 0.0500000007450581 1.38777878078145e-17 0
endloop
endfacet
facet normal 0 0 -1
outer loop
vertex 0.0500000007450581 1.38777878078145e-17 0
vertex 0.248588353395462 -0.0265297647565603 0
vertex 0.242425918579102 -0.0610710717737675 0
endloop
endfacet
facet normal 0 0 -1
outer loop
vertex 0.0500000007450581 1.38777878078145e-17 0
vertex 0.25 0 0
vertex 0.248588353395462 -0.0265297647565603 0
endloop
endfacet
facet normal 0 0 -1
outer loop
vertex 0.215294659137726 -0.127075612545013 0
vertex 0.194506525993347 -0.157058000564575 0
vertex 0.0353553406894207 -0.0353553406894207 0
endloop
endfacet
facet normal 0 0 -1
outer loop
vertex 0.0461939759552479 -0.0191341713070869 0
vertex 0.231316074728966 -0.0948307663202286 0
vertex 0.215294659137726 -0.127075612545013 0
endloop
endfacet
facet normal 0 0 -1
outer loop
vertex 0.0353553406894207 -0.0353553406894207 0
vertex 0.0461939759552479 -0.0191341713070869 0
vertex 0.215294659137726 -0.127075612545013 0
endloop
endfacet
facet normal -0 0 -1
outer loop
vertex 0.14144104719162 -0.206141769886017 0
vertex 0.109062828123569 -0.224956214427948 0
vertex 0.0191341713070869 -0.0461939759552479 0
endloop
endfacet
facet normal -0 0 -1
outer loop
vertex 0.0353553406894207 -0.0353553406894207 0
vertex 0.170408859848976 -0.18292298913002 0
vertex 0.14144104719162 -0.206141769886017 0
endloop
endfacet
facet normal 0 0 -1
outer loop
vertex 0.0367281921207905 -0.24728736281395 0
vertex -2.08166817117217e-17 -0.0500000007450581 0
vertex 0.0191341713070869 -0.0461939759552479 0
endloop
endfacet
facet normal -0 0 -1
outer loop
vertex 0.0191341713070869 -0.0461939759552479 0
vertex 0.109062828123569 -0.224956214427948 0
vertex 0.0739093422889709 -0.238825052976608 0
endloop
endfacet
facet normal -0 0 -1
outer loop
vertex 0.0191341713070869 -0.0461939759552479 0
vertex 0.0739093422889709 -0.238825052976608 0
vertex 0.0367281921207905 -0.24728736281395 0
endloop
endfacet
facet normal 0 0 -1
outer loop
vertex 0.0367281921207905 -0.24728736281395 0
vertex -4.59242536632213e-17 -0.25 0
vertex -2.08166817117217e-17 -0.0500000007450581 0
endloop
endfacet
facet normal -0 0 -1
outer loop
vertex 0.0191341713070869 -0.0461939759552479 0
vertex 0.0353553406894207 -0.0353553406894207 0
vertex 0.14144104719162 -0.206141769886017 0
endloop
endfacet
facet normal -0 0 -1
outer loop
vertex 0.194506525993347 -0.157058000564575 0
vertex 0.170408859848976 -0.18292298913002 0
vertex 0.0353553406894207 -0.0353553406894207 0
endloop
endfacet
facet normal 0 0 -1
outer loop
vertex -0.0610710717737675 -0.242425918579102 0
vertex -0.0191341713070869 -0.0461939759552479 0
vertex -2.08166817117217e-17 -0.0500000007450581 0
endloop
endfacet
facet normal 0 0 -1
outer loop
vertex -2.08166817117217e-17 -0.0500000007450581 0
vertex -0.0265297647565603 -0.248588353395462 0
vertex -0.0610710717737675 -0.242425918579102 0
endloop
endfacet
facet normal 0 0 -1
outer loop
vertex -2.08166817117217e-17 -0.0500000007450581 0
vertex -4.59242536632213e-17 -0.25 0
vertex -0.0265297647565603 -0.248588353395462 0
endloop
endfacet
facet normal 0 0 -1
outer loop
vertex -0.127075612545013 -0.215294659137726 0
vertex -0.157058000564575 -0.194506525993347 0
vertex -0.0353553406894207 -0.0353553406894207 0
endloop
endfacet
facet normal 0 0 -1
outer loop
vertex -0.0191341713070869 -0.0461939759552479 0
vertex -0.0948307663202286 -0.231316074728966 0
vertex -0.127075612545013 -0.215294659137726 0
endloop
endfacet
facet normal 0 0 -1
outer loop
vertex -0.0353553406894207 -0.0353553406894207 0
vertex -0.0191341713070869 -0.0461939759552479 0
vertex -0.127075612545013 -0.215294659137726 0
endloop
endfacet
facet normal 0 0 -1
outer loop
vertex -0.157058000564575 -0.194506525993347 0
vertex -0.18292298913002 -0.170408859848976 0
vertex -0.0353553406894207 -0.0353553406894207 0
endloop
endfacet
facet normal 0 0 -1
outer loop
vertex -0.206141769886017 -0.14144104719162 0
vertex -0.224956214427948 -0.109062828123569 0
vertex -0.0461939759552479 -0.0191341713070869 0
endloop
endfacet
facet normal 0 0 -1
outer loop
vertex -0.0353553406894207 -0.0353553406894207 0
vertex -0.18292298913002 -0.170408859848976 0
vertex -0.206141769886017 -0.14144104719162 0
endloop
endfacet
facet normal -0 0 -1
outer loop
vertex -0.0461939759552479 -0.0191341713070869 0
vertex -0.0353553406894207 -0.0353553406894207 0
vertex -0.206141769886017 -0.14144104719162 0
endloop
endfacet
facet normal 0 0 -1
outer loop
vertex -0.24728736281395 -0.0367281921207905 0
vertex -0.0500000007450581 2.08166817117217e-17 0
vertex -0.0461939759552479 -0.0191341713070869 0
endloop
endfacet
facet normal 0 0 -1
outer loop
vertex -0.0461939759552479 -0.0191341713070869 0
vertex -0.224956214427948 -0.109062828123569 0
vertex -0.238825052976608 -0.0739093422889709 0
endloop
endfacet
facet normal -0 0 -1
outer loop
vertex -0.0461939759552479 -0.0191341713070869 0
vertex -0.238825052976608 -0.0739093422889709 0
vertex -0.24728736281395 -0.0367281921207905 0
endloop
endfacet
facet normal 0 -0 -1
outer loop
vertex -0.24728736281395 -0.0367281921207905 0
vertex -0.25 3.06161713146292e-17 0
vertex -0.0500000007450581 2.08166817117217e-17 0
endloop
endfacet
facet normal 0 0 -1
outer loop
vertex -0.0610710717737675 -0.242425918579102 0
vertex -0.0948307663202286 -0.231316074728966 0
vertex -0.0191341713070869 -0.0461939759552479 0
endloop
endfacet
facet normal 0 -0 -1
outer loop
vertex 0.242425918579102 -0.0610710717737675 0
vertex 0.231316074728966 -0.0948307663202286 0
vertex 0.0461939759552479 -0.0191341713070869 0
endloop
endfacet
facet normal 0 -0 -1
outer loop
vertex -0.242425918579102 0.0610710717737675 0
vertex -0.231316074728966 0.0948307663202286 0
vertex -0.0461939759552479 0.0191341713070869 0
endloop
endfacet
facet normal 0.0979418456554413 -0.992766320705414 0
outer loop
vertex 0.0367281921207905 -0.24728736281395 0
vertex 0.0367281921207905 -0.24728736281395 2
vertex -4.59242536632213e-17 -0.25 2
endloop
endfacet
facet normal 0.246062502264977 -0.966583251953125 0
outer loop
vertex 0.0739093422889709 -0.238825052976608 0
vertex 0.0739093422889709 -0.238825052976608 2
vertex 0.0367281921207905 -0.24728736281395 2
endloop
endfacet
facet normal 0.389379978179932 -0.918316662311554 0
outer loop
vertex 0.109062828123569 -0.224956214427948 0
vertex 0.109062828123569 -0.224956214427948 2
vertex 0.0739093422889709 -0.238825052976608 2
endloop
endfacet
facet normal 0.522593200206757 -0.849653005599976 0
outer loop
vertex 0.14144104719162 -0.206141769886017 0
vertex 0.14144104719162 -0.206141769886017 2
vertex 0.109062828123569 -0.224956214427948 2
endloop
endfacet
facet normal 0.643011689186096 -0.762650310993195 0
outer loop
vertex 0.170408859848976 -0.18292298913002 0
vertex 0.170408859848976 -0.18292298913002 2
vertex 0.14144104719162 -0.206141769886017 2
endloop
endfacet
facet normal 0.745895862579346 -0.662718653678894 0
outer loop
vertex 0.194506525993347 -0.157058000564575 0
vertex 0.194506525993347 -0.157058000564575 2
vertex 0.170408859848976 -0.18292298913002 2
endloop
endfacet
facet normal 0.833461105823517 -0.548278987407684 0
outer loop
vertex 0.215294659137726 -0.127075612545013 0
vertex 0.215294659137726 -0.127075612545013 2
vertex 0.194506525993347 -0.157058000564575 2
endloop
endfacet
facet normal 0.903902351856232 -0.422316193580627 0
outer loop
vertex 0.231316074728966 -0.0948307663202286 0
vertex 0.231316074728966 -0.0948307663202286 2
vertex 0.215294659137726 -0.127075612545013 2
endloop
endfacet
facet normal 0.954890549182892 -0.289297223091125 0
outer loop
vertex 0.242425918579102 -0.0610710717737675 0
vertex 0.242425918579102 -0.0610710717737675 2
vertex 0.231316074728966 -0.0948307663202286 2
endloop
endfacet
facet normal 0.986136853694916 -0.15217413008213 0
outer loop
vertex 0.248588353395462 -0.0265297647565603 0
vertex 0.248588353395462 -0.0265297647565603 2
vertex 0.242425918579102 -0.0610710717737675 2
endloop
endfacet
facet normal 0.998117744922638 -0.0353730209171772 0
outer loop
vertex 0.25 0 0
vertex 0.25 0 2
vertex 0.248588353395462 -0.0265297647565603 2
endloop
endfacet
facet normal 0.996235609054565 -0.0707460418343544 0
outer loop
vertex 0.248588353395462 -0.0265297647565603 2
vertex 0.248588353395462 -0.0265297647565603 0
vertex 0.25 0 0
endloop
endfacet
facet normal 0.977920234203339 -0.1982292085886 0
outer loop
vertex 0.242425918579102 -0.0610710717737675 2
vertex 0.242425918579102 -0.0610710717737675 0
vertex 0.248588353395462 -0.0265297647565603 0
endloop
endfacet
facet normal 0.940077483654022 -0.33431014418602 0
outer loop
vertex 0.231316074728966 -0.0948307663202286 2
vertex 0.231316074728966 -0.0948307663202286 0
vertex 0.242425918579102 -0.0610710717737675 0
endloop
endfacet
facet normal 0.88254052400589 -0.465309292078018 0
outer loop
vertex 0.215294659137726 -0.127075612545013 2
vertex 0.215294659137726 -0.127075612545013 0
vertex 0.231316074728966 -0.0948307663202286 0
endloop
endfacet
facet normal 0.805743634700775 -0.58825546503067 0
outer loop
vertex 0.194506525993347 -0.157058000564575 2
vertex 0.194506525993347 -0.157058000564575 0
vertex 0.215294659137726 -0.127075612545013 0
endloop
endfacet
facet normal 0.713765621185303 -0.697205305099487 0
outer loop
vertex 0.170408859848976 -0.18292298913002 2
vertex 0.170408859848976 -0.18292298913002 0
vertex 0.194506525993347 -0.157058000564575 0
endloop
endfacet
facet normal 0.604387938976288 -0.793608665466309 0
outer loop
vertex 0.14144104719162 -0.206141769886017 2
vertex 0.14144104719162 -0.206141769886017 0
vertex 0.170408859848976 -0.18292298913002 0
endloop
endfacet
facet normal 0.479422241449356 -0.874738931655884 0
outer loop
vertex 0.109062828123569 -0.224956214427948 2
vertex 0.109062828123569 -0.224956214427948 0
vertex 0.14144104719162 -0.206141769886017 0
endloop
endfacet
facet normal 0.342508673667908 -0.936808407306671 0
outer loop
vertex 0.0739093422889709 -0.238825052976608 2
vertex 0.0739093422889709 -0.238825052976608 0
vertex 0.109062828123569 -0.224956214427948 0
endloop
endfacet
facet normal 0.196487620472908 -0.977866351604462 0
outer loop
vertex 0.0367281921207905 -0.24728736281395 2
vertex 0.0367281921207905 -0.24728736281395 0
vertex 0.0739093422889709 -0.238825052976608 0
endloop
endfacet
facet normal 0.0489709228277206 -0.996383190155029 0
outer loop
vertex -4.59242536632213e-17 -0.25 2
vertex -4.59242536632213e-17 -0.25 0
vertex 0.0367281921207905 -0.24728736281395 0
endloop
endfacet
facet normal 0.992766320705414 0.0979418456554413 0
outer loop
vertex 0.24728736281395 0.0367281921207905 0
vertex 0.24728736281395 0.0367281921207905 2
vertex 0.25 0 2
endloop
endfacet
facet normal 0.966583251953125 0.246062502264977 -0
outer loop
vertex 0.238825052976608 0.0739093422889709 0
vertex 0.238825052976608 0.0739093422889709 2
vertex 0.24728736281395 0.0367281921207905 2
endloop
endfacet
facet normal 0.918316662311554 0.389379978179932 -0
outer loop
vertex 0.224956214427948 0.109062828123569 0
vertex 0.224956214427948 0.109062828123569 2
vertex 0.238825052976608 0.0739093422889709 2
endloop
endfacet
facet normal 0.849653005599976 0.522593200206757 -0
outer loop
vertex 0.206141769886017 0.14144104719162 0
vertex 0.206141769886017 0.14144104719162 2
vertex 0.224956214427948 0.109062828123569 2
endloop
endfacet
facet normal 0.762650310993195 0.643011689186096 -0
outer loop
vertex 0.18292298913002 0.170408859848976 0
vertex 0.18292298913002 0.170408859848976 2
vertex 0.206141769886017 0.14144104719162 2
endloop
endfacet
facet normal 0.662718653678894 0.745895862579346 -0
outer loop
vertex 0.157058000564575 0.194506525993347 0
vertex 0.157058000564575 0.194506525993347 2
vertex 0.18292298913002 0.170408859848976 2
endloop
endfacet
facet normal 0.548278987407684 0.833461105823517 -0
outer loop
vertex 0.127075612545013 0.215294659137726 0
vertex 0.127075612545013 0.215294659137726 2
vertex 0.157058000564575 0.194506525993347 2
endloop
endfacet
facet normal 0.422316193580627 0.903902351856232 -0
outer loop
vertex 0.0948307663202286 0.231316074728966 0
vertex 0.0948307663202286 0.231316074728966 2
vertex 0.127075612545013 0.215294659137726 2
endloop
endfacet
facet normal 0.289297223091125 0.954890549182892 -0
outer loop
vertex 0.0610710717737675 0.242425918579102 0
vertex 0.0610710717737675 0.242425918579102 2
vertex 0.0948307663202286 0.231316074728966 2
endloop
endfacet
facet normal 0.15217413008213 0.986136853694916 -0
outer loop
vertex 0.0265297647565603 0.248588353395462 0
vertex 0.0265297647565603 0.248588353395462 2
vertex 0.0610710717737675 0.242425918579102 2
endloop
endfacet
facet normal 0.0353730209171772 0.998117744922638 -0
outer loop
vertex 1.53080856573146e-17 0.25 0
vertex 1.53080856573146e-17 0.25 2
vertex 0.0265297647565603 0.248588353395462 2
endloop
endfacet
facet normal 0.0707460418343544 0.996235609054565 -0
outer loop
vertex 0.0265297647565603 0.248588353395462 2
vertex 0.0265297647565603 0.248588353395462 0
vertex 1.53080856573146e-17 0.25 0
endloop
endfacet
facet normal 0.1982292085886 0.977920234203339 -0
outer loop
vertex 0.0610710717737675 0.242425918579102 2
vertex 0.0610710717737675 0.242425918579102 0
vertex 0.0265297647565603 0.248588353395462 0
endloop
endfacet
facet normal 0.33431014418602 0.940077483654022 -0
outer loop
vertex 0.0948307663202286 0.231316074728966 2
vertex 0.0948307663202286 0.231316074728966 0
vertex 0.0610710717737675 0.242425918579102 0
endloop
endfacet
facet normal 0.465309292078018 0.88254052400589 -0
outer loop
vertex 0.127075612545013 0.215294659137726 2
vertex 0.127075612545013 0.215294659137726 0
vertex 0.0948307663202286 0.231316074728966 0
endloop
endfacet
facet normal 0.58825546503067 0.805743634700775 -0
outer loop
vertex 0.157058000564575 0.194506525993347 2
vertex 0.157058000564575 0.194506525993347 0
vertex 0.127075612545013 0.215294659137726 0
endloop
endfacet
facet normal 0.697205305099487 0.713765621185303 -0
outer loop
vertex 0.18292298913002 0.170408859848976 2
vertex 0.18292298913002 0.170408859848976 0
vertex 0.157058000564575 0.194506525993347 0
endloop
endfacet
facet normal 0.793608665466309 0.604387938976288 -0
outer loop
vertex 0.206141769886017 0.14144104719162 2
vertex 0.206141769886017 0.14144104719162 0
vertex 0.18292298913002 0.170408859848976 0
endloop
endfacet
facet normal 0.874738931655884 0.479422241449356 -0
outer loop
vertex 0.224956214427948 0.109062828123569 2
vertex 0.224956214427948 0.109062828123569 0
vertex 0.206141769886017 0.14144104719162 0
endloop
endfacet
facet normal 0.936808407306671 0.342508673667908 -0
outer loop
vertex 0.238825052976608 0.0739093422889709 2
vertex 0.238825052976608 0.0739093422889709 0
vertex 0.224956214427948 0.109062828123569 0
endloop
endfacet
facet normal 0.977866351604462 0.196487620472908 -0
outer loop
vertex 0.24728736281395 0.0367281921207905 2
vertex 0.24728736281395 0.0367281921207905 0
vertex 0.238825052976608 0.0739093422889709 0
endloop
endfacet
facet normal 0.996383190155029 0.0489709228277206 0
outer loop
vertex 0.25 0 2
vertex 0.25 0 0
vertex 0.24728736281395 0.0367281921207905 0
endloop
endfacet
endsolid COMSOL rendering object dif1
