solid ascii
  facet normal 0.000000e+000 0.000000e+000 -1.000000e+000
    outer loop
      vertex   6.753375e+001 1.841718e+001 2.800000e+002
      vertex   5.833197e+001 3.869600e+001 2.800000e+002
      vertex   6.211465e+001 3.227648e+001 2.800000e+002
    endloop
  endfacet
  facet normal 0.000000e+000 0.000000e+000 -1.000000e+000
    outer loop
      vertex   6.753375e+001 1.841718e+001 2.800000e+002
      vertex   5.388838e+001 4.467709e+001 2.800000e+002
      vertex   5.833197e+001 3.869600e+001 2.800000e+002
    endloop
  endfacet
  facet normal 0.000000e+000 0.000000e+000 -1.000000e+000
    outer loop
      vertex   6.753375e+001 1.841718e+001 2.800000e+002
      vertex   4.883421e+001 5.015197e+001 2.800000e+002
      vertex   5.388838e+001 4.467709e+001 2.800000e+002
    endloop
  endfacet
  facet normal 0.000000e+000 0.000000e+000 -1.000000e+000
    outer loop
      vertex   6.990079e+001 3.725552e+000 2.800000e+002
      vertex   -2.020844e+001 6.701954e+001 2.800000e+002
      vertex   -1.297021e+001 6.878789e+001 2.800000e+002
    endloop
  endfacet
  facet normal 0.000000e+000 0.000000e+000 -1.000000e+000
    outer loop
      vertex   -7.000000e+001 -1.714506e-014 2.800000e+002
      vertex   4.322672e+001 -5.505861e+001 2.800000e+002
      vertex   3.712946e+001 -5.934141e+001 2.800000e+002
    endloop
  endfacet
  facet normal 0.000000e+000 0.000000e+000 -1.000000e+000
    outer loop
      vertex   -7.000000e+001 -1.714506e-014 2.800000e+002
      vertex   5.833197e+001 -3.869600e+001 2.800000e+002
      vertex   5.388838e+001 -4.467709e+001 2.800000e+002
    endloop
  endfacet
  facet normal 0.000000e+000 0.000000e+000 -1.000000e+000
    outer loop
      vertex   4.322672e+001 5.505861e+001 2.800000e+002
      vertex   6.753375e+001 1.841718e+001 2.800000e+002
      vertex   6.910878e+001 1.113444e+001 2.800000e+002
    endloop
  endfacet
  facet normal 0.000000e+000 0.000000e+000 -1.000000e+000
    outer loop
      vertex   6.753375e+001 1.841718e+001 2.800000e+002
      vertex   4.322672e+001 5.505861e+001 2.800000e+002
      vertex   4.883421e+001 5.015197e+001 2.800000e+002
    endloop
  endfacet
  facet normal 0.000000e+000 0.000000e+000 -1.000000e+000
    outer loop
      vertex   6.990079e+001 3.725552e+000 2.800000e+002
      vertex   3.061151e+001 6.295185e+001 2.800000e+002
      vertex   3.712946e+001 5.934141e+001 2.800000e+002
    endloop
  endfacet
  facet normal 0.000000e+000 0.000000e+000 -1.000000e+000
    outer loop
      vertex   6.990079e+001 3.725552e+000 2.800000e+002
      vertex   1.661287e+001 6.800009e+001 2.800000e+002
      vertex   2.374672e+001 6.584902e+001 2.800000e+002
    endloop
  endfacet
  facet normal 0.000000e+000 0.000000e+000 -1.000000e+000
    outer loop
      vertex   -1.297021e+001 6.878789e+001 2.800000e+002
      vertex   -5.585027e+000 6.977684e+001 2.800000e+002
      vertex   6.990079e+001 3.725552e+000 2.800000e+002
    endloop
  endfacet
  facet normal 0.000000e+000 0.000000e+000 -1.000000e+000
    outer loop
      vertex   -6.030879e+001 -3.553661e+001 2.800000e+002
      vertex   -6.374443e+001 -2.892485e+001 2.800000e+002
      vertex   -6.645783e+001 -2.198537e+001 2.800000e+002
    endloop
  endfacet
  facet normal 0.000000e+000 0.000000e+000 -1.000000e+000
    outer loop
      vertex   -6.841824e+001 -1.479678e+001 2.800000e+002
      vertex   -5.143419e+001 -4.748183e+001 2.800000e+002
      vertex   -5.618981e+001 -4.174572e+001 2.800000e+002
    endloop
  endfacet
  facet normal 0.000000e+000 0.000000e+000 -1.000000e+000
    outer loop
      vertex   -7.000000e+001 -1.714506e-014 2.800000e+002
      vertex   -1.297021e+001 -6.878789e+001 2.800000e+002
      vertex   -2.020844e+001 -6.701954e+001 2.800000e+002
    endloop
  endfacet
  facet normal 0.000000e+000 0.000000e+000 -1.000000e+000
    outer loop
      vertex   -7.000000e+001 -1.714506e-014 2.800000e+002
      vertex   1.863437e+000 -6.997519e+001 2.800000e+002
      vertex   -5.585027e+000 -6.977684e+001 2.800000e+002
    endloop
  endfacet
  facet normal 0.000000e+000 0.000000e+000 -1.000000e+000
    outer loop
      vertex   -7.000000e+001 -1.714506e-014 2.800000e+002
      vertex   4.883421e+001 -5.015197e+001 2.800000e+002
      vertex   4.322672e+001 -5.505861e+001 2.800000e+002
    endloop
  endfacet
  facet normal 0.000000e+000 0.000000e+000 -1.000000e+000
    outer loop
      vertex   -7.000000e+001 -1.714506e-014 2.800000e+002
      vertex   6.211465e+001 -3.227648e+001 2.800000e+002
      vertex   5.833197e+001 -3.869600e+001 2.800000e+002
    endloop
  endfacet
  facet normal 0.000000e+000 0.000000e+000 -1.000000e+000
    outer loop
      vertex   -7.000000e+001 -1.714506e-014 2.800000e+002
      vertex   6.753375e+001 -1.841718e+001 2.800000e+002
      vertex   6.519353e+001 -2.549124e+001 2.800000e+002
    endloop
  endfacet
  facet normal 0.000000e+000 0.000000e+000 -1.000000e+000
    outer loop
      vertex   6.211465e+001 3.227648e+001 2.800000e+002
      vertex   6.519353e+001 2.549124e+001 2.800000e+002
      vertex   6.753375e+001 1.841718e+001 2.800000e+002
    endloop
  endfacet
  facet normal 0.000000e+000 0.000000e+000 -1.000000e+000
    outer loop
      vertex   2.374672e+001 6.584902e+001 2.800000e+002
      vertex   3.061151e+001 6.295185e+001 2.800000e+002
      vertex   6.990079e+001 3.725552e+000 2.800000e+002
    endloop
  endfacet
  facet normal 0.000000e+000 0.000000e+000 -1.000000e+000
    outer loop
      vertex   6.990079e+001 3.725552e+000 2.800000e+002
      vertex   -2.721769e+001 6.449184e+001 2.800000e+002
      vertex   -2.020844e+001 6.701954e+001 2.800000e+002
    endloop
  endfacet
  facet normal 0.000000e+000 0.000000e+000 -1.000000e+000
    outer loop
      vertex   6.990079e+001 3.725552e+000 2.800000e+002
      vertex   -4.023512e+001 5.728119e+001 2.800000e+002
      vertex   -3.391856e+001 6.123342e+001 2.800000e+002
    endloop
  endfacet
  facet normal 0.000000e+000 0.000000e+000 -1.000000e+000
    outer loop
      vertex   -5.618981e+001 -4.174572e+001 2.800000e+002
      vertex   -6.030879e+001 -3.553661e+001 2.800000e+002
      vertex   -6.841824e+001 -1.479678e+001 2.800000e+002
    endloop
  endfacet
  facet normal 0.000000e+000 0.000000e+000 -1.000000e+000
    outer loop
      vertex   -6.841824e+001 -1.479678e+001 2.800000e+002
      vertex   -4.023512e+001 -5.728119e+001 2.800000e+002
      vertex   -4.609580e+001 -5.267995e+001 2.800000e+002
    endloop
  endfacet
  facet normal 0.000000e+000 0.000000e+000 -1.000000e+000
    outer loop
      vertex   -5.585027e+000 -6.977684e+001 2.800000e+002
      vertex   -1.297021e+001 -6.878789e+001 2.800000e+002
      vertex   -7.000000e+001 -1.714506e-014 2.800000e+002
    endloop
  endfacet
  facet normal 0.000000e+000 0.000000e+000 -1.000000e+000
    outer loop
      vertex   -7.000000e+001 -1.714506e-014 2.800000e+002
      vertex   1.661287e+001 -6.800009e+001 2.800000e+002
      vertex   9.290787e+000 -6.938070e+001 2.800000e+002
    endloop
  endfacet
  facet normal -0.000000e+000 0.000000e+000 -1.000000e+000
    outer loop
      vertex   5.388838e+001 -4.467709e+001 2.800000e+002
      vertex   4.883421e+001 -5.015197e+001 2.800000e+002
      vertex   -7.000000e+001 -1.714506e-014 2.800000e+002
    endloop
  endfacet
  facet normal 0.000000e+000 0.000000e+000 -1.000000e+000
    outer loop
      vertex   -7.000000e+001 -1.714506e-014 2.800000e+002
      vertex   6.910878e+001 -1.113444e+001 2.800000e+002
      vertex   6.753375e+001 -1.841718e+001 2.800000e+002
    endloop
  endfacet
  facet normal 0.000000e+000 0.000000e+000 -1.000000e+000
    outer loop
      vertex   3.712946e+001 5.934141e+001 2.800000e+002
      vertex   4.322672e+001 5.505861e+001 2.800000e+002
      vertex   6.990079e+001 3.725552e+000 2.800000e+002
    endloop
  endfacet
  facet normal 0.000000e+000 0.000000e+000 -1.000000e+000
    outer loop
      vertex   6.990079e+001 3.725552e+000 2.800000e+002
      vertex   1.863437e+000 6.997519e+001 2.800000e+002
      vertex   9.290787e+000 6.938070e+001 2.800000e+002
    endloop
  endfacet
  facet normal 0.000000e+000 0.000000e+000 -1.000000e+000
    outer loop
      vertex   -3.391856e+001 6.123342e+001 2.800000e+002
      vertex   -2.721769e+001 6.449184e+001 2.800000e+002
      vertex   6.990079e+001 3.725552e+000 2.800000e+002
    endloop
  endfacet
  facet normal 0.000000e+000 0.000000e+000 -1.000000e+000
    outer loop
      vertex   6.990079e+001 3.725552e+000 2.800000e+002
      vertex   -5.143419e+001 4.748183e+001 2.800000e+002
      vertex   -4.609580e+001 5.267995e+001 2.800000e+002
    endloop
  endfacet
  facet normal 0.000000e+000 0.000000e+000 -1.000000e+000
    outer loop
      vertex   -4.023512e+001 -5.728119e+001 2.800000e+002
      vertex   -6.841824e+001 -1.479678e+001 2.800000e+002
      vertex   -6.960344e+001 -7.440544e+000 2.800000e+002
    endloop
  endfacet
  facet normal 0.000000e+000 0.000000e+000 -1.000000e+000
    outer loop
      vertex   -4.609580e+001 -5.267995e+001 2.800000e+002
      vertex   -5.143419e+001 -4.748183e+001 2.800000e+002
      vertex   -6.841824e+001 -1.479678e+001 2.800000e+002
    endloop
  endfacet
  facet normal 0.000000e+000 0.000000e+000 -1.000000e+000
    outer loop
      vertex   -7.000000e+001 -1.714506e-014 2.800000e+002
      vertex   -2.721769e+001 -6.449184e+001 2.800000e+002
      vertex   -3.391856e+001 -6.123342e+001 2.800000e+002
    endloop
  endfacet
  facet normal -0.000000e+000 0.000000e+000 -1.000000e+000
    outer loop
      vertex   9.290787e+000 -6.938070e+001 2.800000e+002
      vertex   1.863437e+000 -6.997519e+001 2.800000e+002
      vertex   -7.000000e+001 -1.714506e-014 2.800000e+002
    endloop
  endfacet
  facet normal 0.000000e+000 0.000000e+000 -1.000000e+000
    outer loop
      vertex   -7.000000e+001 -1.714506e-014 2.800000e+002
      vertex   3.061151e+001 -6.295185e+001 2.800000e+002
      vertex   2.374672e+001 -6.584902e+001 2.800000e+002
    endloop
  endfacet
  facet normal -0.000000e+000 0.000000e+000 -1.000000e+000
    outer loop
      vertex   6.519353e+001 -2.549124e+001 2.800000e+002
      vertex   6.211465e+001 -3.227648e+001 2.800000e+002
      vertex   -7.000000e+001 -1.714506e-014 2.800000e+002
    endloop
  endfacet
  facet normal 0.000000e+000 0.000000e+000 -1.000000e+000
    outer loop
      vertex   9.290787e+000 6.938070e+001 2.800000e+002
      vertex   1.661287e+001 6.800009e+001 2.800000e+002
      vertex   6.990079e+001 3.725552e+000 2.800000e+002
    endloop
  endfacet
  facet normal 0.000000e+000 0.000000e+000 -1.000000e+000
    outer loop
      vertex   -4.609580e+001 5.267995e+001 2.800000e+002
      vertex   -4.023512e+001 5.728119e+001 2.800000e+002
      vertex   6.990079e+001 3.725552e+000 2.800000e+002
    endloop
  endfacet
  facet normal 0.000000e+000 0.000000e+000 -1.000000e+000
    outer loop
      vertex   6.990079e+001 3.725552e+000 2.800000e+002
      vertex   -6.030879e+001 3.553661e+001 2.800000e+002
      vertex   -5.618981e+001 4.174572e+001 2.800000e+002
    endloop
  endfacet
  facet normal 0.000000e+000 0.000000e+000 -1.000000e+000
    outer loop
      vertex   6.990079e+001 3.725552e+000 2.800000e+002
      vertex   -6.645783e+001 2.198537e+001 2.800000e+002
      vertex   -6.374443e+001 2.892485e+001 2.800000e+002
    endloop
  endfacet
  facet normal 0.000000e+000 0.000000e+000 -1.000000e+000
    outer loop
      vertex   -6.645783e+001 -2.198537e+001 2.800000e+002
      vertex   -6.841824e+001 -1.479678e+001 2.800000e+002
      vertex   -6.030879e+001 -3.553661e+001 2.800000e+002
    endloop
  endfacet
  facet normal 0.000000e+000 0.000000e+000 -1.000000e+000
    outer loop
      vertex   -2.020844e+001 -6.701954e+001 2.800000e+002
      vertex   -2.721769e+001 -6.449184e+001 2.800000e+002
      vertex   -7.000000e+001 -1.714506e-014 2.800000e+002
    endloop
  endfacet
  facet normal -0.000000e+000 0.000000e+000 -1.000000e+000
    outer loop
      vertex   3.712946e+001 -5.934141e+001 2.800000e+002
      vertex   3.061151e+001 -6.295185e+001 2.800000e+002
      vertex   -7.000000e+001 -1.714506e-014 2.800000e+002
    endloop
  endfacet
  facet normal 0.000000e+000 0.000000e+000 -1.000000e+000
    outer loop
      vertex   -5.585027e+000 6.977684e+001 2.800000e+002
      vertex   1.863437e+000 6.997519e+001 2.800000e+002
      vertex   6.990079e+001 3.725552e+000 2.800000e+002
    endloop
  endfacet
  facet normal 0.000000e+000 0.000000e+000 -1.000000e+000
    outer loop
      vertex   -6.374443e+001 2.892485e+001 2.800000e+002
      vertex   -6.030879e+001 3.553661e+001 2.800000e+002
      vertex   6.990079e+001 3.725552e+000 2.800000e+002
    endloop
  endfacet
  facet normal 0.000000e+000 0.000000e+000 -1.000000e+000
    outer loop
      vertex   6.990079e+001 3.725552e+000 2.800000e+002
      vertex   -6.960344e+001 7.440544e+000 2.800000e+002
      vertex   -6.841824e+001 1.479678e+001 2.800000e+002
    endloop
  endfacet
  facet normal 0.000000e+000 0.000000e+000 -1.000000e+000
    outer loop
      vertex   -3.391856e+001 -6.123342e+001 2.800000e+002
      vertex   -4.023512e+001 -5.728119e+001 2.800000e+002
      vertex   -7.000000e+001 -1.714506e-014 2.800000e+002
    endloop
  endfacet
  facet normal 0.000000e+000 0.000000e+000 -1.000000e+000
    outer loop
      vertex   -7.000000e+001 -1.714506e-014 2.800000e+002
      vertex   6.990079e+001 -3.725552e+000 2.800000e+002
      vertex   6.910878e+001 -1.113444e+001 2.800000e+002
    endloop
  endfacet
  facet normal 0.000000e+000 0.000000e+000 -1.000000e+000
    outer loop
      vertex   -5.618981e+001 4.174572e+001 2.800000e+002
      vertex   -5.143419e+001 4.748183e+001 2.800000e+002
      vertex   6.990079e+001 3.725552e+000 2.800000e+002
    endloop
  endfacet
  facet normal -0.000000e+000 0.000000e+000 -1.000000e+000
    outer loop
      vertex   6.990079e+001 3.725552e+000 2.800000e+002
      vertex   -7.000000e+001 -1.714506e-014 2.800000e+002
      vertex   -6.960344e+001 7.440544e+000 2.800000e+002
    endloop
  endfacet
  facet normal -0.000000e+000 0.000000e+000 -1.000000e+000
    outer loop
      vertex   2.374672e+001 -6.584902e+001 2.800000e+002
      vertex   1.661287e+001 -6.800009e+001 2.800000e+002
      vertex   -7.000000e+001 -1.714506e-014 2.800000e+002
    endloop
  endfacet
  facet normal 0.000000e+000 0.000000e+000 -1.000000e+000
    outer loop
      vertex   -6.841824e+001 1.479678e+001 2.800000e+002
      vertex   -6.645783e+001 2.198537e+001 2.800000e+002
      vertex   6.990079e+001 3.725552e+000 2.800000e+002
    endloop
  endfacet
  facet normal 0.000000e+000 0.000000e+000 -1.000000e+000
    outer loop
      vertex   -7.000000e+001 -1.714506e-014 2.800000e+002
      vertex   7.000000e+001 8.572528e-015 2.800000e+002
      vertex   6.990079e+001 -3.725552e+000 2.800000e+002
    endloop
  endfacet
  facet normal -0.000000e+000 -0.000000e+000 -1.000000e+000
    outer loop
      vertex   6.910878e+001 1.113444e+001 2.800000e+002
      vertex   6.990079e+001 3.725552e+000 2.800000e+002
      vertex   4.322672e+001 5.505861e+001 2.800000e+002
    endloop
  endfacet
  facet normal 0.000000e+000 -0.000000e+000 -1.000000e+000
    outer loop
      vertex   6.990079e+001 3.725552e+000 2.800000e+002
      vertex   7.000000e+001 8.572528e-015 2.800000e+002
      vertex   -7.000000e+001 -1.714506e-014 2.800000e+002
    endloop
  endfacet
  facet normal 0.000000e+000 0.000000e+000 -1.000000e+000
    outer loop
      vertex   -6.960344e+001 -7.440544e+000 2.800000e+002
      vertex   -7.000000e+001 -1.714506e-014 2.800000e+002
      vertex   -4.023512e+001 -5.728119e+001 2.800000e+002
    endloop
  endfacet
endsolid
