solid ascii
  facet normal 0.000000e+000 0.000000e+000 1.000000e+000
    outer loop
      vertex   -5.041496e+001 6.242725e+000 1.778000e+002
      vertex   -4.475542e+001 2.403315e+001 1.778000e+002
      vertex   -4.736959e+001 1.835108e+001 1.778000e+002
    endloop
  endfacet
  facet normal 0.000000e+000 0.000000e+000 1.000000e+000
    outer loop
      vertex   -4.736959e+001 1.835108e+001 1.778000e+002
      vertex   -4.926568e+001 1.239082e+001 1.778000e+002
      vertex   -5.041496e+001 6.242725e+000 1.778000e+002
    endloop
  endfacet
  facet normal 0.000000e+000 0.000000e+000 1.000000e+000
    outer loop
      vertex   -5.080000e+001 -1.244241e-014 1.778000e+002
      vertex   -3.754165e+001 3.422374e+001 1.778000e+002
      vertex   -4.146280e+001 2.935091e+001 1.778000e+002
    endloop
  endfacet
  facet normal 0.000000e+000 0.000000e+000 1.000000e+000
    outer loop
      vertex   -5.080000e+001 -1.244241e-014 1.778000e+002
      vertex   -2.264351e+001 4.547430e+001 1.778000e+002
      vertex   -2.806014e+001 4.234700e+001 1.778000e+002
    endloop
  endfacet
  facet normal 0.000000e+000 0.000000e+000 1.000000e+000
    outer loop
      vertex   7.792296e+000 -5.019881e+001 1.778000e+002
      vertex   -3.754165e+001 -3.422374e+001 1.778000e+002
      vertex   -3.305141e+001 -3.857777e+001 1.778000e+002
    endloop
  endfacet
  facet normal 0.000000e+000 0.000000e+000 1.000000e+000
    outer loop
      vertex   7.792296e+000 -5.019881e+001 1.778000e+002
      vertex   -4.926568e+001 -1.239082e+001 1.778000e+002
      vertex   -4.736959e+001 -1.835108e+001 1.778000e+002
    endloop
  endfacet
  facet normal 0.000000e+000 0.000000e+000 1.000000e+000
    outer loop
      vertex   -4.146280e+001 2.935091e+001 1.778000e+002
      vertex   -4.475542e+001 2.403315e+001 1.778000e+002
      vertex   -5.080000e+001 -1.244241e-014 1.778000e+002
    endloop
  endfacet
  facet normal 0.000000e+000 0.000000e+000 1.000000e+000
    outer loop
      vertex   -2.806014e+001 4.234700e+001 1.778000e+002
      vertex   -3.305141e+001 3.857777e+001 1.778000e+002
      vertex   -5.080000e+001 -1.244241e-014 1.778000e+002
    endloop
  endfacet
  facet normal 0.000000e+000 0.000000e+000 1.000000e+000
    outer loop
      vertex   -5.080000e+001 -1.244241e-014 1.778000e+002
      vertex   1.564389e+000 5.077591e+001 1.778000e+002
      vertex   -4.687233e+000 5.058330e+001 1.778000e+002
    endloop
  endfacet
  facet normal 0.000000e+000 0.000000e+000 1.000000e+000
    outer loop
      vertex   -5.080000e+001 -1.244241e-014 1.778000e+002
      vertex   3.061384e+001 -4.053928e+001 1.778000e+002
      vertex   3.536360e+001 -3.646993e+001 1.778000e+002
    endloop
  endfacet
  facet normal 0.000000e+000 0.000000e+000 1.000000e+000
    outer loop
      vertex   7.792296e+000 -5.019881e+001 1.778000e+002
      vertex   -1.086780e+001 -4.962389e+001 1.778000e+002
      vertex   -4.687233e+000 -5.058330e+001 1.778000e+002
    endloop
  endfacet
  facet normal 0.000000e+000 0.000000e+000 1.000000e+000
    outer loop
      vertex   7.792296e+000 -5.019881e+001 1.778000e+002
      vertex   -2.264351e+001 -4.547430e+001 1.778000e+002
      vertex   -1.688362e+001 -4.791225e+001 1.778000e+002
    endloop
  endfacet
  facet normal 0.000000e+000 0.000000e+000 1.000000e+000
    outer loop
      vertex   -3.305141e+001 -3.857777e+001 1.778000e+002
      vertex   -2.806014e+001 -4.234700e+001 1.778000e+002
      vertex   7.792296e+000 -5.019881e+001 1.778000e+002
    endloop
  endfacet
  facet normal 0.000000e+000 0.000000e+000 1.000000e+000
    outer loop
      vertex   -4.736959e+001 -1.835108e+001 1.778000e+002
      vertex   -4.475542e+001 -2.403315e+001 1.778000e+002
      vertex   7.792296e+000 -5.019881e+001 1.778000e+002
    endloop
  endfacet
  facet normal 0.000000e+000 0.000000e+000 1.000000e+000
    outer loop
      vertex   -3.305141e+001 3.857777e+001 1.778000e+002
      vertex   -3.754165e+001 3.422374e+001 1.778000e+002
      vertex   -5.080000e+001 -1.244241e-014 1.778000e+002
    endloop
  endfacet
  facet normal 0.000000e+000 0.000000e+000 1.000000e+000
    outer loop
      vertex   -5.080000e+001 -1.244241e-014 1.778000e+002
      vertex   -1.086780e+001 4.962389e+001 1.778000e+002
      vertex   -1.688362e+001 4.791225e+001 1.778000e+002
    endloop
  endfacet
  facet normal 0.000000e+000 0.000000e+000 1.000000e+000
    outer loop
      vertex   -5.080000e+001 -1.244241e-014 1.778000e+002
      vertex   7.792296e+000 5.019881e+001 1.778000e+002
      vertex   1.564389e+000 5.077591e+001 1.778000e+002
    endloop
  endfacet
  facet normal 0.000000e+000 0.000000e+000 1.000000e+000
    outer loop
      vertex   -5.080000e+001 -1.244241e-014 1.778000e+002
      vertex   1.980112e+001 4.678200e+001 1.778000e+002
      vertex   1.390208e+001 4.886074e+001 1.778000e+002
    endloop
  endfacet
  facet normal 0.000000e+000 0.000000e+000 1.000000e+000
    outer loop
      vertex   -5.080000e+001 -1.244241e-014 1.778000e+002
      vertex   3.536360e+001 3.646993e+001 1.778000e+002
      vertex   3.061384e+001 4.053928e+001 1.778000e+002
    endloop
  endfacet
  facet normal 0.000000e+000 0.000000e+000 1.000000e+000
    outer loop
      vertex   -5.080000e+001 -1.244241e-014 1.778000e+002
      vertex   4.319103e+001 2.674275e+001 1.778000e+002
      vertex   3.957729e+001 3.184773e+001 1.778000e+002
    endloop
  endfacet
  facet normal 0.000000e+000 0.000000e+000 1.000000e+000
    outer loop
      vertex   -5.080000e+001 -1.244241e-014 1.778000e+002
      vertex   4.840945e+001 1.540016e+001 1.778000e+002
      vertex   4.615004e+001 2.123239e+001 1.778000e+002
    endloop
  endfacet
  facet normal 0.000000e+000 0.000000e+000 1.000000e+000
    outer loop
      vertex   -5.080000e+001 -1.244241e-014 1.778000e+002
      vertex   2.540000e+001 -4.399409e+001 1.778000e+002
      vertex   3.061384e+001 -4.053928e+001 1.778000e+002
    endloop
  endfacet
  facet normal 0.000000e+000 0.000000e+000 1.000000e+000
    outer loop
      vertex   -1.688362e+001 -4.791225e+001 1.778000e+002
      vertex   -1.086780e+001 -4.962389e+001 1.778000e+002
      vertex   7.792296e+000 -5.019881e+001 1.778000e+002
    endloop
  endfacet
  facet normal 0.000000e+000 0.000000e+000 1.000000e+000
    outer loop
      vertex   7.792296e+000 -5.019881e+001 1.778000e+002
      vertex   -4.146280e+001 -2.935091e+001 1.778000e+002
      vertex   -3.754165e+001 -3.422374e+001 1.778000e+002
    endloop
  endfacet
  facet normal 0.000000e+000 0.000000e+000 1.000000e+000
    outer loop
      vertex   7.792296e+000 -5.019881e+001 1.778000e+002
      vertex   -5.041496e+001 -6.242725e+000 1.778000e+002
      vertex   -4.926568e+001 -1.239082e+001 1.778000e+002
    endloop
  endfacet
  facet normal 0.000000e+000 0.000000e+000 1.000000e+000
    outer loop
      vertex   -1.688362e+001 4.791225e+001 1.778000e+002
      vertex   -2.264351e+001 4.547430e+001 1.778000e+002
      vertex   -5.080000e+001 -1.244241e-014 1.778000e+002
    endloop
  endfacet
  facet normal 0.000000e+000 0.000000e+000 1.000000e+000
    outer loop
      vertex   1.390208e+001 4.886074e+001 1.778000e+002
      vertex   7.792296e+000 5.019881e+001 1.778000e+002
      vertex   -5.080000e+001 -1.244241e-014 1.778000e+002
    endloop
  endfacet
  facet normal 0.000000e+000 0.000000e+000 1.000000e+000
    outer loop
      vertex   3.061384e+001 4.053928e+001 1.778000e+002
      vertex   2.540000e+001 4.399409e+001 1.778000e+002
      vertex   -5.080000e+001 -1.244241e-014 1.778000e+002
    endloop
  endfacet
  facet normal 0.000000e+000 0.000000e+000 1.000000e+000
    outer loop
      vertex   4.615004e+001 2.123239e+001 1.778000e+002
      vertex   4.319103e+001 2.674275e+001 1.778000e+002
      vertex   -5.080000e+001 -1.244241e-014 1.778000e+002
    endloop
  endfacet
  facet normal 0.000000e+000 0.000000e+000 1.000000e+000
    outer loop
      vertex   -5.080000e+001 -1.244241e-014 1.778000e+002
      vertex   4.319103e+001 -2.674275e+001 1.778000e+002
      vertex   4.615004e+001 -2.123239e+001 1.778000e+002
    endloop
  endfacet
  facet normal 0.000000e+000 0.000000e+000 1.000000e+000
    outer loop
      vertex   -5.080000e+001 -1.244241e-014 1.778000e+002
      vertex   1.980112e+001 -4.678200e+001 1.778000e+002
      vertex   2.540000e+001 -4.399409e+001 1.778000e+002
    endloop
  endfacet
  facet normal 0.000000e+000 0.000000e+000 1.000000e+000
    outer loop
      vertex   -5.080000e+001 -1.244241e-014 1.778000e+002
      vertex   7.792296e+000 -5.019881e+001 1.778000e+002
      vertex   1.390208e+001 -4.886074e+001 1.778000e+002
    endloop
  endfacet
  facet normal 0.000000e+000 0.000000e+000 1.000000e+000
    outer loop
      vertex   -2.806014e+001 -4.234700e+001 1.778000e+002
      vertex   -2.264351e+001 -4.547430e+001 1.778000e+002
      vertex   7.792296e+000 -5.019881e+001 1.778000e+002
    endloop
  endfacet
  facet normal 0.000000e+000 0.000000e+000 1.000000e+000
    outer loop
      vertex   7.792296e+000 -5.019881e+001 1.778000e+002
      vertex   -5.080000e+001 -1.244241e-014 1.778000e+002
      vertex   -5.041496e+001 -6.242725e+000 1.778000e+002
    endloop
  endfacet
  facet normal 0.000000e+000 0.000000e+000 1.000000e+000
    outer loop
      vertex   -4.687233e+000 5.058330e+001 1.778000e+002
      vertex   -1.086780e+001 4.962389e+001 1.778000e+002
      vertex   -5.080000e+001 -1.244241e-014 1.778000e+002
    endloop
  endfacet
  facet normal 0.000000e+000 0.000000e+000 1.000000e+000
    outer loop
      vertex   3.957729e+001 3.184773e+001 1.778000e+002
      vertex   3.536360e+001 3.646993e+001 1.778000e+002
      vertex   -5.080000e+001 -1.244241e-014 1.778000e+002
    endloop
  endfacet
  facet normal 0.000000e+000 0.000000e+000 1.000000e+000
    outer loop
      vertex   -5.080000e+001 -1.244241e-014 1.778000e+002
      vertex   4.840945e+001 -1.540016e+001 1.778000e+002
      vertex   4.993503e+001 -9.334476e+000 1.778000e+002
    endloop
  endfacet
  facet normal 0.000000e+000 0.000000e+000 1.000000e+000
    outer loop
      vertex   -5.080000e+001 -1.244241e-014 1.778000e+002
      vertex   3.957729e+001 -3.184773e+001 1.778000e+002
      vertex   4.319103e+001 -2.674275e+001 1.778000e+002
    endloop
  endfacet
  facet normal 0.000000e+000 -0.000000e+000 1.000000e+000
    outer loop
      vertex   1.390208e+001 -4.886074e+001 1.778000e+002
      vertex   1.980112e+001 -4.678200e+001 1.778000e+002
      vertex   -5.080000e+001 -1.244241e-014 1.778000e+002
    endloop
  endfacet
  facet normal 0.000000e+000 0.000000e+000 1.000000e+000
    outer loop
      vertex   -4.475542e+001 -2.403315e+001 1.778000e+002
      vertex   -4.146280e+001 -2.935091e+001 1.778000e+002
      vertex   7.792296e+000 -5.019881e+001 1.778000e+002
    endloop
  endfacet
  facet normal 0.000000e+000 0.000000e+000 1.000000e+000
    outer loop
      vertex   2.540000e+001 4.399409e+001 1.778000e+002
      vertex   1.980112e+001 4.678200e+001 1.778000e+002
      vertex   -5.080000e+001 -1.244241e-014 1.778000e+002
    endloop
  endfacet
  facet normal 0.000000e+000 0.000000e+000 1.000000e+000
    outer loop
      vertex   -5.080000e+001 -1.244241e-014 1.778000e+002
      vertex   5.070365e+001 3.127294e+000 1.778000e+002
      vertex   4.993503e+001 9.334476e+000 1.778000e+002
    endloop
  endfacet
  facet normal 0.000000e+000 -0.000000e+000 1.000000e+000
    outer loop
      vertex   4.615004e+001 -2.123239e+001 1.778000e+002
      vertex   4.840945e+001 -1.540016e+001 1.778000e+002
      vertex   -5.080000e+001 -1.244241e-014 1.778000e+002
    endloop
  endfacet
  facet normal -0.000000e+000 0.000000e+000 1.000000e+000
    outer loop
      vertex   -4.687233e+000 -5.058330e+001 1.778000e+002
      vertex   1.564389e+000 -5.077591e+001 1.778000e+002
      vertex   7.792296e+000 -5.019881e+001 1.778000e+002
    endloop
  endfacet
  facet normal 0.000000e+000 0.000000e+000 1.000000e+000
    outer loop
      vertex   4.993503e+001 9.334476e+000 1.778000e+002
      vertex   4.840945e+001 1.540016e+001 1.778000e+002
      vertex   -5.080000e+001 -1.244241e-014 1.778000e+002
    endloop
  endfacet
  facet normal 0.000000e+000 -0.000000e+000 1.000000e+000
    outer loop
      vertex   3.536360e+001 -3.646993e+001 1.778000e+002
      vertex   3.957729e+001 -3.184773e+001 1.778000e+002
      vertex   -5.080000e+001 -1.244241e-014 1.778000e+002
    endloop
  endfacet
  facet normal 0.000000e+000 0.000000e+000 1.000000e+000
    outer loop
      vertex   -5.080000e+001 -1.244241e-014 1.778000e+002
      vertex   5.080000e+001 1.866362e-014 1.778000e+002
      vertex   5.070365e+001 3.127294e+000 1.778000e+002
    endloop
  endfacet
  facet normal 0.000000e+000 -0.000000e+000 1.000000e+000
    outer loop
      vertex   4.993503e+001 -9.334476e+000 1.778000e+002
      vertex   5.070365e+001 -3.127294e+000 1.778000e+002
      vertex   -5.080000e+001 -1.244241e-014 1.778000e+002
    endloop
  endfacet
  facet normal 0.000000e+000 -0.000000e+000 1.000000e+000
    outer loop
      vertex   5.070365e+001 -3.127294e+000 1.778000e+002
      vertex   5.080000e+001 1.866362e-014 1.778000e+002
      vertex   -5.080000e+001 -1.244241e-014 1.778000e+002
    endloop
  endfacet
  facet normal -0.000000e+000 0.000000e+000 1.000000e+000
    outer loop
      vertex   -5.041496e+001 6.242725e+000 1.778000e+002
      vertex   -5.080000e+001 -1.244241e-014 1.778000e+002
      vertex   -4.475542e+001 2.403315e+001 1.778000e+002
    endloop
  endfacet
  facet normal -9.981033e-001 6.156091e-002 0.000000e+000
    outer loop
      vertex   -5.041496e+001 6.242725e+000 1.778000e+002
      vertex   -5.041496e+001 6.242725e+000 5.080000e+001
      vertex   -5.080000e+001 0.000000e+000 5.080000e+001
    endloop
  endfacet
  facet normal -9.829731e-001 1.837495e-001 0.000000e+000
    outer loop
      vertex   -4.926568e+001 1.239082e+001 1.778000e+002
      vertex   -4.926568e+001 1.239082e+001 5.080000e+001
      vertex   -5.041496e+001 6.242725e+000 5.080000e+001
    endloop
  endfacet
  facet normal -9.529420e-001 3.031527e-001 0.000000e+000
    outer loop
      vertex   -4.736959e+001 1.835108e+001 1.778000e+002
      vertex   -4.736959e+001 1.835108e+001 5.080000e+001
      vertex   -4.926568e+001 1.239082e+001 5.080000e+001
    endloop
  endfacet
  facet normal -9.084653e-001 4.179603e-001 0.000000e+000
    outer loop
      vertex   -4.475542e+001 2.403315e+001 1.778000e+002
      vertex   -4.475542e+001 2.403315e+001 5.080000e+001
      vertex   -4.736959e+001 1.835108e+001 5.080000e+001
    endloop
  endfacet
  facet normal -8.502171e-001 5.264322e-001 0.000000e+000
    outer loop
      vertex   -4.146280e+001 2.935091e+001 1.778000e+002
      vertex   -4.146280e+001 2.935091e+001 5.080000e+001
      vertex   -4.475542e+001 2.403315e+001 5.080000e+001
    endloop
  endfacet
  facet normal -7.790806e-001 6.269238e-001 0.000000e+000
    outer loop
      vertex   -3.754165e+001 3.422374e+001 1.778000e+002
      vertex   -3.754165e+001 3.422374e+001 5.080000e+001
      vertex   -4.146280e+001 2.935091e+001 5.080000e+001
    endloop
  endfacet
  facet normal -6.961339e-001 7.179119e-001 0.000000e+000
    outer loop
      vertex   -3.305141e+001 3.857777e+001 1.778000e+002
      vertex   -3.305141e+001 3.857777e+001 5.080000e+001
      vertex   -3.754165e+001 3.422374e+001 5.080000e+001
    endloop
  endfacet
  facet normal -6.026346e-001 7.980172e-001 0.000000e+000
    outer loop
      vertex   -2.806014e+001 4.234700e+001 1.778000e+002
      vertex   -2.806014e+001 4.234700e+001 5.080000e+001
      vertex   -3.305141e+001 3.857777e+001 5.080000e+001
    endloop
  endfacet
  facet normal -5.000000e-001 8.660254e-001 0.000000e+000
    outer loop
      vertex   -2.264351e+001 4.547430e+001 1.778000e+002
      vertex   -2.264351e+001 4.547430e+001 5.080000e+001
      vertex   -2.806014e+001 4.234700e+001 5.080000e+001
    endloop
  endfacet
  facet normal -3.897859e-001 9.209055e-001 0.000000e+000
    outer loop
      vertex   -1.688362e+001 4.791225e+001 1.778000e+002
      vertex   -1.688362e+001 4.791225e+001 5.080000e+001
      vertex   -2.264351e+001 4.547430e+001 5.080000e+001
    endloop
  endfacet
  facet normal -2.736630e-001 9.618256e-001 0.000000e+000
    outer loop
      vertex   -1.086780e+001 4.962389e+001 1.778000e+002
      vertex   -1.086780e+001 4.962389e+001 5.080000e+001
      vertex   -1.688362e+001 4.791225e+001 5.080000e+001
    endloop
  endfacet
  facet normal -1.533917e-001 9.881655e-001 0.000000e+000
    outer loop
      vertex   -4.687233e+000 5.058330e+001 1.778000e+002
      vertex   -4.687233e+000 5.058330e+001 5.080000e+001
      vertex   -1.086780e+001 4.962389e+001 5.080000e+001
    endloop
  endfacet
  facet normal -3.079506e-002 9.995257e-001 0.000000e+000
    outer loop
      vertex   1.564389e+000 5.077591e+001 1.778000e+002
      vertex   1.564389e+000 5.077591e+001 5.080000e+001
      vertex   -4.687233e+000 5.058330e+001 5.080000e+001
    endloop
  endfacet
  facet normal 9.226836e-002 9.957342e-001 0.000000e+000
    outer loop
      vertex   7.792296e+000 5.019881e+001 1.778000e+002
      vertex   7.792296e+000 5.019881e+001 5.080000e+001
      vertex   1.564389e+000 5.077591e+001 5.080000e+001
    endloop
  endfacet
  facet normal 2.139331e-001 9.768483e-001 0.000000e+000
    outer loop
      vertex   1.390208e+001 4.886074e+001 1.778000e+002
      vertex   1.390208e+001 4.886074e+001 5.080000e+001
      vertex   7.792296e+000 5.019881e+001 5.080000e+001
    endloop
  endfacet
  facet normal 3.323548e-001 9.431544e-001 0.000000e+000
    outer loop
      vertex   1.980112e+001 4.678200e+001 1.778000e+002
      vertex   1.980112e+001 4.678200e+001 5.080000e+001
      vertex   1.390208e+001 4.886074e+001 5.080000e+001
    endloop
  endfacet
  facet normal 4.457384e-001 8.951633e-001 0.000000e+000
    outer loop
      vertex   2.540000e+001 4.399409e+001 1.778000e+002
      vertex   2.540000e+001 4.399409e+001 5.080000e+001
      vertex   1.980112e+001 4.678200e+001 5.080000e+001
    endloop
  endfacet
  facet normal 5.523650e-001 8.336024e-001 0.000000e+000
    outer loop
      vertex   3.061384e+001 4.053928e+001 1.778000e+002
      vertex   3.061384e+001 4.053928e+001 5.080000e+001
      vertex   2.540000e+001 4.399409e+001 5.080000e+001
    endloop
  endfacet
  facet normal 6.506183e-001 7.594049e-001 0.000000e+000
    outer loop
      vertex   3.536360e+001 3.646993e+001 1.778000e+002
      vertex   3.536360e+001 3.646993e+001 5.080000e+001
      vertex   3.061384e+001 4.053928e+001 5.080000e+001
    endloop
  endfacet
  facet normal 7.390089e-001 6.736956e-001 0.000000e+000
    outer loop
      vertex   3.957729e+001 3.184773e+001 1.778000e+002
      vertex   3.957729e+001 3.184773e+001 5.080000e+001
      vertex   3.536360e+001 3.646993e+001 5.080000e+001
    endloop
  endfacet
  facet normal 8.161969e-001 5.777738e-001 0.000000e+000
    outer loop
      vertex   4.319103e+001 2.674275e+001 1.778000e+002
      vertex   4.319103e+001 2.674275e+001 5.080000e+001
      vertex   3.957729e+001 3.184773e+001 5.080000e+001
    endloop
  endfacet
  facet normal 8.810122e-001 4.730936e-001 0.000000e+000
    outer loop
      vertex   4.615004e+001 2.123239e+001 1.778000e+002
      vertex   4.615004e+001 2.123239e+001 5.080000e+001
      vertex   4.319103e+001 2.674275e+001 5.080000e+001
    endloop
  endfacet
  facet normal 9.324722e-001 3.612417e-001 0.000000e+000
    outer loop
      vertex   4.840945e+001 1.540016e+001 1.778000e+002
      vertex   4.840945e+001 1.540016e+001 5.080000e+001
      vertex   4.615004e+001 2.123239e+001 5.080000e+001
    endloop
  endfacet
  facet normal 9.697969e-001 2.439137e-001 0.000000e+000
    outer loop
      vertex   4.993503e+001 9.334476e+000 1.778000e+002
      vertex   4.993503e+001 9.334476e+000 5.080000e+001
      vertex   4.840945e+001 1.540016e+001 5.080000e+001
    endloop
  endfacet
  facet normal 9.924205e-001 1.228883e-001 0.000000e+000
    outer loop
      vertex   5.070365e+001 3.127294e+000 1.778000e+002
      vertex   5.070365e+001 3.127294e+000 5.080000e+001
      vertex   4.993503e+001 9.334476e+000 5.080000e+001
    endloop
  endfacet
  facet normal 9.995257e-001 -3.079506e-002 0.000000e+000
    outer loop
      vertex   5.070365e+001 -3.127294e+000 1.778000e+002
      vertex   5.070365e+001 -3.127294e+000 5.080000e+001
      vertex   5.080000e+001 6.221206e-015 5.080000e+001
    endloop
  endfacet
  facet normal 9.995257e-001 3.079506e-002 -0.000000e+000
    outer loop
      vertex   5.070365e+001 3.127294e+000 5.080000e+001
      vertex   5.070365e+001 3.127294e+000 1.778000e+002
      vertex   5.080000e+001 1.866362e-014 1.778000e+002
    endloop
  endfacet
  facet normal 9.995257e-001 3.079506e-002 -3.017046e-018
    outer loop
      vertex   5.080000e+001 1.866362e-014 1.778000e+002
      vertex   5.080000e+001 6.221206e-015 5.080000e+001
      vertex   5.070365e+001 3.127294e+000 5.080000e+001
    endloop
  endfacet
  facet normal 9.924205e-001 -1.228883e-001 0.000000e+000
    outer loop
      vertex   4.993503e+001 -9.334476e+000 1.778000e+002
      vertex   4.993503e+001 -9.334476e+000 5.080000e+001
      vertex   5.070365e+001 -3.127294e+000 5.080000e+001
    endloop
  endfacet
  facet normal 9.697969e-001 -2.439137e-001 0.000000e+000
    outer loop
      vertex   4.840945e+001 -1.540016e+001 1.778000e+002
      vertex   4.840945e+001 -1.540016e+001 5.080000e+001
      vertex   4.993503e+001 -9.334476e+000 5.080000e+001
    endloop
  endfacet
  facet normal 9.324722e-001 -3.612417e-001 0.000000e+000
    outer loop
      vertex   4.615004e+001 -2.123239e+001 1.778000e+002
      vertex   4.615004e+001 -2.123239e+001 5.080000e+001
      vertex   4.840945e+001 -1.540016e+001 5.080000e+001
    endloop
  endfacet
  facet normal 8.810122e-001 -4.730936e-001 0.000000e+000
    outer loop
      vertex   4.319103e+001 -2.674275e+001 1.778000e+002
      vertex   4.319103e+001 -2.674275e+001 5.080000e+001
      vertex   4.615004e+001 -2.123239e+001 5.080000e+001
    endloop
  endfacet
  facet normal 8.161969e-001 -5.777738e-001 0.000000e+000
    outer loop
      vertex   3.957729e+001 -3.184773e+001 1.778000e+002
      vertex   3.957729e+001 -3.184773e+001 5.080000e+001
      vertex   4.319103e+001 -2.674275e+001 5.080000e+001
    endloop
  endfacet
  facet normal 7.390089e-001 -6.736956e-001 0.000000e+000
    outer loop
      vertex   3.536360e+001 -3.646993e+001 1.778000e+002
      vertex   3.536360e+001 -3.646993e+001 5.080000e+001
      vertex   3.957729e+001 -3.184773e+001 5.080000e+001
    endloop
  endfacet
  facet normal 6.506183e-001 -7.594049e-001 0.000000e+000
    outer loop
      vertex   3.061384e+001 -4.053928e+001 1.778000e+002
      vertex   3.061384e+001 -4.053928e+001 5.080000e+001
      vertex   3.536360e+001 -3.646993e+001 5.080000e+001
    endloop
  endfacet
  facet normal 5.523650e-001 -8.336024e-001 0.000000e+000
    outer loop
      vertex   2.540000e+001 -4.399409e+001 1.778000e+002
      vertex   2.540000e+001 -4.399409e+001 5.080000e+001
      vertex   3.061384e+001 -4.053928e+001 5.080000e+001
    endloop
  endfacet
  facet normal 4.457384e-001 -8.951633e-001 0.000000e+000
    outer loop
      vertex   1.980112e+001 -4.678200e+001 1.778000e+002
      vertex   1.980112e+001 -4.678200e+001 5.080000e+001
      vertex   2.540000e+001 -4.399409e+001 5.080000e+001
    endloop
  endfacet
  facet normal 3.323548e-001 -9.431544e-001 0.000000e+000
    outer loop
      vertex   1.390208e+001 -4.886074e+001 1.778000e+002
      vertex   1.390208e+001 -4.886074e+001 5.080000e+001
      vertex   1.980112e+001 -4.678200e+001 5.080000e+001
    endloop
  endfacet
  facet normal 2.139331e-001 -9.768483e-001 0.000000e+000
    outer loop
      vertex   7.792296e+000 -5.019881e+001 1.778000e+002
      vertex   7.792296e+000 -5.019881e+001 5.080000e+001
      vertex   1.390208e+001 -4.886074e+001 5.080000e+001
    endloop
  endfacet
  facet normal 9.226836e-002 -9.957342e-001 0.000000e+000
    outer loop
      vertex   1.564389e+000 -5.077591e+001 1.778000e+002
      vertex   1.564389e+000 -5.077591e+001 5.080000e+001
      vertex   7.792296e+000 -5.019881e+001 5.080000e+001
    endloop
  endfacet
  facet normal -3.079506e-002 -9.995257e-001 -0.000000e+000
    outer loop
      vertex   -4.687233e+000 -5.058330e+001 1.778000e+002
      vertex   -4.687233e+000 -5.058330e+001 5.080000e+001
      vertex   1.564389e+000 -5.077591e+001 5.080000e+001
    endloop
  endfacet
  facet normal -1.533917e-001 -9.881655e-001 -0.000000e+000
    outer loop
      vertex   -1.086780e+001 -4.962389e+001 1.778000e+002
      vertex   -1.086780e+001 -4.962389e+001 5.080000e+001
      vertex   -4.687233e+000 -5.058330e+001 5.080000e+001
    endloop
  endfacet
  facet normal -2.736630e-001 -9.618256e-001 -0.000000e+000
    outer loop
      vertex   -1.688362e+001 -4.791225e+001 1.778000e+002
      vertex   -1.688362e+001 -4.791225e+001 5.080000e+001
      vertex   -1.086780e+001 -4.962389e+001 5.080000e+001
    endloop
  endfacet
  facet normal -3.897859e-001 -9.209055e-001 -0.000000e+000
    outer loop
      vertex   -2.264351e+001 -4.547430e+001 1.778000e+002
      vertex   -2.264351e+001 -4.547430e+001 5.080000e+001
      vertex   -1.688362e+001 -4.791225e+001 5.080000e+001
    endloop
  endfacet
  facet normal -5.000000e-001 -8.660254e-001 -0.000000e+000
    outer loop
      vertex   -2.806014e+001 -4.234700e+001 1.778000e+002
      vertex   -2.806014e+001 -4.234700e+001 5.080000e+001
      vertex   -2.264351e+001 -4.547430e+001 5.080000e+001
    endloop
  endfacet
  facet normal -6.026346e-001 -7.980172e-001 -0.000000e+000
    outer loop
      vertex   -3.305141e+001 -3.857777e+001 1.778000e+002
      vertex   -3.305141e+001 -3.857777e+001 5.080000e+001
      vertex   -2.806014e+001 -4.234700e+001 5.080000e+001
    endloop
  endfacet
  facet normal -6.961339e-001 -7.179119e-001 -0.000000e+000
    outer loop
      vertex   -3.754165e+001 -3.422374e+001 1.778000e+002
      vertex   -3.754165e+001 -3.422374e+001 5.080000e+001
      vertex   -3.305141e+001 -3.857777e+001 5.080000e+001
    endloop
  endfacet
  facet normal -7.790806e-001 -6.269238e-001 -0.000000e+000
    outer loop
      vertex   -4.146280e+001 -2.935091e+001 1.778000e+002
      vertex   -4.146280e+001 -2.935091e+001 5.080000e+001
      vertex   -3.754165e+001 -3.422374e+001 5.080000e+001
    endloop
  endfacet
  facet normal -8.502171e-001 -5.264322e-001 -0.000000e+000
    outer loop
      vertex   -4.475542e+001 -2.403315e+001 1.778000e+002
      vertex   -4.475542e+001 -2.403315e+001 5.080000e+001
      vertex   -4.146280e+001 -2.935091e+001 5.080000e+001
    endloop
  endfacet
  facet normal -9.084653e-001 -4.179603e-001 -0.000000e+000
    outer loop
      vertex   -4.736959e+001 -1.835108e+001 1.778000e+002
      vertex   -4.736959e+001 -1.835108e+001 5.080000e+001
      vertex   -4.475542e+001 -2.403315e+001 5.080000e+001
    endloop
  endfacet
  facet normal -9.529420e-001 -3.031527e-001 -0.000000e+000
    outer loop
      vertex   -4.926568e+001 -1.239082e+001 1.778000e+002
      vertex   -4.926568e+001 -1.239082e+001 5.080000e+001
      vertex   -4.736959e+001 -1.835108e+001 5.080000e+001
    endloop
  endfacet
  facet normal -9.829731e-001 -1.837495e-001 -0.000000e+000
    outer loop
      vertex   -5.041496e+001 -6.242725e+000 1.778000e+002
      vertex   -5.041496e+001 -6.242725e+000 5.080000e+001
      vertex   -4.926568e+001 -1.239082e+001 5.080000e+001
    endloop
  endfacet
  facet normal -9.981033e-001 -6.156091e-002 -6.031229e-018
    outer loop
      vertex   -5.080000e+001 -1.244241e-014 1.778000e+002
      vertex   -5.080000e+001 0.000000e+000 5.080000e+001
      vertex   -5.041496e+001 -6.242725e+000 5.080000e+001
    endloop
  endfacet
  facet normal -9.981033e-001 -6.156091e-002 0.000000e+000
    outer loop
      vertex   -5.041496e+001 -6.242725e+000 5.080000e+001
      vertex   -5.041496e+001 -6.242725e+000 1.778000e+002
      vertex   -5.080000e+001 -1.244241e-014 1.778000e+002
    endloop
  endfacet
  facet normal -9.829731e-001 -1.837495e-001 0.000000e+000
    outer loop
      vertex   -4.926568e+001 -1.239082e+001 5.080000e+001
      vertex   -4.926568e+001 -1.239082e+001 1.778000e+002
      vertex   -5.041496e+001 -6.242725e+000 1.778000e+002
    endloop
  endfacet
  facet normal -9.529420e-001 -3.031527e-001 0.000000e+000
    outer loop
      vertex   -4.736959e+001 -1.835108e+001 5.080000e+001
      vertex   -4.736959e+001 -1.835108e+001 1.778000e+002
      vertex   -4.926568e+001 -1.239082e+001 1.778000e+002
    endloop
  endfacet
  facet normal -9.084653e-001 -4.179603e-001 0.000000e+000
    outer loop
      vertex   -4.475542e+001 -2.403315e+001 5.080000e+001
      vertex   -4.475542e+001 -2.403315e+001 1.778000e+002
      vertex   -4.736959e+001 -1.835108e+001 1.778000e+002
    endloop
  endfacet
  facet normal -8.502171e-001 -5.264322e-001 0.000000e+000
    outer loop
      vertex   -4.146280e+001 -2.935091e+001 5.080000e+001
      vertex   -4.146280e+001 -2.935091e+001 1.778000e+002
      vertex   -4.475542e+001 -2.403315e+001 1.778000e+002
    endloop
  endfacet
  facet normal -7.790806e-001 -6.269238e-001 0.000000e+000
    outer loop
      vertex   -3.754165e+001 -3.422374e+001 5.080000e+001
      vertex   -3.754165e+001 -3.422374e+001 1.778000e+002
      vertex   -4.146280e+001 -2.935091e+001 1.778000e+002
    endloop
  endfacet
  facet normal -6.961339e-001 -7.179119e-001 0.000000e+000
    outer loop
      vertex   -3.305141e+001 -3.857777e+001 5.080000e+001
      vertex   -3.305141e+001 -3.857777e+001 1.778000e+002
      vertex   -3.754165e+001 -3.422374e+001 1.778000e+002
    endloop
  endfacet
  facet normal -6.026346e-001 -7.980172e-001 0.000000e+000
    outer loop
      vertex   -2.806014e+001 -4.234700e+001 5.080000e+001
      vertex   -2.806014e+001 -4.234700e+001 1.778000e+002
      vertex   -3.305141e+001 -3.857777e+001 1.778000e+002
    endloop
  endfacet
  facet normal -5.000000e-001 -8.660254e-001 0.000000e+000
    outer loop
      vertex   -2.264351e+001 -4.547430e+001 5.080000e+001
      vertex   -2.264351e+001 -4.547430e+001 1.778000e+002
      vertex   -2.806014e+001 -4.234700e+001 1.778000e+002
    endloop
  endfacet
  facet normal -3.897859e-001 -9.209055e-001 0.000000e+000
    outer loop
      vertex   -1.688362e+001 -4.791225e+001 5.080000e+001
      vertex   -1.688362e+001 -4.791225e+001 1.778000e+002
      vertex   -2.264351e+001 -4.547430e+001 1.778000e+002
    endloop
  endfacet
  facet normal -2.736630e-001 -9.618256e-001 0.000000e+000
    outer loop
      vertex   -1.086780e+001 -4.962389e+001 5.080000e+001
      vertex   -1.086780e+001 -4.962389e+001 1.778000e+002
      vertex   -1.688362e+001 -4.791225e+001 1.778000e+002
    endloop
  endfacet
  facet normal -1.533917e-001 -9.881655e-001 0.000000e+000
    outer loop
      vertex   -4.687233e+000 -5.058330e+001 5.080000e+001
      vertex   -4.687233e+000 -5.058330e+001 1.778000e+002
      vertex   -1.086780e+001 -4.962389e+001 1.778000e+002
    endloop
  endfacet
  facet normal -3.079506e-002 -9.995257e-001 0.000000e+000
    outer loop
      vertex   1.564389e+000 -5.077591e+001 5.080000e+001
      vertex   1.564389e+000 -5.077591e+001 1.778000e+002
      vertex   -4.687233e+000 -5.058330e+001 1.778000e+002
    endloop
  endfacet
  facet normal 9.226836e-002 -9.957342e-001 0.000000e+000
    outer loop
      vertex   7.792296e+000 -5.019881e+001 5.080000e+001
      vertex   7.792296e+000 -5.019881e+001 1.778000e+002
      vertex   1.564389e+000 -5.077591e+001 1.778000e+002
    endloop
  endfacet
  facet normal 2.139331e-001 -9.768483e-001 0.000000e+000
    outer loop
      vertex   1.390208e+001 -4.886074e+001 5.080000e+001
      vertex   1.390208e+001 -4.886074e+001 1.778000e+002
      vertex   7.792296e+000 -5.019881e+001 1.778000e+002
    endloop
  endfacet
  facet normal 3.323548e-001 -9.431544e-001 0.000000e+000
    outer loop
      vertex   1.980112e+001 -4.678200e+001 5.080000e+001
      vertex   1.980112e+001 -4.678200e+001 1.778000e+002
      vertex   1.390208e+001 -4.886074e+001 1.778000e+002
    endloop
  endfacet
  facet normal 4.457384e-001 -8.951633e-001 0.000000e+000
    outer loop
      vertex   2.540000e+001 -4.399409e+001 5.080000e+001
      vertex   2.540000e+001 -4.399409e+001 1.778000e+002
      vertex   1.980112e+001 -4.678200e+001 1.778000e+002
    endloop
  endfacet
  facet normal 5.523650e-001 -8.336024e-001 0.000000e+000
    outer loop
      vertex   3.061384e+001 -4.053928e+001 5.080000e+001
      vertex   3.061384e+001 -4.053928e+001 1.778000e+002
      vertex   2.540000e+001 -4.399409e+001 1.778000e+002
    endloop
  endfacet
  facet normal 6.506183e-001 -7.594049e-001 0.000000e+000
    outer loop
      vertex   3.536360e+001 -3.646993e+001 5.080000e+001
      vertex   3.536360e+001 -3.646993e+001 1.778000e+002
      vertex   3.061384e+001 -4.053928e+001 1.778000e+002
    endloop
  endfacet
  facet normal 7.390089e-001 -6.736956e-001 0.000000e+000
    outer loop
      vertex   3.957729e+001 -3.184773e+001 5.080000e+001
      vertex   3.957729e+001 -3.184773e+001 1.778000e+002
      vertex   3.536360e+001 -3.646993e+001 1.778000e+002
    endloop
  endfacet
  facet normal 8.161969e-001 -5.777738e-001 0.000000e+000
    outer loop
      vertex   4.319103e+001 -2.674275e+001 5.080000e+001
      vertex   4.319103e+001 -2.674275e+001 1.778000e+002
      vertex   3.957729e+001 -3.184773e+001 1.778000e+002
    endloop
  endfacet
  facet normal 8.810122e-001 -4.730936e-001 0.000000e+000
    outer loop
      vertex   4.615004e+001 -2.123239e+001 5.080000e+001
      vertex   4.615004e+001 -2.123239e+001 1.778000e+002
      vertex   4.319103e+001 -2.674275e+001 1.778000e+002
    endloop
  endfacet
  facet normal 9.324722e-001 -3.612417e-001 0.000000e+000
    outer loop
      vertex   4.840945e+001 -1.540016e+001 5.080000e+001
      vertex   4.840945e+001 -1.540016e+001 1.778000e+002
      vertex   4.615004e+001 -2.123239e+001 1.778000e+002
    endloop
  endfacet
  facet normal 9.697969e-001 -2.439137e-001 0.000000e+000
    outer loop
      vertex   4.993503e+001 -9.334476e+000 5.080000e+001
      vertex   4.993503e+001 -9.334476e+000 1.778000e+002
      vertex   4.840945e+001 -1.540016e+001 1.778000e+002
    endloop
  endfacet
  facet normal 9.924205e-001 -1.228883e-001 0.000000e+000
    outer loop
      vertex   5.070365e+001 -3.127294e+000 5.080000e+001
      vertex   5.070365e+001 -3.127294e+000 1.778000e+002
      vertex   4.993503e+001 -9.334476e+000 1.778000e+002
    endloop
  endfacet
  facet normal 9.995257e-001 -3.079506e-002 3.017046e-018
    outer loop
      vertex   5.080000e+001 6.221206e-015 5.080000e+001
      vertex   5.080000e+001 1.866362e-014 1.778000e+002
      vertex   5.070365e+001 -3.127294e+000 1.778000e+002
    endloop
  endfacet
  facet normal 9.924205e-001 1.228883e-001 -0.000000e+000
    outer loop
      vertex   4.993503e+001 9.334476e+000 5.080000e+001
      vertex   4.993503e+001 9.334476e+000 1.778000e+002
      vertex   5.070365e+001 3.127294e+000 1.778000e+002
    endloop
  endfacet
  facet normal 9.697969e-001 2.439137e-001 -0.000000e+000
    outer loop
      vertex   4.840945e+001 1.540016e+001 5.080000e+001
      vertex   4.840945e+001 1.540016e+001 1.778000e+002
      vertex   4.993503e+001 9.334476e+000 1.778000e+002
    endloop
  endfacet
  facet normal 9.324722e-001 3.612417e-001 -0.000000e+000
    outer loop
      vertex   4.615004e+001 2.123239e+001 5.080000e+001
      vertex   4.615004e+001 2.123239e+001 1.778000e+002
      vertex   4.840945e+001 1.540016e+001 1.778000e+002
    endloop
  endfacet
  facet normal 8.810122e-001 4.730936e-001 -0.000000e+000
    outer loop
      vertex   4.319103e+001 2.674275e+001 5.080000e+001
      vertex   4.319103e+001 2.674275e+001 1.778000e+002
      vertex   4.615004e+001 2.123239e+001 1.778000e+002
    endloop
  endfacet
  facet normal 8.161969e-001 5.777738e-001 -0.000000e+000
    outer loop
      vertex   3.957729e+001 3.184773e+001 5.080000e+001
      vertex   3.957729e+001 3.184773e+001 1.778000e+002
      vertex   4.319103e+001 2.674275e+001 1.778000e+002
    endloop
  endfacet
  facet normal 7.390089e-001 6.736956e-001 -0.000000e+000
    outer loop
      vertex   3.536360e+001 3.646993e+001 5.080000e+001
      vertex   3.536360e+001 3.646993e+001 1.778000e+002
      vertex   3.957729e+001 3.184773e+001 1.778000e+002
    endloop
  endfacet
  facet normal 6.506183e-001 7.594049e-001 -0.000000e+000
    outer loop
      vertex   3.061384e+001 4.053928e+001 5.080000e+001
      vertex   3.061384e+001 4.053928e+001 1.778000e+002
      vertex   3.536360e+001 3.646993e+001 1.778000e+002
    endloop
  endfacet
  facet normal 5.523650e-001 8.336024e-001 -0.000000e+000
    outer loop
      vertex   2.540000e+001 4.399409e+001 5.080000e+001
      vertex   2.540000e+001 4.399409e+001 1.778000e+002
      vertex   3.061384e+001 4.053928e+001 1.778000e+002
    endloop
  endfacet
  facet normal 4.457384e-001 8.951633e-001 -0.000000e+000
    outer loop
      vertex   1.980112e+001 4.678200e+001 5.080000e+001
      vertex   1.980112e+001 4.678200e+001 1.778000e+002
      vertex   2.540000e+001 4.399409e+001 1.778000e+002
    endloop
  endfacet
  facet normal 3.323548e-001 9.431544e-001 -0.000000e+000
    outer loop
      vertex   1.390208e+001 4.886074e+001 5.080000e+001
      vertex   1.390208e+001 4.886074e+001 1.778000e+002
      vertex   1.980112e+001 4.678200e+001 1.778000e+002
    endloop
  endfacet
  facet normal 2.139331e-001 9.768483e-001 -0.000000e+000
    outer loop
      vertex   7.792296e+000 5.019881e+001 5.080000e+001
      vertex   7.792296e+000 5.019881e+001 1.778000e+002
      vertex   1.390208e+001 4.886074e+001 1.778000e+002
    endloop
  endfacet
  facet normal 9.226836e-002 9.957342e-001 -0.000000e+000
    outer loop
      vertex   1.564389e+000 5.077591e+001 5.080000e+001
      vertex   1.564389e+000 5.077591e+001 1.778000e+002
      vertex   7.792296e+000 5.019881e+001 1.778000e+002
    endloop
  endfacet
  facet normal -3.079506e-002 9.995257e-001 0.000000e+000
    outer loop
      vertex   -4.687233e+000 5.058330e+001 5.080000e+001
      vertex   -4.687233e+000 5.058330e+001 1.778000e+002
      vertex   1.564389e+000 5.077591e+001 1.778000e+002
    endloop
  endfacet
  facet normal -1.533917e-001 9.881655e-001 0.000000e+000
    outer loop
      vertex   -1.086780e+001 4.962389e+001 5.080000e+001
      vertex   -1.086780e+001 4.962389e+001 1.778000e+002
      vertex   -4.687233e+000 5.058330e+001 1.778000e+002
    endloop
  endfacet
  facet normal -2.736630e-001 9.618256e-001 0.000000e+000
    outer loop
      vertex   -1.688362e+001 4.791225e+001 5.080000e+001
      vertex   -1.688362e+001 4.791225e+001 1.778000e+002
      vertex   -1.086780e+001 4.962389e+001 1.778000e+002
    endloop
  endfacet
  facet normal -3.897859e-001 9.209055e-001 0.000000e+000
    outer loop
      vertex   -2.264351e+001 4.547430e+001 5.080000e+001
      vertex   -2.264351e+001 4.547430e+001 1.778000e+002
      vertex   -1.688362e+001 4.791225e+001 1.778000e+002
    endloop
  endfacet
  facet normal -5.000000e-001 8.660254e-001 0.000000e+000
    outer loop
      vertex   -2.806014e+001 4.234700e+001 5.080000e+001
      vertex   -2.806014e+001 4.234700e+001 1.778000e+002
      vertex   -2.264351e+001 4.547430e+001 1.778000e+002
    endloop
  endfacet
  facet normal -6.026346e-001 7.980172e-001 0.000000e+000
    outer loop
      vertex   -3.305141e+001 3.857777e+001 5.080000e+001
      vertex   -3.305141e+001 3.857777e+001 1.778000e+002
      vertex   -2.806014e+001 4.234700e+001 1.778000e+002
    endloop
  endfacet
  facet normal -6.961339e-001 7.179119e-001 0.000000e+000
    outer loop
      vertex   -3.754165e+001 3.422374e+001 5.080000e+001
      vertex   -3.754165e+001 3.422374e+001 1.778000e+002
      vertex   -3.305141e+001 3.857777e+001 1.778000e+002
    endloop
  endfacet
  facet normal -7.790806e-001 6.269238e-001 0.000000e+000
    outer loop
      vertex   -4.146280e+001 2.935091e+001 5.080000e+001
      vertex   -4.146280e+001 2.935091e+001 1.778000e+002
      vertex   -3.754165e+001 3.422374e+001 1.778000e+002
    endloop
  endfacet
  facet normal -8.502171e-001 5.264322e-001 0.000000e+000
    outer loop
      vertex   -4.475542e+001 2.403315e+001 5.080000e+001
      vertex   -4.475542e+001 2.403315e+001 1.778000e+002
      vertex   -4.146280e+001 2.935091e+001 1.778000e+002
    endloop
  endfacet
  facet normal -9.084653e-001 4.179603e-001 0.000000e+000
    outer loop
      vertex   -4.736959e+001 1.835108e+001 5.080000e+001
      vertex   -4.736959e+001 1.835108e+001 1.778000e+002
      vertex   -4.475542e+001 2.403315e+001 1.778000e+002
    endloop
  endfacet
  facet normal -9.529420e-001 3.031527e-001 0.000000e+000
    outer loop
      vertex   -4.926568e+001 1.239082e+001 5.080000e+001
      vertex   -4.926568e+001 1.239082e+001 1.778000e+002
      vertex   -4.736959e+001 1.835108e+001 1.778000e+002
    endloop
  endfacet
  facet normal -9.829731e-001 1.837495e-001 0.000000e+000
    outer loop
      vertex   -5.041496e+001 6.242725e+000 5.080000e+001
      vertex   -5.041496e+001 6.242725e+000 1.778000e+002
      vertex   -4.926568e+001 1.239082e+001 1.778000e+002
    endloop
  endfacet
  facet normal -9.981033e-001 6.156091e-002 6.031229e-018
    outer loop
      vertex   -5.080000e+001 0.000000e+000 5.080000e+001
      vertex   -5.080000e+001 -1.244241e-014 1.778000e+002
      vertex   -5.041496e+001 6.242725e+000 1.778000e+002
    endloop
  endfacet
  facet normal 0.000000e+000 0.000000e+000 -1.000000e+000
    outer loop
      vertex   -5.080000e+001 0.000000e+000 5.080000e+001
      vertex   -2.806014e+001 -4.234700e+001 5.080000e+001
      vertex   -3.305141e+001 -3.857777e+001 5.080000e+001
    endloop
  endfacet
  facet normal 0.000000e+000 0.000000e+000 -1.000000e+000
    outer loop
      vertex   -4.146280e+001 -2.935091e+001 5.080000e+001
      vertex   -4.926568e+001 -1.239082e+001 5.080000e+001
      vertex   -5.041496e+001 -6.242725e+000 5.080000e+001
    endloop
  endfacet
  facet normal 0.000000e+000 0.000000e+000 -1.000000e+000
    outer loop
      vertex   -4.926568e+001 -1.239082e+001 5.080000e+001
      vertex   -4.146280e+001 -2.935091e+001 5.080000e+001
      vertex   -4.475542e+001 -2.403315e+001 5.080000e+001
    endloop
  endfacet
  facet normal 0.000000e+000 0.000000e+000 -1.000000e+000
    outer loop
      vertex   -5.080000e+001 0.000000e+000 5.080000e+001
      vertex   -2.264351e+001 -4.547430e+001 5.080000e+001
      vertex   -2.806014e+001 -4.234700e+001 5.080000e+001
    endloop
  endfacet
  facet normal 0.000000e+000 0.000000e+000 -1.000000e+000
    outer loop
      vertex   -5.080000e+001 0.000000e+000 5.080000e+001
      vertex   7.792296e+000 -5.019881e+001 5.080000e+001
      vertex   1.564389e+000 -5.077591e+001 5.080000e+001
    endloop
  endfacet
  facet normal 0.000000e+000 0.000000e+000 -1.000000e+000
    outer loop
      vertex   -5.080000e+001 0.000000e+000 5.080000e+001
      vertex   3.957729e+001 -3.184773e+001 5.080000e+001
      vertex   3.536360e+001 -3.646993e+001 5.080000e+001
    endloop
  endfacet
  facet normal 0.000000e+000 0.000000e+000 -1.000000e+000
    outer loop
      vertex   4.840945e+001 1.540016e+001 5.080000e+001
      vertex   3.536360e+001 3.646993e+001 5.080000e+001
      vertex   3.957729e+001 3.184773e+001 5.080000e+001
    endloop
  endfacet
  facet normal 0.000000e+000 0.000000e+000 -1.000000e+000
    outer loop
      vertex   4.840945e+001 1.540016e+001 5.080000e+001
      vertex   2.540000e+001 4.399409e+001 5.080000e+001
      vertex   3.061384e+001 4.053928e+001 5.080000e+001
    endloop
  endfacet
  facet normal 0.000000e+000 0.000000e+000 -1.000000e+000
    outer loop
      vertex   5.070365e+001 3.127294e+000 5.080000e+001
      vertex   -4.926568e+001 1.239082e+001 5.080000e+001
      vertex   -4.736959e+001 1.835108e+001 5.080000e+001
    endloop
  endfacet
  facet normal 0.000000e+000 0.000000e+000 -1.000000e+000
    outer loop
      vertex   -4.475542e+001 -2.403315e+001 5.080000e+001
      vertex   -4.736959e+001 -1.835108e+001 5.080000e+001
      vertex   -4.926568e+001 -1.239082e+001 5.080000e+001
    endloop
  endfacet
  facet normal 0.000000e+000 0.000000e+000 -1.000000e+000
    outer loop
      vertex   -3.305141e+001 -3.857777e+001 5.080000e+001
      vertex   -3.754165e+001 -3.422374e+001 5.080000e+001
      vertex   -5.080000e+001 0.000000e+000 5.080000e+001
    endloop
  endfacet
  facet normal 0.000000e+000 0.000000e+000 -1.000000e+000
    outer loop
      vertex   -5.080000e+001 0.000000e+000 5.080000e+001
      vertex   -1.086780e+001 -4.962389e+001 5.080000e+001
      vertex   -1.688362e+001 -4.791225e+001 5.080000e+001
    endloop
  endfacet
  facet normal 0.000000e+000 0.000000e+000 -1.000000e+000
    outer loop
      vertex   1.564389e+000 -5.077591e+001 5.080000e+001
      vertex   -4.687233e+000 -5.058330e+001 5.080000e+001
      vertex   -5.080000e+001 0.000000e+000 5.080000e+001
    endloop
  endfacet
  facet normal -0.000000e+000 0.000000e+000 -1.000000e+000
    outer loop
      vertex   3.536360e+001 -3.646993e+001 5.080000e+001
      vertex   3.061384e+001 -4.053928e+001 5.080000e+001
      vertex   -5.080000e+001 0.000000e+000 5.080000e+001
    endloop
  endfacet
  facet normal 0.000000e+000 0.000000e+000 -1.000000e+000
    outer loop
      vertex   -5.080000e+001 0.000000e+000 5.080000e+001
      vertex   4.840945e+001 -1.540016e+001 5.080000e+001
      vertex   4.615004e+001 -2.123239e+001 5.080000e+001
    endloop
  endfacet
  facet normal 0.000000e+000 0.000000e+000 -1.000000e+000
    outer loop
      vertex   3.957729e+001 3.184773e+001 5.080000e+001
      vertex   4.319103e+001 2.674275e+001 5.080000e+001
      vertex   4.840945e+001 1.540016e+001 5.080000e+001
    endloop
  endfacet
  facet normal 0.000000e+000 0.000000e+000 -1.000000e+000
    outer loop
      vertex   4.840945e+001 1.540016e+001 5.080000e+001
      vertex   1.980112e+001 4.678200e+001 5.080000e+001
      vertex   2.540000e+001 4.399409e+001 5.080000e+001
    endloop
  endfacet
  facet normal 0.000000e+000 0.000000e+000 -1.000000e+000
    outer loop
      vertex   5.070365e+001 3.127294e+000 5.080000e+001
      vertex   -1.086780e+001 4.962389e+001 5.080000e+001
      vertex   -4.687233e+000 5.058330e+001 5.080000e+001
    endloop
  endfacet
  facet normal 0.000000e+000 0.000000e+000 -1.000000e+000
    outer loop
      vertex   5.070365e+001 3.127294e+000 5.080000e+001
      vertex   -3.305141e+001 3.857777e+001 5.080000e+001
      vertex   -2.806014e+001 4.234700e+001 5.080000e+001
    endloop
  endfacet
  facet normal 0.000000e+000 0.000000e+000 -1.000000e+000
    outer loop
      vertex   5.070365e+001 3.127294e+000 5.080000e+001
      vertex   -5.041496e+001 6.242725e+000 5.080000e+001
      vertex   -4.926568e+001 1.239082e+001 5.080000e+001
    endloop
  endfacet
  facet normal 0.000000e+000 0.000000e+000 -1.000000e+000
    outer loop
      vertex   -3.754165e+001 -3.422374e+001 5.080000e+001
      vertex   -4.146280e+001 -2.935091e+001 5.080000e+001
      vertex   -5.080000e+001 0.000000e+000 5.080000e+001
    endloop
  endfacet
  facet normal 0.000000e+000 0.000000e+000 -1.000000e+000
    outer loop
      vertex   -4.687233e+000 -5.058330e+001 5.080000e+001
      vertex   -1.086780e+001 -4.962389e+001 5.080000e+001
      vertex   -5.080000e+001 0.000000e+000 5.080000e+001
    endloop
  endfacet
  facet normal 0.000000e+000 0.000000e+000 -1.000000e+000
    outer loop
      vertex   -5.080000e+001 0.000000e+000 5.080000e+001
      vertex   1.980112e+001 -4.678200e+001 5.080000e+001
      vertex   1.390208e+001 -4.886074e+001 5.080000e+001
    endloop
  endfacet
  facet normal -0.000000e+000 0.000000e+000 -1.000000e+000
    outer loop
      vertex   3.061384e+001 -4.053928e+001 5.080000e+001
      vertex   2.540000e+001 -4.399409e+001 5.080000e+001
      vertex   -5.080000e+001 0.000000e+000 5.080000e+001
    endloop
  endfacet
  facet normal -0.000000e+000 0.000000e+000 -1.000000e+000
    outer loop
      vertex   4.615004e+001 -2.123239e+001 5.080000e+001
      vertex   4.319103e+001 -2.674275e+001 5.080000e+001
      vertex   -5.080000e+001 0.000000e+000 5.080000e+001
    endloop
  endfacet
  facet normal 0.000000e+000 0.000000e+000 -1.000000e+000
    outer loop
      vertex   1.980112e+001 4.678200e+001 5.080000e+001
      vertex   4.840945e+001 1.540016e+001 5.080000e+001
      vertex   4.993503e+001 9.334476e+000 5.080000e+001
    endloop
  endfacet
  facet normal 0.000000e+000 0.000000e+000 -1.000000e+000
    outer loop
      vertex   3.061384e+001 4.053928e+001 5.080000e+001
      vertex   3.536360e+001 3.646993e+001 5.080000e+001
      vertex   4.840945e+001 1.540016e+001 5.080000e+001
    endloop
  endfacet
  facet normal 0.000000e+000 0.000000e+000 -1.000000e+000
    outer loop
      vertex   5.070365e+001 3.127294e+000 5.080000e+001
      vertex   7.792296e+000 5.019881e+001 5.080000e+001
      vertex   1.390208e+001 4.886074e+001 5.080000e+001
    endloop
  endfacet
  facet normal 0.000000e+000 0.000000e+000 -1.000000e+000
    outer loop
      vertex   -4.687233e+000 5.058330e+001 5.080000e+001
      vertex   1.564389e+000 5.077591e+001 5.080000e+001
      vertex   5.070365e+001 3.127294e+000 5.080000e+001
    endloop
  endfacet
  facet normal 0.000000e+000 0.000000e+000 -1.000000e+000
    outer loop
      vertex   5.070365e+001 3.127294e+000 5.080000e+001
      vertex   -2.264351e+001 4.547430e+001 5.080000e+001
      vertex   -1.688362e+001 4.791225e+001 5.080000e+001
    endloop
  endfacet
  facet normal 0.000000e+000 0.000000e+000 -1.000000e+000
    outer loop
      vertex   5.070365e+001 3.127294e+000 5.080000e+001
      vertex   -3.754165e+001 3.422374e+001 5.080000e+001
      vertex   -3.305141e+001 3.857777e+001 5.080000e+001
    endloop
  endfacet
  facet normal 0.000000e+000 0.000000e+000 -1.000000e+000
    outer loop
      vertex   5.070365e+001 3.127294e+000 5.080000e+001
      vertex   -4.475542e+001 2.403315e+001 5.080000e+001
      vertex   -4.146280e+001 2.935091e+001 5.080000e+001
    endloop
  endfacet
  facet normal -0.000000e+000 0.000000e+000 -1.000000e+000
    outer loop
      vertex   5.070365e+001 3.127294e+000 5.080000e+001
      vertex   -5.080000e+001 0.000000e+000 5.080000e+001
      vertex   -5.041496e+001 6.242725e+000 5.080000e+001
    endloop
  endfacet
  facet normal 0.000000e+000 0.000000e+000 -1.000000e+000
    outer loop
      vertex   -1.688362e+001 -4.791225e+001 5.080000e+001
      vertex   -2.264351e+001 -4.547430e+001 5.080000e+001
      vertex   -5.080000e+001 0.000000e+000 5.080000e+001
    endloop
  endfacet
  facet normal -0.000000e+000 0.000000e+000 -1.000000e+000
    outer loop
      vertex   2.540000e+001 -4.399409e+001 5.080000e+001
      vertex   1.980112e+001 -4.678200e+001 5.080000e+001
      vertex   -5.080000e+001 0.000000e+000 5.080000e+001
    endloop
  endfacet
  facet normal 0.000000e+000 0.000000e+000 -1.000000e+000
    outer loop
      vertex   -5.080000e+001 0.000000e+000 5.080000e+001
      vertex   4.993503e+001 -9.334476e+000 5.080000e+001
      vertex   4.840945e+001 -1.540016e+001 5.080000e+001
    endloop
  endfacet
  facet normal 0.000000e+000 0.000000e+000 -1.000000e+000
    outer loop
      vertex   4.319103e+001 2.674275e+001 5.080000e+001
      vertex   4.615004e+001 2.123239e+001 5.080000e+001
      vertex   4.840945e+001 1.540016e+001 5.080000e+001
    endloop
  endfacet
  facet normal 0.000000e+000 0.000000e+000 -1.000000e+000
    outer loop
      vertex   1.564389e+000 5.077591e+001 5.080000e+001
      vertex   7.792296e+000 5.019881e+001 5.080000e+001
      vertex   5.070365e+001 3.127294e+000 5.080000e+001
    endloop
  endfacet
  facet normal 0.000000e+000 0.000000e+000 -1.000000e+000
    outer loop
      vertex   -2.806014e+001 4.234700e+001 5.080000e+001
      vertex   -2.264351e+001 4.547430e+001 5.080000e+001
      vertex   5.070365e+001 3.127294e+000 5.080000e+001
    endloop
  endfacet
  facet normal 0.000000e+000 0.000000e+000 -1.000000e+000
    outer loop
      vertex   -4.736959e+001 1.835108e+001 5.080000e+001
      vertex   -4.475542e+001 2.403315e+001 5.080000e+001
      vertex   5.070365e+001 3.127294e+000 5.080000e+001
    endloop
  endfacet
  facet normal -0.000000e+000 0.000000e+000 -1.000000e+000
    outer loop
      vertex   1.390208e+001 -4.886074e+001 5.080000e+001
      vertex   7.792296e+000 -5.019881e+001 5.080000e+001
      vertex   -5.080000e+001 0.000000e+000 5.080000e+001
    endloop
  endfacet
  facet normal 0.000000e+000 0.000000e+000 -1.000000e+000
    outer loop
      vertex   -5.080000e+001 0.000000e+000 5.080000e+001
      vertex   5.070365e+001 -3.127294e+000 5.080000e+001
      vertex   4.993503e+001 -9.334476e+000 5.080000e+001
    endloop
  endfacet
  facet normal 0.000000e+000 0.000000e+000 -1.000000e+000
    outer loop
      vertex   1.390208e+001 4.886074e+001 5.080000e+001
      vertex   1.980112e+001 4.678200e+001 5.080000e+001
      vertex   5.070365e+001 3.127294e+000 5.080000e+001
    endloop
  endfacet
  facet normal 0.000000e+000 0.000000e+000 -1.000000e+000
    outer loop
      vertex   -4.146280e+001 2.935091e+001 5.080000e+001
      vertex   -3.754165e+001 3.422374e+001 5.080000e+001
      vertex   5.070365e+001 3.127294e+000 5.080000e+001
    endloop
  endfacet
  facet normal -0.000000e+000 0.000000e+000 -1.000000e+000
    outer loop
      vertex   4.319103e+001 -2.674275e+001 5.080000e+001
      vertex   3.957729e+001 -3.184773e+001 5.080000e+001
      vertex   -5.080000e+001 0.000000e+000 5.080000e+001
    endloop
  endfacet
  facet normal 0.000000e+000 0.000000e+000 -1.000000e+000
    outer loop
      vertex   -1.688362e+001 4.791225e+001 5.080000e+001
      vertex   -1.086780e+001 4.962389e+001 5.080000e+001
      vertex   5.070365e+001 3.127294e+000 5.080000e+001
    endloop
  endfacet
  facet normal 0.000000e+000 0.000000e+000 -1.000000e+000
    outer loop
      vertex   -5.080000e+001 0.000000e+000 5.080000e+001
      vertex   5.080000e+001 6.221206e-015 5.080000e+001
      vertex   5.070365e+001 -3.127294e+000 5.080000e+001
    endloop
  endfacet
  facet normal -0.000000e+000 -0.000000e+000 -1.000000e+000
    outer loop
      vertex   4.993503e+001 9.334476e+000 5.080000e+001
      vertex   5.070365e+001 3.127294e+000 5.080000e+001
      vertex   1.980112e+001 4.678200e+001 5.080000e+001
    endloop
  endfacet
  facet normal 0.000000e+000 -0.000000e+000 -1.000000e+000
    outer loop
      vertex   5.070365e+001 3.127294e+000 5.080000e+001
      vertex   5.080000e+001 6.221206e-015 5.080000e+001
      vertex   -5.080000e+001 0.000000e+000 5.080000e+001
    endloop
  endfacet
  facet normal 0.000000e+000 0.000000e+000 -1.000000e+000
    outer loop
      vertex   -5.041496e+001 -6.242725e+000 5.080000e+001
      vertex   -5.080000e+001 0.000000e+000 5.080000e+001
      vertex   -4.146280e+001 -2.935091e+001 5.080000e+001
    endloop
  endfacet
endsolid
