solid ascii
  facet normal 0.000000e+000 0.000000e+000 1.000000e+000
    outer loop
      vertex   3.000000e+001 3.000000e+001 -1.2700000e+002
      vertex   -3.000000e+001 3.000000e+001 -1.2700000e+002
      vertex   -3.000000e+001 -3.000000e+001 -1.2700000e+002
    endloop
  endfacet
  facet normal 0.000000e+000 0.000000e+000 1.000000e+000
    outer loop
      vertex   -3.000000e+001 -3.000000e+001 -1.2700000e+002
      vertex   3.000000e+001 -3.000000e+001 -1.2700000e+002
      vertex   3.000000e+001 3.000000e+001 -1.2700000e+002
    endloop
  endfacet
endsolid
